<svg width="20" height="20" viewBox="0 0 20 20" fill="none" xmlns="http://www.w3.org/2000/svg">
<path d="M14.1666 2.0249H5.83329C3.33329 2.0249 1.66663 3.69157 1.66663 6.19157V11.1916C1.66663 13.6916 3.33329 15.3582 5.83329 15.3582V17.1332C5.83329 17.7999 6.57496 18.1999 7.12496 17.8249L10.8333 15.3582H14.1666C16.6666 15.3582 18.3333 13.6916 18.3333 11.1916V6.19157C18.3333 3.69157 16.6666 2.0249 14.1666 2.0249ZM9.99996 12.1666C9.64996 12.1666 9.37496 11.8832 9.37496 11.5416C9.37496 11.1999 9.64996 10.9166 9.99996 10.9166C10.35 10.9166 10.625 11.1999 10.625 11.5416C10.625 11.8832 10.35 12.1666 9.99996 12.1666ZM11.05 8.70824C10.725 8.9249 10.625 9.06657 10.625 9.2999V9.4749C10.625 9.81657 10.3416 10.0999 9.99996 10.0999C9.65829 10.0999 9.37496 9.81657 9.37496 9.4749V9.2999C9.37496 8.33324 10.0833 7.85824 10.35 7.6749C10.6583 7.46657 10.7583 7.3249 10.7583 7.10824C10.7583 6.69157 10.4166 6.3499 9.99996 6.3499C9.58329 6.3499 9.24163 6.69157 9.24163 7.10824C9.24163 7.4499 8.95829 7.73324 8.61663 7.73324C8.27496 7.73324 7.99163 7.4499 7.99163 7.10824C7.99163 5.9999 8.89163 5.0999 9.99996 5.0999C11.1083 5.0999 12.0083 5.9999 12.0083 7.10824C12.0083 8.05824 11.3083 8.53324 11.05 8.70824Z" fill="#2B2B2B"/>
</svg>
