<svg width="17" height="17" viewBox="0 0 17 17" fill="none" xmlns="http://www.w3.org/2000/svg">
<g clip-path="url(#clip0_407_25053)">
<path d="M1.5 12.5002C1.50086 12.92 1.59039 13.3349 1.76271 13.7178C1.93504 14.1006 2.18629 14.4427 2.5 14.7217V16.0002C2.5 16.1328 2.55268 16.26 2.64645 16.3537C2.74021 16.4475 2.86739 16.5002 3 16.5002H4C4.13261 16.5002 4.25979 16.4475 4.35355 16.3537C4.44732 16.26 4.5 16.1328 4.5 16.0002V15.5002H12.5V16.0002C12.5 16.1328 12.5527 16.26 12.6464 16.3537C12.7402 16.4475 12.8674 16.5002 13 16.5002H14C14.1326 16.5002 14.2598 16.4475 14.3536 16.3537C14.4473 16.26 14.5 16.1328 14.5 16.0002V14.7217C14.8137 14.4427 15.065 14.1006 15.2373 13.7178C15.4096 13.3349 15.4991 12.92 15.5 12.5002V11.0002H1.5V12.5002ZM16 8.50018H3V2.66424C3.00028 2.53301 3.03943 2.40481 3.11249 2.2958C3.18555 2.18679 3.28926 2.10186 3.41053 2.05172C3.5318 2.00157 3.66521 1.98847 3.79392 2.01406C3.92263 2.03965 4.04088 2.10278 4.13375 2.19549L4.73594 2.79737C4.32563 3.73112 4.49813 4.64455 5.00531 5.28893L5 5.29424C4.90659 5.38796 4.85414 5.51489 4.85414 5.64721C4.85414 5.77953 4.90659 5.90646 5 6.00018L5.35344 6.35362C5.39987 6.40006 5.45499 6.4369 5.51566 6.46203C5.57633 6.48717 5.64136 6.5001 5.70703 6.5001C5.7727 6.5001 5.83773 6.48717 5.8984 6.46203C5.95907 6.4369 6.01419 6.40006 6.06063 6.35362L9.35344 3.0608C9.39988 3.01437 9.43672 2.95925 9.46185 2.89858C9.48699 2.83791 9.49992 2.77288 9.49992 2.70721C9.49992 2.64154 9.48699 2.57651 9.46185 2.51584C9.43672 2.45517 9.39988 2.40005 9.35344 2.35362L9 2.00018C8.90624 1.90648 8.77911 1.85385 8.64656 1.85385C8.51401 1.85385 8.38688 1.90648 8.29313 2.00018L8.28781 2.00549C7.64344 1.4983 6.73062 1.3258 5.79625 1.73612L5.19438 1.13393C4.89172 0.831244 4.50611 0.625108 4.0863 0.541593C3.66649 0.458077 3.23134 0.500933 2.83589 0.66474C2.44043 0.828548 2.10244 1.10595 1.86465 1.46186C1.62687 1.81777 1.49996 2.2362 1.5 2.66424V8.50018H1C0.867392 8.50018 0.740215 8.55286 0.646447 8.64663C0.552678 8.74039 0.5 8.86757 0.5 9.00018L0.5 9.50018C0.5 9.63279 0.552678 9.75996 0.646447 9.85373C0.740215 9.9475 0.867392 10.0002 1 10.0002H16C16.1326 10.0002 16.2598 9.9475 16.3536 9.85373C16.4473 9.75996 16.5 9.63279 16.5 9.50018V9.00018C16.5 8.86757 16.4473 8.74039 16.3536 8.64663C16.2598 8.55286 16.1326 8.50018 16 8.50018Z" fill="url(#paint0_linear_407_25053)"/>
</g>
<defs>
<linearGradient id="paint0_linear_407_25053" x1="16.5" y1="16.5002" x2="-2.5386" y2="10.9802" gradientUnits="userSpaceOnUse">
<stop stop-color="#246BFD"/>
<stop offset="1" stop-color="#5089FF"/>
</linearGradient>
<clipPath id="clip0_407_25053">
<rect width="16" height="16" fill="white" transform="translate(0.5 0.5)"/>
</clipPath>
</defs>
</svg>
