<svg width="17" height="17" viewBox="0 0 17 17" fill="none" xmlns="http://www.w3.org/2000/svg">
<mask id="mask0_407_25044" style="mask-type:alpha" maskUnits="userSpaceOnUse" x="1" y="3" width="15" height="11">
<path fill-rule="evenodd" clip-rule="evenodd" d="M9.16663 4.83333H13.1666C14.64 4.83333 15.8333 6.02667 15.8333 7.5V12.8333C15.8333 13.2 15.5333 13.5 15.1666 13.5C14.8 13.5 14.5 13.2 14.5 12.8333V11.5H2.49996V12.8333C2.49996 13.2 2.19996 13.5 1.83329 13.5C1.46663 13.5 1.16663 13.2 1.16663 12.8333V4.16667C1.16663 3.8 1.46663 3.5 1.83329 3.5C2.19996 3.5 2.49996 3.8 2.49996 4.16667V9.5H7.83329V6.16667C7.83329 5.43333 8.43329 4.83333 9.16663 4.83333ZM7.16663 6.83301C7.16663 7.93967 6.27329 8.83301 5.16663 8.83301C4.05996 8.83301 3.16663 7.93967 3.16663 6.83301C3.16663 5.72634 4.05996 4.83301 5.16663 4.83301C6.27329 4.83301 7.16663 5.72634 7.16663 6.83301Z" fill="black"/>
</mask>
<g mask="url(#mask0_407_25044)">
<rect x="0.5" y="0.5" width="16" height="16" fill="url(#paint0_linear_407_25044)"/>
</g>
<defs>
<linearGradient id="paint0_linear_407_25044" x1="16.5" y1="16.5" x2="-2.53856" y2="10.9799" gradientUnits="userSpaceOnUse">
<stop stop-color="#246BFD"/>
<stop offset="1" stop-color="#5089FF"/>
</linearGradient>
</defs>
</svg>
