<svg width="14" height="13" viewBox="0 0 14 13" fill="none" xmlns="http://www.w3.org/2000/svg">
<path d="M8.28306 0.668457C8.81493 0.668457 9.30702 0.950107 9.57642 1.4087L10.1194 2.33309H11.4999C12.6965 2.33309 13.6666 3.30314 13.6666 4.49976V10.8331C13.6666 12.0297 12.6965 12.9998 11.4999 12.9998H2.49992C1.3033 12.9998 0.333252 12.0297 0.333252 10.8331V4.49976C0.333252 3.30314 1.3033 2.33309 2.49992 2.33309H3.88687L4.46992 1.38356C4.74275 0.939227 5.22676 0.668457 5.74817 0.668457H8.28306ZM8.28306 1.66846H5.74817C5.5992 1.66846 5.45938 1.73477 5.3652 1.84698L5.32209 1.90682L4.59267 3.09472C4.50172 3.24284 4.34039 3.33309 4.16659 3.33309H2.49992C1.85559 3.33309 1.33325 3.85543 1.33325 4.49976V10.8331C1.33325 11.4774 1.85559 11.9998 2.49992 11.9998H11.4999C12.1443 11.9998 12.6666 11.4774 12.6666 10.8331V4.49976C12.6666 3.85543 12.1443 3.33309 11.4999 3.33309H9.83325C9.65596 3.33309 9.49193 3.23921 9.40213 3.08634L8.71418 1.91521C8.62438 1.76234 8.46035 1.66846 8.28306 1.66846ZM6.99992 4.33309C8.65677 4.33309 9.99992 5.67624 9.99992 7.33309C9.99992 8.98995 8.65677 10.3331 6.99992 10.3331C5.34306 10.3331 3.99992 8.98995 3.99992 7.33309C3.99992 5.67624 5.34306 4.33309 6.99992 4.33309ZM6.99992 5.33309C5.89535 5.33309 4.99992 6.22852 4.99992 7.33309C4.99992 8.43766 5.89535 9.33309 6.99992 9.33309C8.10449 9.33309 8.99992 8.43766 8.99992 7.33309C8.99992 6.22852 8.10449 5.33309 6.99992 5.33309Z" fill="#246BFD"/>
</svg>
