<svg width="20" height="19" viewBox="0 0 20 19" fill="none" xmlns="http://www.w3.org/2000/svg">
<path d="M2 2.75006C1.99997 1.23125 3.2312 0 4.75 0H11.2502C12.769 0 14.0002 1.23122 14.0002 2.75V3.29098L15.9907 1.76884C16.8132 1.13986 18 1.72634 18 2.76179V9.2382C18 10.2736 16.8132 10.8601 15.9907 10.2311L14.0002 8.709V9.25C14.0002 10.7688 12.769 12 11.2502 12H4.75014C3.23138 12 2.00018 10.7688 2.00014 9.25006L2 2.75006ZM4.75 1.5C4.05964 1.5 3.49998 2.05966 3.5 2.75003L3.50014 9.25003C3.50016 9.94037 4.0598 10.5 4.75014 10.5H11.2502C11.9406 10.5 12.5002 9.94036 12.5002 9.25V2.75C12.5002 2.05964 11.9406 1.5 11.2502 1.5H4.75ZM14.0002 6.82069L16.5 8.7323V3.26768L14.0002 5.1793V6.82069ZM16.3635 13.1378C15.4128 12.9065 14.2331 12.725 12.9053 12.6157C13.5227 12.3114 14.0443 11.8422 14.4125 11.2657C15.2603 11.3747 16.0369 11.5146 16.718 11.6803C17.5858 11.8913 18.3408 12.1542 18.897 12.4741C19.397 12.7616 20 13.2503 20 14C20 14.4696 19.7549 14.8389 19.483 15.0988C19.2119 15.3579 18.8545 15.5692 18.4657 15.7455C17.6837 16.0999 16.6121 16.3845 15.3738 16.5925C14.9653 16.6611 14.5785 16.3855 14.5099 15.977C14.4413 15.5686 14.7168 15.1818 15.1253 15.1132C16.3038 14.9152 17.2324 14.6576 17.8464 14.3793C18.1556 14.2391 18.3452 14.1113 18.4466 14.0144L18.4552 14.0061L18.4616 13.9996C18.4154 13.952 18.3243 13.8751 18.1492 13.7744C17.7693 13.5559 17.1696 13.3339 16.3635 13.1378ZM18.5093 13.9424C18.5106 13.9401 18.511 13.939 18.511 13.939L18.5093 13.9424ZM1.10301 12.4741C1.41077 12.2971 1.77939 12.1375 2.19428 11.9946C2.77479 12.5353 3.52704 12.8941 4.36022 12.98C4.10651 13.0295 3.86491 13.0822 3.63653 13.1378C2.83035 13.3339 2.23073 13.5559 1.85081 13.7744C1.67525 13.8753 1.58418 13.9524 1.53803 14C1.58418 14.0477 1.67525 14.1247 1.85081 14.2257C2.23073 14.4441 2.83035 14.6662 3.63653 14.8622C5.22464 15.2485 7.45221 15.4961 9.94117 15.5L9.22221 14.7799C8.92953 14.4868 8.92988 14.012 9.22299 13.7193C9.5161 13.4266 9.99097 13.427 10.2836 13.7201L12.2807 15.7201C12.5732 16.013 12.5731 16.4876 12.2803 16.7803L10.2833 18.7774C9.99037 19.0703 9.51549 19.0703 9.2226 18.7774C8.92971 18.4845 8.92971 18.0096 9.2226 17.7167L9.93939 17C7.36709 16.996 5.01562 16.7414 3.282 16.3197C2.41425 16.1087 1.65924 15.8458 1.10301 15.526C0.603005 15.2384 0 14.7497 0 14C0 13.2503 0.603005 12.7616 1.10301 12.4741Z" fill="#2B2B2B"/>
</svg>
