<svg width="14" height="14" viewBox="0 0 14 14" fill="none" xmlns="http://www.w3.org/2000/svg">
<path d="M6.99996 1.16667C3.78579 1.16667 1.16663 3.78584 1.16663 7.00001C1.16663 10.2142 3.78579 12.8333 6.99996 12.8333C10.2141 12.8333 12.8333 10.2142 12.8333 7.00001C12.8333 3.78584 10.2141 1.16667 6.99996 1.16667ZM8.95996 8.34167C9.12913 8.51084 9.12913 8.79084 8.95996 8.96001C8.87246 9.04751 8.76163 9.08834 8.65079 9.08834C8.53996 9.08834 8.42913 9.04751 8.34163 8.96001L6.99996 7.61834L5.65829 8.96001C5.57079 9.04751 5.45996 9.08834 5.34913 9.08834C5.23829 9.08834 5.12746 9.04751 5.03996 8.96001C4.87079 8.79084 4.87079 8.51084 5.03996 8.34167L6.38163 7.00001L5.03996 5.65834C4.87079 5.48917 4.87079 5.20917 5.03996 5.04001C5.20913 4.87084 5.48913 4.87084 5.65829 5.04001L6.99996 6.38167L8.34163 5.04001C8.51079 4.87084 8.79079 4.87084 8.95996 5.04001C9.12913 5.20917 9.12913 5.48917 8.95996 5.65834L7.61829 7.00001L8.95996 8.34167Z" fill="#B32525"/>
</svg>
