<svg width="25" height="25" viewBox="0 0 25 25" fill="none" xmlns="http://www.w3.org/2000/svg">
<path d="M3.875 20.223V21.5C3.875 21.7652 3.98036 22.0196 4.16789 22.2071C4.35543 22.3946 4.60978 22.5 4.875 22.5H5.875C6.14022 22.5 6.39457 22.3946 6.58211 22.2071C6.76964 22.0196 6.875 21.7652 6.875 21.5V20.5H18.875V21.5C18.875 21.7652 18.9804 22.0196 19.1679 22.2071C19.3554 22.3946 19.6098 22.5 19.875 22.5H20.875C21.1402 22.5 21.3946 22.3946 21.5821 22.2071C21.7696 22.0196 21.875 21.7652 21.875 21.5V20.223C22.1784 20.049 22.4306 19.7981 22.6061 19.4956C22.7817 19.1932 22.8744 18.8497 22.875 18.5V15.5C22.875 14.669 22.368 13.958 21.647 13.655L20.279 9.551C20.0805 8.95348 19.6988 8.4337 19.1881 8.06551C18.6774 7.69732 18.0636 7.49944 17.434 7.5H8.316C7.68639 7.49944 7.07261 7.69732 6.56188 8.06551C6.05115 8.4337 5.66945 8.95348 5.471 9.551L4.103 13.655C3.7393 13.8073 3.42871 14.0637 3.21023 14.392C2.99176 14.7202 2.87513 15.1057 2.875 15.5V18.5C2.875 19.238 3.279 19.876 3.875 20.223ZM6.375 18.5C6.17795 18.4999 5.98285 18.4611 5.80082 18.3856C5.6188 18.3101 5.45342 18.1995 5.31413 18.0602C5.03283 17.7787 4.87487 17.397 4.875 16.999C4.87513 16.601 5.03335 16.2194 5.31484 15.9381C5.59633 15.6568 5.97804 15.4989 6.376 15.499C6.77396 15.4991 7.15556 15.6573 7.43687 15.9388C7.71817 16.2203 7.87613 16.602 7.876 17C7.87587 17.398 7.71765 17.7796 7.43616 18.0609C7.15467 18.3422 6.77296 18.5001 6.375 18.5ZM19.375 18.5C18.977 18.4999 18.5954 18.3417 18.3141 18.0602C18.0328 17.7787 17.8749 17.397 17.875 16.999C17.8751 16.601 18.0333 16.2194 18.3148 15.9381C18.5963 15.6568 18.978 15.4989 19.376 15.499C19.774 15.4991 20.1556 15.6573 20.4369 15.9388C20.7182 16.2203 20.8761 16.602 20.876 17C20.8759 17.398 20.7177 17.7796 20.4362 18.0609C20.1547 18.3422 19.773 18.5001 19.375 18.5ZM8.316 9.5H17.433C17.643 9.49995 17.8476 9.56599 18.0179 9.68876C18.1883 9.81153 18.3156 9.9848 18.382 10.184L19.488 13.5H6.262L7.367 10.184C7.504 9.775 7.886 9.5 8.316 9.5Z" fill="url(#paint0_linear_407_25123)"/>
<path d="M22.875 7.88753V5.77853L13.191 2.55053C12.977 2.47889 12.745 2.48207 12.533 2.55953L2.875 6.07153V8.19953L12.89 4.55753L22.875 7.88753Z" fill="url(#paint1_linear_407_25123)"/>
<defs>
<linearGradient id="paint0_linear_407_25123" x1="22.875" y1="22.5" x2="0.430513" y2="13.8232" gradientUnits="userSpaceOnUse">
<stop stop-color="#246BFD"/>
<stop offset="1" stop-color="#5089FF"/>
</linearGradient>
<linearGradient id="paint1_linear_407_25123" x1="22.875" y1="8.19953" x2="10.1961" y2="-4.69799" gradientUnits="userSpaceOnUse">
<stop stop-color="#246BFD"/>
<stop offset="1" stop-color="#5089FF"/>
</linearGradient>
</defs>
</svg>
