<svg width="14" height="14" viewBox="0 0 14 14" fill="none" xmlns="http://www.w3.org/2000/svg">
<path d="M6.99996 1.16667C3.78579 1.16667 1.16663 3.78584 1.16663 7.00001C1.16663 10.2142 3.78579 12.8333 6.99996 12.8333C10.2141 12.8333 12.8333 10.2142 12.8333 7.00001C12.8333 3.78584 10.2141 1.16667 6.99996 1.16667ZM9.78829 5.65834L6.48079 8.96584C6.39913 9.04751 6.28829 9.09417 6.17163 9.09417C6.05496 9.09417 5.94413 9.04751 5.86246 8.96584L4.21163 7.31501C4.04246 7.14584 4.04246 6.86584 4.21163 6.69667C4.38079 6.52751 4.66079 6.52751 4.82996 6.69667L6.17163 8.03834L9.16996 5.04001C9.33913 4.87084 9.61913 4.87084 9.78829 5.04001C9.95746 5.20917 9.95746 5.48334 9.78829 5.65834Z" fill="#38AC55"/>
</svg>
