<svg width="331" height="228" viewBox="0 0 331 228" fill="none" xmlns="http://www.w3.org/2000/svg">
<path d="M52.4762 218.44C63.0274 209.802 64.392 195.287 62.8978 182.464C62.6462 180.322 62.6995 178.042 61.5102 176.243C60.321 174.444 57.8052 173.354 55.9297 174.421C54.405 175.305 53.8256 177.219 53.048 178.827C52.0026 180.988 50.3698 182.811 48.3366 184.088C47.0101 184.911 45.3329 185.483 43.8997 184.85C41.9404 183.981 41.5135 181.442 41.3534 179.308C41.0484 175.328 40.7486 171.346 40.4538 167.362C40.4036 165.216 40.0072 163.092 39.2797 161.072C38.4411 159.105 36.8021 157.344 34.7056 156.948C32.6091 156.551 30.1314 157.923 29.8874 160.05C29.8776 160.942 29.9286 161.834 30.0399 162.719C30.0832 163.161 29.9967 163.607 29.7909 164.001C29.5851 164.395 29.269 164.72 28.8811 164.937C28.0425 165.257 27.1277 164.724 26.4263 164.175C24.0172 162.208 22.2714 159.555 20.6323 156.91C18.9933 154.264 17.3847 151.573 15.1662 149.362C12.9477 147.151 9.98975 145.55 6.8793 145.627C3.76886 145.703 0.620301 147.876 0.0866463 150.963C-0.447008 154.051 1.57325 156.948 3.70787 159.22C6.88714 162.576 10.5331 165.456 14.5334 167.773C15.3001 168.115 15.9382 168.692 16.3555 169.42C16.9425 170.807 15.6922 172.332 14.3123 172.919C12.7419 173.582 10.9732 173.56 9.30362 173.895C7.63404 174.23 5.86536 175.115 5.35458 176.739C4.6532 179.026 6.68871 181.13 8.62512 182.479C12.5275 185.181 16.8611 187.2 21.4404 188.449C23.0795 188.891 24.7948 189.257 26.1671 190.255C27.5393 191.254 28.4542 193.107 27.8214 194.677C27.1887 196.248 25.2218 196.888 23.5293 196.72C21.8369 196.552 20.274 195.782 18.6349 195.325C15.5855 194.464 11.7737 194.982 10.0507 197.673C9.54125 198.591 9.25444 199.615 9.21339 200.664C9.17234 201.713 9.3782 202.756 9.8144 203.711C10.7018 205.61 11.9618 207.31 13.5195 208.712C18.7086 213.923 25.1842 217.669 32.2889 219.568C39.3788 221.36 45.8208 221.474 52.4762 218.44Z" fill="#EBEBEB"/>
<path d="M53.3987 227.962C52.3029 222.048 50.6356 216.255 48.4205 210.664C45.6833 203.834 42.5497 197.17 39.0358 190.705L36.2837 185.613C35.3841 183.935 34.4921 182.274 33.5163 180.703C31.6462 177.693 29.6101 174.789 27.4174 172.004C25.3361 169.329 23.2549 166.859 21.3185 164.571C19.3821 162.284 17.5067 160.188 15.6999 158.343C12.8884 155.426 9.85249 152.734 6.62012 150.292C5.47657 149.423 4.56174 148.768 3.94422 148.356L3.23522 147.868C3.15426 147.813 3.07027 147.762 2.98364 147.716C2.98364 147.716 3.05988 147.784 3.21235 147.899L3.9061 148.409C4.51599 148.852 5.43083 149.507 6.54388 150.391C9.73931 152.866 12.7439 155.577 15.5321 158.503C17.3084 160.348 19.1686 162.452 21.1203 164.747C23.0719 167.042 25.1303 169.512 27.2192 172.187C29.4111 174.967 31.4472 177.866 33.3181 180.871C34.2863 182.434 35.1706 184.088 36.0702 185.765L38.7995 190.865C42.2842 197.321 45.4046 203.966 48.146 210.771C50.3638 216.342 52.0485 222.111 53.1776 228" fill="#E0E0E0"/>
<path d="M33.4554 180.664C33.527 180.359 33.5678 180.048 33.5774 179.734C33.6384 179.14 33.6994 178.263 33.7604 177.188C33.89 175.038 33.9662 172.065 34.0425 168.802C34.1187 165.539 34.2407 162.551 34.416 160.416C34.4923 159.341 34.5761 158.48 34.6371 157.877C34.6815 157.569 34.7019 157.258 34.6981 156.947C34.6039 157.245 34.54 157.552 34.5075 157.862C34.4084 158.457 34.294 159.326 34.1873 160.393C33.951 162.543 33.7909 165.516 33.7146 168.779C33.6384 172.042 33.585 174.977 33.5393 177.165C33.5012 178.194 33.4783 179.056 33.4554 179.712C33.4247 180.028 33.4247 180.348 33.4554 180.664Z" fill="#E0E0E0"/>
<path d="M5.2251 177.828H5.5148H6.34577C7.06239 177.828 8.09921 177.828 9.39523 177.867C11.9644 177.92 15.4941 178.118 19.4203 178.522C23.3465 178.926 26.8381 179.445 29.3691 179.894C30.6347 180.116 31.6562 180.314 32.3652 180.451L33.1733 180.611C33.3639 180.611 33.463 180.657 33.463 180.611C33.3773 180.566 33.2845 180.535 33.1886 180.52L32.3881 180.298C31.6944 180.123 30.6728 179.887 29.4073 179.643C26.8838 179.132 23.3617 178.576 19.4508 178.164C15.5399 177.752 11.9796 177.6 9.39523 177.607C8.10683 177.607 7.10814 177.607 6.34577 177.676L5.52242 177.729C5.41872 177.747 5.31837 177.78 5.2251 177.828Z" fill="#E0E0E0"/>
<path d="M48.0696 210.176C48.1295 210.061 48.1805 209.941 48.2221 209.818C48.3288 209.551 48.4508 209.208 48.6109 208.788C48.9463 207.889 49.3732 206.57 49.9374 204.977C51.0123 201.721 52.3617 197.178 53.7949 192.138C55.2282 187.099 56.5318 182.556 57.5534 179.285C58.0642 177.684 58.4758 176.373 58.7808 175.412C58.918 174.985 59.0247 174.65 59.1086 174.36C59.1554 174.24 59.1887 174.114 59.2077 173.987C59.1397 174.096 59.0859 174.214 59.0476 174.337C58.9485 174.612 58.8189 174.955 58.6588 175.374C58.3234 176.274 57.8964 177.585 57.3399 179.186C56.2574 182.441 54.908 186.985 53.4824 192.024C52.0567 197.063 50.7683 201.622 49.7163 204.878C49.2131 206.479 48.7938 207.79 48.4965 208.743C48.3593 209.177 48.2525 209.505 48.1611 209.802C48.1184 209.924 48.0878 210.049 48.0696 210.176Z" fill="#E0E0E0"/>
<path d="M10.1497 201.462C10.2677 201.518 10.3937 201.557 10.5232 201.576L11.6286 201.835L15.6997 202.765C19.1303 203.528 23.857 204.694 29.0791 205.975C34.3013 207.256 39.0356 208.369 42.4815 209.101C44.2044 209.467 45.5996 209.749 46.5678 209.924L47.6808 210.122C47.8111 210.152 47.9437 210.17 48.0772 210.176C47.9561 210.12 47.8278 210.082 47.6961 210.061L46.5906 209.802L42.5272 208.872C39.0966 208.11 34.3699 206.943 29.1554 205.662C23.9408 204.382 19.1989 203.269 15.753 202.537C14.0301 202.171 12.635 201.889 11.6668 201.713L10.5461 201.508C10.4154 201.481 10.2828 201.466 10.1497 201.462Z" fill="#E0E0E0"/>
<path d="M152.628 0.597504L97.5085 17.176L108.683 54.3285L163.802 37.75L152.628 0.597504Z" fill="white"/>
<path d="M163.812 37.7139C163.812 37.7139 163.728 37.4776 163.591 37.0354C163.453 36.5933 163.248 35.9224 162.981 35.0685C162.455 33.3456 161.677 30.8222 160.694 27.605C158.727 21.1478 155.914 11.8851 152.483 0.609723L152.681 0.716454L97.5776 17.3588L97.7149 17.1073L108.876 54.2649L108.647 54.1429L148.351 42.2881L159.718 38.9261L162.767 38.0341L163.53 37.8054L163.804 37.7368L163.56 37.8207L162.798 38.0646L159.809 38.9795L148.511 42.433L108.746 54.4859L108.571 54.5393L108.518 54.364C105.11 43.0429 101.313 30.4562 97.3261 17.214L97.2727 17.0234L97.4557 16.97L152.582 0.426752L152.735 0.381012L152.78 0.533488C156.158 11.8698 158.925 21.1783 160.861 27.666C161.807 30.8832 162.554 33.399 163.057 35.1295C163.309 35.9681 163.492 36.6161 163.629 37.0736C163.766 37.531 163.812 37.7139 163.812 37.7139Z" fill="#E0E0E0"/>
<path d="M152.636 0.587144C152.616 0.64528 152.59 0.701421 152.559 0.754859L152.3 1.22753C152.049 1.66207 151.706 2.26434 151.279 3.0267L147.429 9.63639L134.514 31.5391L134.423 31.6839L134.27 31.6229L132.586 30.9749L107.755 21.2853L100.246 18.3121L98.2182 17.4811L97.6922 17.26C97.6293 17.239 97.5701 17.2082 97.5168 17.1685C97.5831 17.1743 97.6478 17.1924 97.7074 17.2219L98.2411 17.4049L100.307 18.1672L107.854 21.0261L132.723 30.6014L134.415 31.257L134.171 31.3409C139.279 22.7643 143.869 15.0797 147.192 9.49155L151.149 2.95047C151.607 2.18811 151.972 1.61633 152.232 1.18179L152.529 0.731989C152.59 0.632882 152.628 0.579521 152.636 0.587144Z" fill="#E0E0E0"/>
<path d="M313.022 149.019C313.022 149.019 309.446 145.482 302.478 154.317C298.825 158.79 295.471 163.499 292.438 168.413C292.438 168.413 290.7 170.213 289.556 168.581C288.413 166.95 287.231 162.742 284.685 162.955C282.138 163.168 280.675 165.791 280.331 169.976C279.988 174.162 278.913 183.318 278.807 184.141C278.7 184.964 278.044 186.039 277.061 185.056C276.077 184.072 271.13 175.702 267.28 178.278C263.43 180.855 264.406 192.702 264.49 193.991C264.573 195.279 264.223 195.767 263.582 195.95C262.942 196.133 261.532 193.16 260.014 190.835C258.497 188.509 256.34 186.062 254.251 187.747C252.162 189.432 249.944 197.719 255.219 212.943L258.124 219.804L265.557 220.864C281.62 222.152 289.091 217.937 290.196 215.489C291.302 213.042 288.405 211.563 285.767 210.679C283.129 209.795 279.897 209.154 279.92 208.506C279.943 207.858 280.316 207.385 281.589 207.142C282.863 206.898 294.55 204.854 296.074 200.501C297.599 196.148 288.26 193.419 287.063 192.733C285.866 192.047 286.751 191.109 287.513 190.812C288.275 190.514 296.875 187.168 300.847 185.795C304.819 184.423 307.007 182.426 306.557 179.818C306.107 177.211 301.754 177.219 299.886 176.51C298.018 175.801 299.33 173.681 299.33 173.681C303.346 169.524 307.082 165.106 310.513 160.454C317.321 151.489 312.884 148.874 312.884 148.874" fill="#EBEBEB"/>
<path d="M306.74 156.887C306.705 156.954 306.665 157.018 306.618 157.077L306.229 157.626C305.863 158.114 305.352 158.808 304.704 159.692C303.37 161.484 301.426 164.061 299.002 167.232C294.161 173.575 287.391 182.281 279.874 191.856L260.647 216.412L254.845 223.876L253.26 225.896L252.84 226.414C252.741 226.529 252.696 226.59 252.688 226.582C252.722 226.515 252.763 226.451 252.81 226.391L253.199 225.85L254.724 223.777C256.05 221.985 258.002 219.408 260.418 216.237C265.259 209.894 272.037 201.188 279.561 191.612C287.086 182.037 293.848 173.361 298.78 167.057C301.212 163.923 303.195 161.385 304.582 159.601C305.253 158.739 305.787 158.076 306.16 157.573L306.587 157.055C306.679 156.94 306.732 156.879 306.74 156.887Z" fill="#E0E0E0"/>
<path d="M286.102 168.909C286.268 169.563 286.363 170.232 286.385 170.906C286.499 172.141 286.598 173.857 286.667 175.755C286.735 177.653 286.766 179.224 286.804 180.604C286.86 181.273 286.86 181.947 286.804 182.616C286.639 181.963 286.547 181.293 286.529 180.619C286.43 179.376 286.346 177.661 286.278 175.77C286.209 173.88 286.163 172.301 286.11 170.922C286.049 170.252 286.047 169.579 286.102 168.909Z" fill="#E0E0E0"/>
<path d="M287.444 182.883C290.053 182.462 292.681 182.174 295.32 182.022C299.673 181.663 303.218 181.458 303.225 181.564C300.616 181.981 297.988 182.266 295.35 182.418C290.997 182.784 287.46 182.99 287.444 182.883Z" fill="#E0E0E0"/>
<path d="M274.796 197.582C275.48 197.634 276.159 197.744 276.824 197.909C278.075 198.146 279.79 198.474 281.696 198.778C283.602 199.083 285.332 199.312 286.59 199.472C287.276 199.527 287.957 199.637 288.626 199.8C287.94 199.859 287.25 199.843 286.567 199.754C285.294 199.663 283.518 199.48 281.635 199.167C279.752 198.855 277.998 198.489 276.763 198.184C276.088 198.054 275.429 197.852 274.796 197.582Z" fill="#E0E0E0"/>
<path d="M270.802 185.216C271.118 185.769 271.374 186.354 271.564 186.962C271.968 188.067 272.51 189.592 273.089 191.284C273.668 192.977 274.156 194.517 274.499 195.645C274.714 196.241 274.873 196.857 274.972 197.482C274.651 196.929 274.395 196.341 274.21 195.729C273.798 194.631 273.264 193.106 272.685 191.414C272.106 189.722 271.618 188.174 271.275 187.053C271.051 186.46 270.892 185.844 270.802 185.216Z" fill="#E0E0E0"/>
<path d="M257.986 196.774C258.353 197.498 258.664 198.25 258.916 199.023C259.442 200.433 260.144 202.385 260.899 204.55C261.653 206.715 262.309 208.682 262.774 210.107C263.061 210.87 263.283 211.655 263.437 212.455C263.064 211.72 262.753 210.955 262.507 210.168C261.981 208.766 261.28 206.814 260.525 204.649C259.77 202.484 259.107 200.517 258.65 199.084C258.364 198.334 258.142 197.561 257.986 196.774Z" fill="#E0E0E0"/>
<path d="M263.415 212.043C264.283 212.093 265.147 212.205 265.999 212.379C267.585 212.63 269.811 212.973 272.212 213.294C274.614 213.614 276.847 213.858 278.441 214.056C279.309 214.113 280.172 214.228 281.025 214.399C280.156 214.452 279.284 214.431 278.418 214.338C276.809 214.231 274.606 214.033 272.159 213.705C269.712 213.378 267.524 212.996 265.946 212.684C265.086 212.54 264.239 212.325 263.415 212.043Z" fill="#E0E0E0"/>
<path d="M279.371 74.0118L277.564 133.136L320.77 134.456L322.576 75.3319L279.371 74.0118Z" fill="#F5F5F5"/>
<path d="M271.416 81.8718L269.61 140.996L312.816 142.316L314.622 83.1919L271.416 81.8718Z" fill="white"/>
<path d="M312.808 142.303C312.803 142.206 312.803 142.11 312.808 142.013C312.808 141.815 312.808 141.541 312.808 141.182C312.808 140.42 312.846 139.353 312.884 137.95C312.961 135.121 313.067 131.012 313.204 125.805C313.502 115.399 313.921 100.647 314.417 83.1816L314.592 83.3646L271.389 82.061L271.595 81.8704C270.901 103.979 270.268 124.403 269.75 140.992L269.59 140.824L300.969 141.868L309.698 142.173L311.985 142.265L312.785 142.303H312.023L309.736 142.25L301.045 142.028L269.567 141.152H269.407V140.992C269.902 124.395 270.512 103.948 271.175 81.8627V81.6645H271.381L314.577 83.0063H314.76V83.1892C314.188 100.724 313.708 115.498 313.365 125.927C313.189 131.111 313.044 135.213 312.953 138.026C312.9 139.414 312.861 140.481 312.831 141.22C312.831 141.571 312.831 141.845 312.793 142.036C312.755 142.227 312.808 142.303 312.808 142.303Z" fill="#E0E0E0"/>
<path d="M297.774 95.5471C297.774 95.6614 293.071 95.6004 287.277 95.4251C281.483 95.2498 276.779 95.0134 276.779 94.9067C276.779 94.8 281.49 94.8533 287.284 95.0287C293.078 95.204 297.774 95.4403 297.774 95.5471Z" fill="#E0E0E0"/>
<path d="M308.935 101.036C308.935 101.143 301.693 101.036 292.758 100.738C283.823 100.441 276.581 100.151 276.588 100.045C276.596 99.938 283.831 100.045 292.773 100.342C301.716 100.639 308.943 100.921 308.935 101.036Z" fill="#E0E0E0"/>
<path d="M308.775 106.396C308.775 106.502 301.525 106.396 292.59 106.098C283.655 105.801 276.42 105.511 276.42 105.404C276.42 105.298 283.67 105.404 292.605 105.702C301.54 105.999 308.775 106.281 308.775 106.396Z" fill="#E0E0E0"/>
<path d="M308.608 111.755C308.608 111.862 301.365 111.755 292.43 111.457C283.495 111.16 276.26 110.87 276.26 110.764C276.26 110.657 283.511 110.764 292.445 111.061C301.38 111.358 308.615 111.663 308.608 111.755Z" fill="#E0E0E0"/>
<path d="M308.447 117.115C308.447 117.221 301.197 117.115 292.27 116.817C283.343 116.52 276.093 116.23 276.093 116.123C276.093 116.017 283.343 116.123 292.278 116.421C301.213 116.718 308.447 117 308.447 117.115Z" fill="#E0E0E0"/>
<path d="M308.287 122.473C308.287 122.58 301.037 122.473 292.102 122.176C283.167 121.879 275.933 121.589 275.933 121.482C275.933 121.376 283.183 121.482 292.118 121.78C301.052 122.077 308.287 122.336 308.287 122.473Z" fill="#E0E0E0"/>
<path d="M308.12 127.833C308.12 127.94 300.869 127.833 291.942 127.536C283.015 127.238 275.765 126.949 275.772 126.842C275.78 126.735 283.015 126.842 291.95 127.139C300.885 127.437 308.127 127.719 308.12 127.833Z" fill="#E0E0E0"/>
<path d="M292.994 132.735C292.994 132.842 289.099 132.811 284.296 132.666C279.493 132.521 275.605 132.308 275.605 132.201C275.605 132.095 279.5 132.125 284.303 132.27C289.106 132.415 292.994 132.621 292.994 132.735Z" fill="#E0E0E0"/>
<path d="M184.833 27.7776L171.313 61.7329L213.782 78.6419L227.302 44.6866L184.833 27.7776Z" fill="white"/>
<path d="M227.294 44.6898L227.088 44.6136L226.493 44.3849L224.206 43.47L215.492 40.0013L184.8 27.8035L184.891 27.7653L171.382 61.7134L171.336 61.6066L213.8 78.5311H213.716C217.802 68.3002 221.195 59.8227 223.558 53.8992C224.748 50.9412 225.678 48.616 226.31 47.0379L227.073 45.2311L227.324 44.6059L227.088 45.2235C226.928 45.6351 226.692 46.2374 226.379 47.0226C225.754 48.6084 224.854 50.9336 223.665 53.8839C221.309 59.8151 217.932 68.3154 213.869 78.5692V78.6302H213.808L171.283 61.8049H171.207V61.7286C176.094 49.4698 180.706 37.8819 184.731 27.7806V27.712H184.792L215.561 40.0013L224.229 43.4776L226.516 44.3925L227.103 44.6288L227.294 44.6898Z" fill="#E0E0E0"/>
<path d="M185.414 30.536L173.598 60.2132L213.085 75.935L224.901 46.2578L185.414 30.536Z" fill="#EBEBEB"/>
<path d="M173.753 60.3029L194.893 47.3427L198.842 62.2851L207.091 58.4275L213.243 76.0228L173.753 60.3029Z" fill="#E0E0E0"/>
<path d="M207.96 49.9121C207.715 50.5273 207.294 51.056 206.748 51.4314C206.203 51.8068 205.558 52.012 204.896 52.021C204.234 52.03 203.584 51.8424 203.029 51.482C202.473 51.1215 202.037 50.6045 201.776 49.9961C201.514 49.3878 201.439 48.7156 201.56 48.0646C201.681 47.4136 201.992 46.813 202.454 46.3388C202.916 45.8646 203.508 45.5381 204.156 45.4007C204.804 45.2632 205.478 45.321 206.092 45.5667C206.501 45.7288 206.873 45.9699 207.188 46.2762C207.503 46.5825 207.755 46.948 207.928 47.3517C208.102 47.7554 208.194 48.1893 208.2 48.6287C208.205 49.0681 208.124 49.5042 207.96 49.9121Z" fill="#E0E0E0"/>
<path d="M75.5071 97.0717C75.7941 97.1901 76.1048 97.2397 76.4143 97.2166C76.7853 97.174 77.1301 97.0043 77.3902 96.7363C77.6918 96.3187 77.9595 95.8777 78.1907 95.4174L83.1384 86.7874L84.7851 83.9362L85.6618 82.4115C85.8144 82.1685 85.947 81.9136 86.0582 81.6491C86.1384 81.3857 86.1384 81.1044 86.0582 80.841C85.9897 80.5699 85.8377 80.3273 85.6237 80.1473C85.3794 79.9744 85.1248 79.8165 84.8613 79.6746L83.1613 78.7293L79.6239 76.7471L63.8735 67.9113C63.5627 67.7451 63.2015 67.6999 62.8594 67.7844C62.5173 67.8689 62.2186 68.077 62.0209 68.3687L60.8393 70.3966C60.0769 71.7384 59.3145 73.0725 58.5522 74.3762L54.1305 81.9312C53.9551 82.2285 53.7798 82.5258 53.6121 82.8232C53.4422 83.0807 53.3545 83.3838 53.3605 83.6922C53.3725 83.9934 53.4822 84.2824 53.673 84.5156C53.8896 84.74 54.1488 84.9188 54.4354 85.0416L57.7669 86.9323L63.7286 90.3172L72.3586 95.2497L74.699 96.6067L75.3013 96.965C75.4385 97.0489 75.5071 97.0946 75.4995 97.1022L75.286 97.0031L74.6609 96.6753L72.29 95.3793L63.5914 90.5611L57.6297 87.1839L54.2906 85.3161C53.967 85.1732 53.6744 84.9686 53.4291 84.7138C53.1909 84.4193 53.0545 84.0555 53.0403 83.677C53.0239 83.2998 53.1252 82.9269 53.33 82.6097C53.4977 82.3124 53.673 82.015 53.8484 81.7177L58.2167 74.178L60.5038 70.1984L61.7007 68.1477C61.9531 67.7736 62.3353 67.5065 62.7733 67.398C63.2113 67.2896 63.6739 67.3475 64.0717 67.5606L79.8069 76.4269L83.3442 78.4243L85.0291 79.3849C85.32 79.5328 85.6002 79.7009 85.8676 79.8881C86.1335 80.1149 86.3226 80.4185 86.4089 80.7572C86.5005 81.0812 86.5005 81.4242 86.4089 81.7482C86.2874 82.0368 86.1421 82.3148 85.9744 82.5792L85.0824 84.1039L83.4205 86.9475C81.2935 90.5459 79.5705 93.4658 78.366 95.5165C78.1159 95.9775 77.8304 96.4185 77.5121 96.8354C77.2284 97.1135 76.8561 97.2834 76.4601 97.3157C76.2205 97.3333 75.9802 97.2942 75.7587 97.2013C75.6693 97.1699 75.5846 97.1263 75.5071 97.0717Z" fill="#E0E0E0"/>
<path d="M71.482 81.443L73.4032 84.8507L69.4389 84.927L65.4746 84.9956L67.5177 81.5116L69.5609 78.0276L71.482 81.443Z" fill="#E0E0E0"/>
<path d="M330.022 226.78C330.022 226.894 257.102 226.986 167.182 226.986C77.2608 226.986 4.31787 226.91 4.31787 226.78C4.31787 226.65 77.2227 226.567 167.182 226.567C257.14 226.567 330.022 226.681 330.022 226.78Z" fill="#263238"/>
<path d="M84.9301 178.362L61.9143 155.24L73.487 133.985C85.0597 119.165 109.562 120.118 109.562 120.118C121.65 119.296 133.794 120.042 145.69 122.336C165.154 126.148 163.583 139.002 163.583 139.002L166.19 186.703L168.988 225.545L97.2117 226.994L84.9301 178.393" fill="url(#paint0_linear_407_25508)"/>
<path d="M123.597 224.722L59.3071 225.484C55.7654 225.525 52.2715 224.666 49.1533 222.986C46.0352 221.306 43.3952 218.861 41.4813 215.881C39.5674 212.901 38.4424 209.483 38.212 205.948C37.9816 202.414 38.6533 198.879 40.1641 195.676L67.6549 144.696L92.6986 161.621L75.614 197.048L127.653 197.978L123.597 224.722Z" fill="url(#paint1_linear_407_25508)"/>
<path d="M161.311 131.226L212.9 210.877L182.802 212.844C182.802 212.844 164.826 184.522 165.23 185.102C165.946 186.169 161.311 131.226 161.311 131.226Z" fill="url(#paint2_linear_407_25508)"/>
<path d="M91.4025 166.203C91.4043 166.063 91.4275 165.924 91.4711 165.791C91.5473 165.486 91.6312 165.105 91.7455 164.633C91.9819 163.634 92.3325 162.185 92.6909 160.386C93.0492 158.587 93.4532 156.422 93.7048 154.013C94.0144 151.402 94.0144 148.764 93.7048 146.153C93.2912 143.564 92.3882 141.078 91.0441 138.827C89.964 136.973 88.6859 135.243 87.2323 133.665C86.2526 132.587 85.2088 131.569 84.1066 130.616C83.6865 130.287 83.2844 129.936 82.9021 129.564C83.0262 129.626 83.1437 129.7 83.2528 129.785C83.4663 129.945 83.8093 130.166 84.2057 130.494C85.3522 131.399 86.4324 132.385 87.4382 133.444C88.9408 135.01 90.2606 136.742 91.372 138.606C92.7632 140.891 93.6955 143.426 94.1165 146.069C94.4183 148.712 94.3979 151.382 94.0555 154.021C93.798 156.167 93.4316 158.3 92.9577 160.409C92.5612 162.216 92.1953 163.657 91.8827 164.648C91.7455 165.143 91.6235 165.525 91.5397 165.784C91.5076 165.928 91.4616 166.068 91.4025 166.203Z" fill="#263238"/>
<path d="M89.3289 168.947C89.2188 169.344 89.0707 169.73 88.8867 170.098C88.5817 170.861 88.1243 171.882 87.5373 173.148C86.3709 175.732 84.7166 179.285 82.8107 183.173C80.9047 187.061 79.1056 190.545 77.7714 193.084C77.1006 194.334 76.5516 195.371 76.1628 196.034C75.9772 196.403 75.7631 196.758 75.5225 197.094C75.6594 196.705 75.8277 196.327 76.0256 195.965C76.4144 195.203 76.9176 194.182 77.5504 192.954L82.4828 183.043C84.3506 179.178 86.0507 175.687 87.3162 173.072C87.9109 171.844 88.3988 170.823 88.78 170.022C88.9325 169.649 89.1161 169.29 89.3289 168.947Z" fill="#263238"/>
<path d="M123.597 224.722C123.597 224.722 123.597 224.676 123.597 224.592C123.597 224.508 123.597 224.356 123.597 224.196C123.635 223.83 123.689 223.319 123.75 222.671C123.902 221.314 124.116 219.385 124.382 216.953C124.947 212.021 125.755 205.083 126.669 196.903L126.852 197.101H107.862L74.6916 197.048L64.6284 196.987L61.8915 196.949H61.1749H60.9309C61.0119 196.939 61.0938 196.939 61.1749 196.949H61.8915L64.6284 196.911L74.6916 196.85L107.915 196.796H126.906H127.112V196.995C126.105 205.167 125.259 212.105 124.649 217.03C124.344 219.454 124.093 221.383 123.887 222.74C123.806 223.38 123.737 223.888 123.681 224.264L123.62 224.653C123.612 224.676 123.605 224.722 123.597 224.722Z" fill="#263238"/>
<path d="M76.0637 197.612C75.6032 197.103 75.1754 196.566 74.7829 196.003C72.7283 193.424 70.1841 191.276 67.2965 189.683C66.6798 189.385 66.0792 189.054 65.4973 188.692C66.174 188.851 66.8239 189.108 67.4261 189.455C70.4335 190.94 73.0343 193.136 75.004 195.851C75.4368 196.386 75.7934 196.979 76.0637 197.612Z" fill="#263238"/>
<path d="M167.258 202.659C167.202 202.442 167.166 202.22 167.151 201.996C167.097 201.531 167.029 200.898 166.937 200.097C166.762 198.451 166.526 196.065 166.274 193.114C165.748 187.206 165.146 179.033 164.612 170.007C164.078 160.981 163.705 152.793 163.491 146.869C163.385 143.904 163.309 141.533 163.278 139.848C163.278 139.047 163.278 138.415 163.24 137.942C163.228 137.721 163.228 137.5 163.24 137.279C163.282 137.497 163.305 137.719 163.309 137.942C163.309 138.407 163.369 139.047 163.415 139.848C163.499 141.54 163.613 143.927 163.758 146.854C164.04 152.778 164.46 160.95 164.993 169.984C165.527 179.018 166.091 187.175 166.518 193.091C166.747 196.011 166.93 198.428 167.059 200.09C167.12 200.852 167.166 201.523 167.204 201.988C167.242 202.21 167.26 202.434 167.258 202.659Z" fill="#263238"/>
<path d="M109.867 159.318C109.87 158.969 109.898 158.62 109.951 158.274C110.042 157.55 110.157 156.582 110.302 155.392C110.637 152.876 111.064 149.431 111.628 145.436L111.918 145.619L106.985 149.072L101.969 152.564L101.611 152.815L101.672 152.381C102.281 148.424 102.8 145.009 103.196 142.47C103.395 141.304 103.547 140.343 103.669 139.627C103.71 139.283 103.781 138.944 103.882 138.613C103.883 138.96 103.852 139.307 103.791 139.649C103.699 140.366 103.585 141.327 103.433 142.508C103.09 145.009 102.609 148.432 102.06 152.419L101.771 152.236L106.779 148.729L111.72 145.291L112.078 145.039L112.017 145.474C111.43 149.453 110.919 152.899 110.553 155.385C110.363 156.566 110.21 157.534 110.096 158.251C110.052 158.613 109.975 158.97 109.867 159.318Z" fill="#E0E0E0"/>
<path d="M138.562 162.406C138.288 162.187 138.032 161.945 137.8 161.682C137.304 161.148 136.634 160.439 135.81 159.57L129.002 152.19L129.33 152.076C129.17 153.944 129.002 155.972 128.827 158.076C128.652 160.18 128.469 162.269 128.309 164.175L128.27 164.617L127.981 164.289L121.356 156.818L119.465 154.638C119.225 154.388 119.01 154.115 118.825 153.822C119.099 154.055 119.354 154.31 119.587 154.584L121.554 156.688L128.278 164.06L127.95 164.175C128.11 162.276 128.278 160.218 128.461 158.076C128.644 155.934 128.812 153.944 128.972 152.076L129.01 151.642L129.3 151.962L136.008 159.441L137.922 161.628C138.155 161.871 138.369 162.131 138.562 162.406Z" fill="#E0E0E0"/>
<path d="M153.001 161.385C152.859 161.706 152.686 162.012 152.483 162.299L150.958 164.754L145.515 173.201L145.332 172.911L151.248 171.89L157.271 170.876L157.705 170.8L157.499 171.128L151.934 179.407L150.257 181.801C150.071 182.094 149.862 182.371 149.632 182.632C149.782 182.319 149.956 182.019 150.15 181.732L151.675 179.292L157.126 170.906L157.316 171.196L151.294 172.241L145.355 173.247L144.92 173.316L145.164 172.957L150.722 164.571L152.353 162.17C152.554 161.895 152.77 161.633 153.001 161.385Z" fill="#E0E0E0"/>
<path d="M133.797 176.159C133.654 176.477 133.481 176.781 133.279 177.066L131.754 179.529L126.319 187.968L126.128 187.678L132.059 186.657L138.09 185.635L138.524 185.567L138.273 185.925L132.707 194.212L131.068 196.59C130.886 196.884 130.677 197.16 130.443 197.414C130.596 197.103 130.769 196.802 130.962 196.514C131.358 195.904 131.876 195.089 132.486 194.082L137.937 185.696L138.128 185.986L132.105 187.03L126.166 188.029L125.732 188.105L125.976 187.739L131.533 179.353C132.204 178.362 132.753 177.554 133.172 176.952C133.361 176.673 133.57 176.408 133.797 176.159Z" fill="#E0E0E0"/>
<path d="M175.293 161.217C175.142 161.531 174.969 161.834 174.775 162.124L173.25 164.587L167.814 173.026L167.624 172.736L173.555 171.715L179.585 170.693L180.02 170.625L179.776 170.983L174.203 179.27C173.532 180.246 172.983 181.046 172.564 181.641C172.383 181.938 172.174 182.216 171.939 182.472C172.092 182.16 172.268 181.859 172.465 181.572L173.989 179.14L179.44 170.754L179.631 171.044L173.608 172.081L167.669 173.087L167.242 173.163L167.479 172.797L173.036 164.411L174.675 162.01C174.855 161.726 175.062 161.461 175.293 161.217Z" fill="#E0E0E0"/>
<path d="M199.231 199.594C198.959 199.387 198.704 199.157 198.469 198.908L196.38 196.895L189.206 189.866L189.526 189.737C189.465 191.612 189.404 193.64 189.336 195.752C189.267 197.864 189.183 199.96 189.115 201.851V202.293L188.802 201.98L181.819 194.852L179.821 192.771C179.573 192.535 179.344 192.28 179.135 192.009C179.407 192.217 179.662 192.447 179.898 192.695L181.971 194.7L189.061 201.729L188.733 201.858C188.794 199.952 188.863 197.894 188.932 195.759C189 193.625 189.084 191.62 189.153 189.744V189.31L189.458 189.615L196.525 196.751L198.545 198.839C198.794 199.071 199.024 199.324 199.231 199.594Z" fill="#E0E0E0"/>
<path d="M78.1299 148.973C77.9807 149.289 77.8074 149.592 77.6115 149.881L76.0868 152.343L70.6511 160.79L70.4605 160.5L76.3917 159.471L82.422 158.457L82.8566 158.381L82.6126 158.747L77.0397 167.026L75.4083 169.405C75.2231 169.696 75.014 169.971 74.7831 170.228C74.9292 169.916 75.1027 169.617 75.3015 169.336L76.8263 166.896C78.2061 164.785 80.0968 161.888 82.2772 158.51L82.4677 158.8L76.4451 159.845L70.5063 160.851L70.0793 160.92L70.3157 160.561C72.5494 157.207 74.4706 154.31 75.8733 152.175L77.5124 149.774C77.6968 149.491 77.9033 149.223 78.1299 148.973Z" fill="#E0E0E0"/>
<path d="M47.9858 205.983C48.2427 206.215 48.4775 206.47 48.6872 206.745L50.5474 208.979L56.8674 216.778L56.5319 216.869C56.8064 215.017 57.0961 213.004 57.4087 210.908C57.7212 208.811 58.0262 206.745 58.3082 204.862L58.3692 204.428L58.6437 204.778L64.7883 212.646L66.5341 214.933C66.756 215.198 66.9549 215.481 67.1288 215.779C66.8784 215.543 66.6465 215.288 66.435 215.017L64.6054 212.791L58.3921 205.007L58.7275 204.923C58.4531 206.806 58.1558 208.849 57.8432 210.969C57.5306 213.088 57.2333 215.07 56.9512 216.923L56.8902 217.357L56.6158 217.014L50.3949 209.131L48.6186 206.844C48.3886 206.572 48.1772 206.284 47.9858 205.983Z" fill="#E0E0E0"/>
<path d="M116.827 169.069C116.486 169.143 116.139 169.189 115.791 169.207L112.894 169.458L102.876 170.221L102.998 169.9L107.389 174.017L111.834 178.21L112.154 178.515H111.712L101.748 179.064L98.8662 179.186C98.5212 179.216 98.1743 179.216 97.8293 179.186C98.1688 179.118 98.5128 179.075 98.8585 179.056L101.733 178.828L111.689 178.142L111.575 178.462L107.115 174.284L102.739 170.152L102.419 169.847H102.853L112.878 169.245L115.775 169.1C116.125 169.063 116.476 169.053 116.827 169.069Z" fill="#E0E0E0"/>
<path d="M99.9336 207.492C100.188 207.731 100.427 207.986 100.65 208.255L102.548 210.45L109.036 218.12L108.701 218.211C108.937 216.351 109.196 214.338 109.463 212.242C109.73 210.145 110.004 208.064 110.225 206.181L110.286 205.739L110.561 206.082L116.873 213.82L118.665 216.107C118.887 216.372 119.091 216.652 119.275 216.946C119.018 216.712 118.78 216.457 118.566 216.183L116.69 213.995L110.286 206.372L110.614 206.272C110.378 208.163 110.119 210.206 109.852 212.333C109.585 214.46 109.318 216.45 109.09 218.31L109.029 218.745L108.754 218.409L102.373 210.648L100.559 208.361C100.322 208.093 100.113 207.802 99.9336 207.492Z" fill="#E0E0E0"/>
<path d="M69.7364 179.315C69.3953 179.39 69.0484 179.436 68.6996 179.452L65.8102 179.696L55.7928 180.459L55.9071 180.131L60.306 184.255L64.7505 188.448L65.0707 188.753H64.6286L54.6645 189.302L51.7827 189.424C51.4454 189.453 51.1062 189.453 50.7688 189.424C51.1075 189.351 51.4518 189.308 51.798 189.295L54.6721 189.066L64.6286 188.372L64.5142 188.7L60.0544 184.522L55.6708 180.39L55.3582 180.085H55.7928L65.8178 179.475L68.7148 179.338C69.0543 179.305 69.3958 179.297 69.7364 179.315Z" fill="#E0E0E0"/>
<path d="M95.6795 206.631C95.3382 206.704 94.9913 206.747 94.6427 206.761L91.7457 207.012L81.7282 207.775L81.8502 207.447L86.2414 211.571L90.686 215.764L91.0062 216.069H90.5717L80.5999 216.611L77.7182 216.74C77.3733 216.77 77.0264 216.77 76.6814 216.74C77.0201 216.667 77.3644 216.624 77.7106 216.611L80.5847 216.382L90.5412 215.688L90.4268 216.016L85.967 211.838L81.591 207.721L81.2708 207.424H81.7054L91.7304 206.814L94.635 206.677C94.9811 206.63 95.3307 206.615 95.6795 206.631Z" fill="#E0E0E0"/>
<path d="M154.236 137.134C153.895 137.207 153.548 137.253 153.2 137.271L150.303 137.515L140.293 138.277L140.407 137.957L144.798 142.074L149.243 146.267L149.563 146.572H149.129L139.157 147.121L136.275 147.243C135.93 147.273 135.583 147.273 135.238 147.243C135.577 147.17 135.921 147.126 136.267 147.113L139.142 146.884L149.106 146.198L148.984 146.519L144.539 142.348L140.163 138.216L139.843 137.911H140.278L150.303 137.302L153.207 137.164C153.549 137.128 153.893 137.118 154.236 137.134Z" fill="#E0E0E0"/>
<path d="M125.755 206.631C125.755 206.631 138.578 202.934 142.824 201.851C144.478 201.432 151.561 205.168 156.455 208.278C156.455 208.278 163.194 212.273 162.653 213.5C162.051 214.857 159.604 214.583 155.601 212.738C155.601 212.738 156.989 216.755 154.267 216.664C154.267 216.664 155.617 221.009 153.07 221.459C150.524 221.909 149.929 216.367 147.688 216.069C145.447 215.772 140.827 215.467 140.827 215.467C140.827 215.467 136.961 221.871 133.965 222.328C130.969 222.786 124.055 221.97 124.055 221.97L125.755 206.631Z" fill="#FFBE9D"/>
<path d="M147.642 207.515C148.897 208.074 150.097 208.75 151.225 209.535C152.422 210.212 153.551 211.004 154.595 211.899C152.139 210.669 149.811 209.2 147.642 207.515Z" fill="#EB996E"/>
<path d="M146.887 210.008C148.352 210.469 149.775 211.053 151.141 211.754C152.553 212.328 153.915 213.019 155.212 213.82C153.747 213.364 152.324 212.782 150.958 212.082C149.543 211.511 148.181 210.817 146.887 210.008Z" fill="#EB996E"/>
<path d="M148.26 215.962C150.196 215.955 152.125 216.212 153.993 216.725C152.056 216.73 150.128 216.474 148.26 215.962Z" fill="#EB996E"/>
<path d="M109.066 74.3074C109.217 74.8015 109.22 75.329 109.073 75.8242C108.926 76.3195 108.636 76.7605 108.24 77.0922C107.844 77.424 107.359 77.6318 106.846 77.6897C106.333 77.7476 105.814 77.6531 105.354 77.4179C103.616 76.5412 103.394 74.1397 103.738 72.2262C104.081 70.3127 104.729 68.2619 103.928 66.4856C103.311 65.1286 101.976 64.2671 100.94 63.1998C100.025 62.2721 99.3373 61.145 98.9312 59.9069C98.5251 58.6688 98.4115 57.3535 98.5992 56.0641C98.819 54.7786 99.3894 53.5787 100.248 52.5967C101.106 51.6147 102.219 50.8887 103.463 50.4988C106.017 49.7898 109.166 50.5751 111.087 48.7225C112.467 47.3808 112.55 45.1928 113.618 43.5918C115.272 41.1065 118.771 40.7101 121.729 41.1142C124.687 41.5182 127.691 42.4711 130.588 41.7469C133.005 41.1446 134.987 39.4598 137.259 38.423C139.735 37.2912 142.503 36.9615 145.175 37.48C147.848 37.9985 150.292 39.3394 152.165 41.315C154.038 43.2906 155.247 45.8022 155.622 48.4987C155.998 51.1951 155.521 53.9415 154.259 56.3538C153.418 58.1191 151.986 59.5349 150.211 60.3562" fill="#263238"/>
<path d="M123.78 137.287C125.724 137.283 127.648 136.893 129.44 136.14C131.233 135.387 132.858 134.286 134.222 132.9C135.585 131.515 136.66 129.872 137.384 128.068C138.109 126.264 138.468 124.334 138.44 122.39L138.25 108.378C138.25 108.378 150.021 107.196 150.798 95.5319C151.576 83.8678 151.019 56.9487 151.019 56.9487C144.543 53.7356 137.326 52.3081 130.114 52.8133C122.901 53.3185 115.954 55.7382 109.989 59.8228L108.19 61.0655L109.066 122.771C109.113 126.641 110.684 130.336 113.439 133.054C116.194 135.772 119.91 137.293 123.78 137.287Z" fill="#FFBE9D"/>
<path d="M147.939 78.1191C147.514 78.0701 147.121 77.8663 146.836 77.5465C146.551 77.2267 146.393 76.8132 146.393 76.3847C146.393 75.9562 146.551 75.5427 146.836 75.2229C147.121 74.9031 147.514 74.6993 147.939 74.6503C148.032 74.6274 148.129 74.6274 148.221 74.6503C148.647 74.6993 149.04 74.9031 149.325 75.2229C149.61 75.5427 149.768 75.9562 149.768 76.3847C149.768 76.8132 149.61 77.2267 149.325 77.5465C149.04 77.8663 148.647 78.0701 148.221 78.1191C148.128 78.1343 148.033 78.1343 147.939 78.1191Z" fill="#263238"/>
<path d="M150.226 74.3531C150.036 74.5513 148.938 73.5907 147.329 73.5069C145.721 73.423 144.509 74.1778 144.349 73.9643C144.189 73.7508 144.463 73.5145 144.997 73.1562C145.71 72.6986 146.551 72.482 147.396 72.5383C148.242 72.5946 149.047 72.9207 149.693 73.4688C150.173 73.8957 150.326 74.3074 150.226 74.3531Z" fill="#263238"/>
<path d="M131.632 74.7496C131.909 74.9411 132.123 75.2104 132.246 75.5233C132.37 75.8362 132.397 76.1787 132.326 76.5075C132.255 76.8363 132.088 77.1365 131.846 77.3702C131.604 77.6039 131.298 77.7606 130.967 77.8204C130.636 77.8802 130.294 77.8404 129.986 77.7062C129.678 77.5719 129.416 77.3491 129.234 77.066C129.052 76.783 128.959 76.4524 128.965 76.116C128.971 75.7797 129.077 75.4527 129.269 75.1766C129.526 74.807 129.919 74.5544 130.362 74.4744C130.806 74.3944 131.262 74.4934 131.632 74.7496Z" fill="#263238"/>
<path d="M132.692 74.8183C132.494 75.0165 131.396 74.0559 129.795 73.9721C128.194 73.8882 126.974 74.643 126.807 74.4295C126.723 74.3304 126.929 73.9797 127.455 73.6214C128.168 73.1638 129.009 72.9472 129.854 73.0035C130.7 73.0598 131.505 73.3859 132.151 73.9339C132.631 74.3609 132.784 74.7344 132.692 74.8183Z" fill="#263238"/>
<path d="M138.44 88.4339C138.44 88.312 139.439 88.1595 141.07 88.0223C141.49 88.0223 141.833 87.9232 141.871 87.7021C141.902 87.2817 141.82 86.8608 141.635 86.4823C141.276 85.3921 140.918 84.2943 140.537 83.1431C139.012 78.3936 138.013 74.4827 138.25 74.4064C138.486 74.3302 139.904 78.1192 141.406 82.8687C141.757 84.0275 142.1 85.1558 142.427 86.2231C142.669 86.7781 142.718 87.3983 142.565 87.9841C142.497 88.1423 142.392 88.2821 142.259 88.3921C142.127 88.5021 141.97 88.5791 141.802 88.6169C141.565 88.6699 141.321 88.6879 141.078 88.6703C139.431 88.6398 138.44 88.5635 138.44 88.4339Z" fill="#263238"/>
<path d="M133.104 89.9285C135.554 91.1864 138.166 92.1021 140.865 92.6502C140.273 93.4631 139.423 94.0517 138.454 94.3203C137.485 94.5888 136.454 94.5215 135.528 94.1291C132.09 92.6578 133.104 89.9285 133.104 89.9285Z" fill="white"/>
<path d="M138.295 108.21C132.899 108.018 127.681 106.224 123.307 103.056C123.307 103.056 126.448 111.648 138.151 111.237L138.295 108.21Z" fill="#EB996E"/>
<path d="M151.118 59.8988C151.118 59.8988 144.067 63.4819 134.728 59.045C128.629 56.1327 121.485 54.7833 119.945 56.0412C118.405 57.2991 118.2 63.5505 112.223 65.4946C112.223 65.4946 112.871 77.4332 108.098 77.0977C103.326 76.7623 105.948 58.214 105.948 58.214L117.483 52.2981L130.146 49.6526L142.153 51.1088L151.469 53.4645L151.118 59.8988Z" fill="#263238"/>
<path d="M108.967 73.2631C108.777 73.164 101.077 70.45 100.902 78.4472C100.726 86.4443 108.784 84.973 108.8 84.7443C108.815 84.5156 108.967 73.2631 108.967 73.2631Z" fill="#FFBE9D"/>
<path d="M106.421 81.6565C106.421 81.6565 106.276 81.7556 106.04 81.8547C105.705 81.9907 105.33 81.9907 104.996 81.8547C104.157 81.5269 103.471 80.1699 103.471 78.729C103.47 78.0421 103.618 77.3632 103.905 76.7392C103.987 76.4916 104.128 76.2674 104.315 76.0856C104.502 75.9038 104.73 75.7697 104.98 75.6948C105.142 75.6654 105.308 75.6889 105.455 75.7617C105.602 75.8345 105.722 75.9527 105.796 76.0988C105.895 76.3199 105.842 76.48 105.88 76.4953C105.918 76.5105 106.055 76.3657 106.002 76.0379C105.96 75.8384 105.853 75.6586 105.697 75.5271C105.481 75.3574 105.208 75.2781 104.935 75.306C104.604 75.3629 104.295 75.5036 104.034 75.7144C103.774 75.9253 103.572 76.1994 103.448 76.5105C103.096 77.1969 102.913 77.9575 102.914 78.729C102.914 80.3376 103.722 81.8699 104.866 82.2282C105.08 82.2935 105.305 82.311 105.527 82.2793C105.748 82.2477 105.96 82.1678 106.147 82.0453C106.421 81.8547 106.421 81.6717 106.421 81.6565Z" fill="#EB996E"/>
<path d="M104.896 48.2346C105.808 47.967 106.783 48.0021 107.673 48.3347C108.564 48.6673 109.323 49.2795 109.836 50.0795C109.126 49.5412 108.359 49.0811 107.549 48.7073C106.684 48.4579 105.795 48.2995 104.896 48.2346Z" fill="#263238"/>
<path d="M109.707 43.447C109.852 43.447 109.631 45.1318 109.905 47.1292C110.142 48.3301 110.518 49.4993 111.026 50.6132C111.026 50.6132 110.69 50.3312 110.355 49.7365C109.924 48.9451 109.64 48.0825 109.516 47.1902C109.294 45.9442 109.359 44.664 109.707 43.447Z" fill="#263238"/>
<path d="M142.557 70.4957C142.511 70.4042 142.854 70.1221 143.502 69.8629C145.223 69.1977 147.132 69.2168 148.839 69.9163C149.479 70.1907 149.822 70.4728 149.777 70.5643C149.678 70.7778 148.138 70.1755 146.163 70.1755C144.188 70.1755 142.649 70.732 142.557 70.4957Z" fill="#263238"/>
<path d="M124.718 68.8336C124.672 68.7421 125.015 68.4677 125.663 68.2009C126.516 67.8711 127.425 67.7081 128.339 67.7206C129.258 67.7204 130.167 67.9017 131.015 68.2542C131.655 68.5287 131.991 68.8108 131.953 68.9099C131.915 69.009 130.314 68.5211 128.332 68.5134C126.349 68.5058 124.825 69.0471 124.718 68.8336Z" fill="#263238"/>
<path d="M141.177 71.7764C141.194 71.9334 141.194 72.0919 141.177 72.249C141.177 72.5845 141.177 73.0114 141.215 73.5374C141.253 74.0635 141.215 74.7725 141.261 75.5348C141.232 76.4147 141.361 77.2925 141.642 78.1268C142.01 79.2091 142.646 80.1804 143.492 80.9498C144.337 81.7191 145.364 82.2613 146.476 82.5257C147.114 82.6816 147.772 82.7382 148.427 82.6934C149.109 82.6628 149.781 82.5211 150.417 82.2741C151.773 81.766 152.929 80.8326 153.71 79.6135C154.451 78.4492 154.823 77.089 154.778 75.7102C154.778 74.3455 154.778 73.0343 154.778 71.7764L154.961 71.9593L145.05 71.8678L142.176 71.8145H141.414H141.131C141.458 71.7782 141.786 71.7629 142.115 71.7687L144.943 71.7154L154.961 71.6239H155.212V71.8145C155.212 73.0724 155.212 74.3836 155.212 75.7483C155.263 77.2023 154.873 78.6376 154.092 79.865C153.263 81.1558 152.038 82.1429 150.6 82.6782C149.925 82.9376 149.211 83.0844 148.488 83.1127C147.799 83.1537 147.107 83.0894 146.438 82.9221C145.271 82.6403 144.197 82.063 143.319 81.2459C142.44 80.4287 141.787 79.3992 141.421 78.2564C141.147 77.3845 141.034 76.4701 141.086 75.5577C141.086 74.7953 141.086 74.0863 141.124 73.5069C141.162 72.9275 141.124 72.5692 141.162 72.2338C141.155 72.0811 141.16 71.9282 141.177 71.7764Z" fill="#263238"/>
<path d="M122.492 71.3799C122.492 71.3799 122.492 71.5553 122.492 71.8526V73.141C122.492 73.7051 122.492 74.376 122.53 75.146C122.51 76.0253 122.639 76.9017 122.911 77.738C123.262 78.7419 123.839 79.652 124.596 80.3987C125.47 81.2486 126.558 81.8465 127.744 82.1293C129.056 82.4453 130.433 82.3576 131.694 81.8777C133.046 81.3701 134.198 80.4397 134.979 79.2247C135.722 78.0613 136.097 76.701 136.054 75.3214C136.054 73.9567 136.054 72.6378 136.054 71.3799L136.237 71.5629L126.326 71.4714L123.46 71.4257H122.698H122.416C122.74 71.3896 123.065 71.3743 123.391 71.3799L126.22 71.3342L136.237 71.2427H136.42V71.4257C136.42 72.6836 136.42 74.0025 136.42 75.3671C136.466 76.8215 136.073 78.2561 135.292 79.4839C134.463 80.7701 133.241 81.7542 131.808 82.2894C131.132 82.5481 130.419 82.6949 129.696 82.7239C129.004 82.7647 128.31 82.7004 127.638 82.5333C126.392 82.2265 125.253 81.5861 124.344 80.6808C123.558 79.8907 122.968 78.9272 122.621 77.8676C122.348 76.9957 122.234 76.0813 122.286 75.1689C122.286 74.4065 122.286 73.6975 122.332 73.1181C122.377 72.5387 122.332 72.1804 122.332 71.845C122.36 71.6823 122.414 71.5253 122.492 71.3799Z" fill="#263238"/>
<path d="M141.345 72.3332C139.602 72.5977 137.828 72.5977 136.085 72.3332C137.827 72.0588 139.602 72.0588 141.345 72.3332Z" fill="#263238"/>
<path d="M107.946 72.4317C110.37 72.2296 112.803 72.1558 115.234 72.2106C117.668 72.1416 120.103 72.2002 122.53 72.386C120.107 72.5975 117.673 72.6713 115.242 72.6071C112.809 72.6848 110.373 72.6263 107.946 72.4317Z" fill="#263238"/>
<path d="M186.37 216.297C188.083 219.477 190.678 222.094 193.842 223.835C197.007 225.575 200.607 226.365 204.209 226.109C208.466 225.811 212.493 224.071 215.627 221.175C218.761 218.28 220.813 214.403 221.446 210.183L225.868 159.57L208.158 155.194L200.924 194.837C200.924 194.837 197.142 211.449 186.37 216.297Z" fill="#FFBE9D"/>
<path d="M207.998 158.861L208.585 149.98C208.585 149.98 211.093 130.051 211.093 128.1C211.093 125.858 212.168 125.309 212.999 125.37C214.288 125.454 215.203 127.048 215.286 128.976C215.286 129.64 215.226 140.176 215.226 140.176C215.835 139.18 216.515 138.23 217.261 137.332C218.786 135.357 222.476 134.229 226.234 134.351C229.992 134.473 231.022 134.839 231.045 136.295C231.031 136.573 230.956 136.845 230.824 137.09C230.692 137.336 230.507 137.549 230.282 137.713C229.589 138.291 228.707 138.595 227.805 138.567C221.789 138.46 220.181 141.67 220.181 141.67L220.105 142.836C220.105 142.836 223.756 140.221 226.669 141.311C227.099 141.471 227.493 141.714 227.827 142.028C228.647 142.031 229.452 142.249 230.162 142.659C230.872 143.07 231.463 143.658 231.875 144.367C232.287 145.076 232.507 145.88 232.512 146.7C232.518 147.52 232.309 148.327 231.906 149.042C231.749 149.408 231.484 149.718 231.146 149.929C230.808 150.14 230.413 150.243 230.015 150.223C229.612 150.102 229.247 149.879 228.956 149.575C228.785 149.431 228.604 149.298 228.414 149.179L227.744 152.404C227.744 152.404 225.845 159.57 225.373 162.787" fill="#FFBE9D"/>
<path d="M209.729 158.167C210.827 158.472 211.963 157.664 212.557 156.688C213.152 155.713 213.404 154.561 213.922 153.54C215.492 150.49 219.258 149.042 220.699 145.916C220.898 145.482 221.004 144.887 220.623 144.597C220.242 144.308 219.769 144.544 219.38 144.757L209.47 150.246" fill="#FFBE9D"/>
<path d="M209.462 150.231C209.771 149.957 210.111 149.722 210.476 149.53C211.147 149.111 212.13 148.531 213.35 147.822L217.658 145.36L218.9 144.658C219.363 144.292 219.953 144.125 220.539 144.193C220.72 144.252 220.879 144.364 220.995 144.515C221.111 144.667 221.178 144.849 221.187 145.039C221.207 145.353 221.152 145.666 221.027 145.954C220.798 146.463 220.512 146.944 220.173 147.388C218.801 149.171 217.025 150.292 215.744 151.596C215.121 152.186 214.592 152.867 214.174 153.616C213.8 154.317 213.564 155.049 213.274 155.713C213.096 156.266 212.799 156.774 212.404 157.201C212.009 157.627 211.525 157.963 210.987 158.183C210.171 158.427 209.714 158.183 209.744 158.137C210.139 158.149 210.533 158.084 210.903 157.946C211.38 157.703 211.801 157.363 212.139 156.948C212.478 156.534 212.727 156.053 212.87 155.537C213.114 154.799 213.396 154.074 213.716 153.365C214.137 152.553 214.685 151.814 215.34 151.177C216.651 149.804 218.389 148.653 219.67 146.999C219.972 146.599 220.228 146.167 220.433 145.71C220.623 145.276 220.593 144.841 220.349 144.796C220.105 144.75 219.624 144.956 219.205 145.192L217.94 145.878L213.571 148.257C212.321 148.92 211.284 149.438 210.598 149.781C210.243 149.984 209.86 150.136 209.462 150.231Z" fill="#EB996E"/>
<path d="M219.968 142.92C220.035 142.199 220.273 141.504 220.661 140.892C221.113 140.265 221.754 139.8 222.491 139.566C223.414 139.262 224.379 139.108 225.35 139.108C226.347 139.118 227.343 139.031 228.323 138.849C229.144 138.681 229.907 138.3 230.534 137.744C230.742 137.551 230.904 137.314 231.007 137.05C231.11 136.786 231.152 136.501 231.129 136.219C231.118 136.011 231.049 135.81 230.93 135.639C230.892 135.639 230.93 135.861 230.968 136.226C230.965 136.482 230.906 136.734 230.795 136.964C230.685 137.194 230.525 137.398 230.328 137.561C229.719 138.04 229.002 138.365 228.239 138.506C227.279 138.664 226.307 138.735 225.335 138.719C224.327 138.708 223.325 138.866 222.369 139.184C221.57 139.463 220.886 139.999 220.425 140.709C220.126 141.187 219.953 141.732 219.922 142.295C219.879 142.503 219.894 142.72 219.968 142.92Z" fill="#EB996E"/>
<path d="M215.233 128.23C215.168 128.927 215.168 129.629 215.233 130.326C215.233 131.759 215.233 133.475 215.286 135.365C215.34 137.256 215.286 138.971 215.286 140.405C215.241 141.103 215.256 141.805 215.332 142.501C215.499 141.817 215.583 141.116 215.584 140.412C215.675 139.124 215.736 137.363 215.729 135.365C215.721 133.368 215.645 131.599 215.553 130.311C215.522 129.608 215.414 128.91 215.233 128.23Z" fill="#EB996E"/>
<path d="M222.346 145.26C222.559 145.209 222.764 145.13 222.956 145.024C223.204 144.897 223.477 144.824 223.756 144.811C224.034 144.798 224.313 144.845 224.572 144.948C224.731 145.034 224.866 145.161 224.962 145.314C225.058 145.468 225.113 145.644 225.121 145.825C225.145 146.279 225.112 146.735 225.022 147.182C224.896 147.743 224.986 148.331 225.273 148.828C225.456 149.084 225.696 149.293 225.974 149.439C226.252 149.585 226.56 149.663 226.874 149.667C227.183 149.665 227.488 149.6 227.771 149.477C228.054 149.354 228.309 149.175 228.521 148.95C228.919 148.552 229.185 148.041 229.283 147.487C229.403 146.59 229.39 145.681 229.245 144.788C229.166 144.184 228.983 143.598 228.704 143.057C228.491 142.676 228.292 142.531 228.277 142.546C228.262 142.562 228.399 142.752 228.559 143.126C228.768 143.674 228.899 144.249 228.948 144.834C229.048 145.693 229.035 146.562 228.91 147.418C228.813 147.903 228.561 148.343 228.193 148.673C227.825 149.003 227.359 149.204 226.867 149.248C226.619 149.246 226.375 149.187 226.154 149.074C225.933 148.962 225.741 148.799 225.594 148.6C225.363 148.181 225.29 147.695 225.388 147.227C225.473 146.747 225.493 146.257 225.449 145.771C225.427 145.539 225.345 145.317 225.211 145.126C225.078 144.935 224.897 144.781 224.686 144.681C224.39 144.568 224.071 144.527 223.755 144.562C223.44 144.596 223.137 144.705 222.872 144.879C222.514 145.093 222.3 145.207 222.346 145.26Z" fill="#EB996E"/>
<path d="M228.346 148.63C228.292 148.829 228.314 149.041 228.407 149.225C228.514 149.486 228.68 149.72 228.891 149.907C229.103 150.095 229.354 150.232 229.626 150.307C230.037 150.395 230.464 150.376 230.864 150.25C231.265 150.124 231.627 149.897 231.914 149.59C232.601 148.835 232.97 147.844 232.943 146.823C232.943 145.815 232.628 144.831 232.043 144.01C231.566 143.34 230.915 142.813 230.16 142.485C229.665 142.262 229.132 142.135 228.59 142.112C228.209 142.112 228.003 142.112 228.003 142.173C228.706 142.263 229.392 142.459 230.038 142.752C230.715 143.088 231.297 143.589 231.731 144.208C232.237 144.977 232.503 145.88 232.493 146.8C232.518 147.715 232.203 148.606 231.609 149.301C231.367 149.574 231.06 149.782 230.715 149.903C230.371 150.025 230.002 150.056 229.642 149.995C229.402 149.941 229.176 149.836 228.98 149.687C228.784 149.539 228.622 149.35 228.506 149.133C228.399 148.843 228.399 148.63 228.346 148.63Z" fill="#EB996E"/>
<path d="M221.104 155.675C220.776 155.571 220.425 155.571 220.097 155.675C219.239 155.863 218.467 156.329 217.902 157.001L218.252 157.108C218.206 156.636 218.13 156.168 218.024 155.705C217.72 154.066 216.968 152.544 215.851 151.306C216.597 152.736 217.19 154.242 217.619 155.797C217.726 156.269 217.802 156.727 217.856 157.154L217.917 157.626L218.214 157.253C218.72 156.63 219.395 156.166 220.158 155.919C220.73 155.743 221.104 155.728 221.104 155.675Z" fill="#EB996E"/>
<path d="M221.294 137.752C221.195 137.797 221.599 138.514 222.529 138.949C223.459 139.383 224.282 139.132 224.244 139.025C224.206 138.918 223.482 138.926 222.72 138.567C221.957 138.209 221.393 137.675 221.294 137.752Z" fill="#EB996E"/>
<path d="M204.949 164.61L227.202 166.203C227.202 166.203 223.779 205.579 223.116 211.686C222.453 217.792 218.542 227.002 204.949 227.002C191.356 227.002 188.825 222.374 182.779 212.844C189.907 207.904 201.228 193.153 201.228 193.153L204.949 164.61Z" fill="url(#paint3_linear_407_25508)"/>
<path d="M215.439 169.908C215.325 170.24 215.187 170.563 215.027 170.876L213.785 173.499L209.393 182.563L209.172 182.296L214.943 180.581L220.806 178.858L221.233 178.736L221.027 179.125L216.453 188.006L215.104 190.56C214.954 190.872 214.778 191.171 214.578 191.452C214.694 191.126 214.832 190.808 214.989 190.499C215.309 189.844 215.752 188.975 216.239 187.9L220.669 178.957L220.89 179.224L215.035 180.962L209.256 182.655L208.837 182.777L209.035 182.388L213.586 173.415C214.143 172.355 214.593 171.486 214.928 170.838C215.072 170.514 215.243 170.203 215.439 169.908Z" fill="#E0E0E0"/>
<path d="M213.335 207.782C212.993 207.856 212.647 207.901 212.298 207.92L209.401 208.171L199.384 208.934L199.505 208.606L203.897 212.722L208.341 216.915L208.661 217.22H208.219L198.255 217.769L195.373 217.891C195.029 217.921 194.682 217.921 194.337 217.891C194.676 217.824 195.02 217.783 195.366 217.769L198.24 217.533L208.196 216.847L208.082 217.175L203.622 212.989L199.246 208.857L198.926 208.56H199.361L209.386 207.958L212.29 207.813C212.637 207.776 212.986 207.766 213.335 207.782Z" fill="#E0E0E0"/>
<path d="M252.955 67.1188L230.259 58.9691L207.815 67.012C204.949 68.3614 202.433 69.1772 202.433 71.8454V85.1563C202.38 94.5054 204.933 103.684 209.805 111.664C214.674 119.716 221.888 126.087 230.481 129.922C239.629 126.941 246.49 118.982 250.721 112.182C255.607 104.207 258.173 95.0275 258.131 85.6747V73.7056C258.131 69.8938 256.104 68.0336 252.955 67.1188Z" fill="url(#paint4_linear_407_25508)"/>
<g opacity="0.3">
<path d="M230.481 122.177C223.671 119.106 217.965 114.024 214.128 107.615C210.265 101.31 208.235 94.0527 208.265 86.6581V77.3572C208.265 75.2379 209.546 73.2557 212.077 72.0741L230.267 65.2738V58.9995L207.815 67.0119C205.46 68.0411 202.433 69.1771 202.433 71.8453V85.1562C202.38 94.5053 204.933 103.684 209.805 111.664C214.674 119.716 221.888 126.087 230.481 129.922V122.177Z" fill="black"/>
</g>
<g opacity="0.4">
<path d="M230.481 129.899C232.02 129.396 233.513 128.758 234.94 127.993C238.451 126.007 241.643 123.504 244.409 120.568C246.91 117.874 249.111 114.916 250.973 111.747C255.916 103.713 258.404 94.4098 258.132 84.9807V73.995C258.132 68.5212 255.311 68.1172 252.948 67.088L230.252 58.9383V65.2126L248.655 72.1272C251.186 73.3089 252.467 75.291 252.467 77.4028V86.7417C252.498 94.1341 250.467 101.389 246.605 107.691C242.85 114.071 237.212 119.131 230.465 122.176L230.481 129.899Z" fill="black"/>
</g>
<path opacity="0.5" d="M236.282 86.0632V84.2641C236.282 82.7011 235.661 81.2022 234.556 80.097C233.451 78.9919 231.952 78.371 230.389 78.371C228.826 78.371 227.327 78.9919 226.222 80.097C225.117 81.2022 224.496 82.7011 224.496 84.2641V86.0937C223.716 86.2106 223.004 86.6034 222.489 87.2007C221.974 87.7981 221.691 88.5604 221.69 89.349V99.9459C221.69 100.819 222.037 101.657 222.655 102.275C223.273 102.892 224.11 103.239 224.984 103.239H236.023C236.896 103.239 237.734 102.892 238.352 102.275C238.969 101.657 239.316 100.819 239.316 99.9459V89.349C239.317 88.52 239.005 87.7212 238.442 87.1121C237.88 86.503 237.109 86.1285 236.282 86.0632ZM231.99 97.3005H229.108L229.558 95.2192C229.243 95.0138 229.002 94.7121 228.872 94.3589C228.743 94.0057 228.73 93.6201 228.837 93.2594C228.945 92.8987 229.165 92.5822 229.467 92.3572C229.768 92.1322 230.135 92.0106 230.511 92.0106C230.887 92.0106 231.253 92.1322 231.555 92.3572C231.857 92.5822 232.077 92.8987 232.185 93.2594C232.292 93.6201 232.279 94.0057 232.15 94.3589C232.02 94.7121 231.779 95.0138 231.464 95.2192C231.662 95.9968 231.99 97.3005 231.99 97.3005ZM235.039 86.048H225.769V84.2641C225.818 83.0702 226.326 81.9415 227.188 81.1139C228.05 80.2864 229.198 79.8243 230.393 79.8243C231.588 79.8243 232.736 80.2864 233.598 81.1139C234.46 81.9415 234.968 83.0702 235.017 84.2641L235.039 86.048Z" fill="white"/>
<path d="M211.948 85.9335C211.749 85.3372 211.634 84.7164 211.604 84.0886C211.435 82.588 211.374 81.0772 211.422 79.5678C211.422 78.6835 211.505 77.8449 211.582 77.0825C211.619 76.3872 211.793 75.7061 212.092 75.0775C212.307 74.6468 212.654 74.2967 213.083 74.0788C213.396 73.9339 213.587 73.9416 213.587 73.9644C213.039 74.2156 212.599 74.6534 212.344 75.1995C212.1 75.809 211.966 76.4568 211.948 77.113C211.887 77.8753 211.841 78.7063 211.818 79.583C211.765 81.3289 211.818 82.9146 211.887 84.0657C211.956 84.6858 211.976 85.3103 211.948 85.9335Z" fill="white"/>
<path d="M212.275 91.7198C212.168 91.7198 212.069 91.1785 212.054 90.5C212.039 89.8215 212.123 89.2726 212.229 89.2726C212.336 89.2726 212.435 89.8139 212.45 90.4924C212.466 91.1709 212.389 91.7198 212.275 91.7198Z" fill="white"/>
<path d="M189.763 161.392L164.46 223.967H118.833V226.796H254.739L282.542 161.392H189.763Z" fill="#263238"/>
<path d="M228.445 198.337C227.53 201.485 224.862 203.475 222.483 202.789C220.105 202.103 218.923 198.977 219.838 195.828C220.753 192.68 223.429 190.69 225.807 191.376C228.186 192.062 229.367 195.188 228.445 198.337Z" fill="#FAFAFA"/>
<defs>
<linearGradient id="paint0_linear_407_25508" x1="168.988" y1="226.994" x2="41.5568" y2="190.089" gradientUnits="userSpaceOnUse">
<stop stop-color="#246BFD"/>
<stop offset="1" stop-color="#5089FF"/>
</linearGradient>
<linearGradient id="paint1_linear_407_25508" x1="127.653" y1="225.485" x2="23.0145" y2="191.881" gradientUnits="userSpaceOnUse">
<stop stop-color="#246BFD"/>
<stop offset="1" stop-color="#5089FF"/>
</linearGradient>
<linearGradient id="paint2_linear_407_25508" x1="212.9" y1="212.844" x2="148.516" y2="201.045" gradientUnits="userSpaceOnUse">
<stop stop-color="#246BFD"/>
<stop offset="1" stop-color="#5089FF"/>
</linearGradient>
<linearGradient id="paint3_linear_407_25508" x1="227.202" y1="227.002" x2="172.242" y2="215.656" gradientUnits="userSpaceOnUse">
<stop stop-color="#246BFD"/>
<stop offset="1" stop-color="#5089FF"/>
</linearGradient>
<linearGradient id="paint4_linear_407_25508" x1="258.132" y1="129.922" x2="189.822" y2="114.374" gradientUnits="userSpaceOnUse">
<stop stop-color="#246BFD"/>
<stop offset="1" stop-color="#5089FF"/>
</linearGradient>
</defs>
</svg>
