<svg width="18" height="18" viewBox="0 0 18 18" fill="none" xmlns="http://www.w3.org/2000/svg">
<path d="M8.18841 3.53711H3.18304C2.80375 3.53711 2.44 3.68778 2.1718 3.95598C1.9036 4.22418 1.75293 4.58793 1.75293 4.96722V14.978C1.75293 15.3573 1.9036 15.721 2.1718 15.9892C2.44 16.2574 2.80375 16.4081 3.18304 16.4081H13.1938C13.5731 16.4081 13.9368 16.2574 14.205 15.9892C14.4732 15.721 14.6239 15.3573 14.6239 14.978V9.97259" stroke="#246BFD" stroke-linecap="round" stroke-linejoin="round"/>
<path d="M13.551 2.46576C13.8355 2.1813 14.2213 2.02148 14.6236 2.02148C15.0259 2.02148 15.4117 2.1813 15.6962 2.46576C15.9807 2.75023 16.1405 3.13605 16.1405 3.53834C16.1405 3.94064 15.9807 4.32646 15.6962 4.61092L8.90318 11.4039L6.04297 12.119L6.75802 9.25877L13.551 2.46576Z" stroke="#246BFD" stroke-linecap="round" stroke-linejoin="round"/>
</svg>
