<svg width="21" height="18" viewBox="0 0 21 18" fill="none" xmlns="http://www.w3.org/2000/svg">
<path fill-rule="evenodd" clip-rule="evenodd" d="M15.4395 0C16.7805 0 18.0705 0.53 19.0195 1.481C19.9695 2.43 20.5005 3.71 20.5005 5.05V12.95C20.5005 15.74 18.2305 18 15.4395 18H5.56049C2.76949 18 0.500488 15.74 0.500488 12.95V5.05C0.500488 2.26 2.75949 0 5.56049 0H15.4395ZM17.0305 6.53998L17.1105 6.45998C17.3495 6.16998 17.3495 5.74998 17.0995 5.45998C16.9605 5.31098 16.7695 5.21998 16.5705 5.19998C16.3605 5.18898 16.1605 5.25998 16.0095 5.39998L11.5005 8.99998C10.9205 9.48098 10.0895 9.48098 9.50051 8.99998L5.00051 5.39998C4.68951 5.16998 4.25951 5.19998 4.00051 5.46998C3.73051 5.73998 3.70051 6.16998 3.92951 6.46998L4.06051 6.59998L8.61051 10.15C9.17051 10.59 9.84951 10.83 10.5605 10.83C11.2695 10.83 11.9605 10.59 12.5195 10.15L17.0305 6.53998Z" fill="url(#paint0_linear_41_2597)"/>
<defs>
<linearGradient id="paint0_linear_41_2597" x1="20.5005" y1="18" x2="-2.87256" y2="10.4702" gradientUnits="userSpaceOnUse">
<stop stop-color="#246BFD"/>
<stop offset="1" stop-color="#5089FF"/>
</linearGradient>
</defs>
</svg>
