<svg width="308" height="206" viewBox="0 0 308 206" fill="none" xmlns="http://www.w3.org/2000/svg">
<g clip-path="url(#clip0_407_23921)">
<path d="M80.3155 116.152C79.5106 117.593 77.7478 117.791 74.9235 117.517C72.7997 117.311 70.8627 117.151 68.7385 115.989C67.2519 115.176 66.075 114.077 65.216 113.009C64.2852 111.852 62.9857 110.532 63.6226 109.22C64.498 107.419 69.5595 105.901 74.4745 108.383C79.8737 111.11 81.103 114.743 80.3155 116.152Z" fill="url(#paint0_linear_407_23921)"/>
<path d="M241.701 106.646C238.41 109.108 233.188 107.671 233.188 107.671C233.188 107.671 233.304 102.242 236.597 99.782C239.888 97.3197 245.108 98.7544 245.108 98.7544C245.108 98.7544 244.992 104.183 241.701 106.646Z" fill="url(#paint1_linear_407_23921)"/>
<path d="M73.9611 59.8648C77.0893 63.4973 83.3934 63.179 83.3934 63.179C83.3934 63.179 84.6217 56.9715 81.49 53.3408C78.3617 49.7083 72.0607 50.0245 72.0607 50.0245C72.0607 50.0245 70.8328 56.2323 73.9611 59.8648Z" fill="url(#paint2_linear_407_23921)"/>
<path d="M150.54 175.367C149.049 175.367 147.84 174.154 147.84 172.658C147.84 171.163 149.049 169.95 150.54 169.95C152.03 169.95 153.239 171.163 153.239 172.658C153.239 174.154 152.03 175.367 150.54 175.367Z" fill="#E5E5E6"/>
<path d="M174.078 153.244C172.44 153.244 171.111 151.911 171.111 150.267C171.111 148.623 172.44 147.29 174.078 147.29C175.717 147.29 177.046 148.623 177.046 150.267C177.046 151.911 175.717 153.244 174.078 153.244Z" fill="#E5E5E6"/>
<path d="M232.369 62.0205C231.046 62.0205 229.974 60.9445 229.974 59.6172C229.974 58.2899 231.046 57.2139 232.369 57.2139C233.692 57.2139 234.765 58.2899 234.765 59.6172C234.765 60.9445 233.692 62.0205 232.369 62.0205Z" fill="#E5E5E6"/>
<path d="M65.6952 72.224C66.1187 73.8096 65.1808 75.4394 63.6003 75.8643C62.0199 76.2891 60.3953 75.3481 59.9719 73.7626C59.5484 72.177 60.4863 70.5472 62.0667 70.1223C63.6472 69.6975 65.2717 70.6384 65.6952 72.224Z" fill="#E5E5E6"/>
<path d="M110.031 46.7052C107.854 46.7052 106.089 44.9349 106.089 42.751C106.089 40.5672 107.854 38.7969 110.031 38.7969C112.207 38.7969 113.972 40.5672 113.972 42.751C113.972 44.9349 112.207 46.7052 110.031 46.7052Z" fill="#E5E5E6"/>
<path d="M254.769 140.661C253.095 140.661 251.738 139.572 251.738 138.228C251.738 136.884 253.095 135.795 254.769 135.795C256.444 135.795 257.801 136.884 257.801 138.228C257.801 139.572 256.444 140.661 254.769 140.661Z" fill="#E5E5E6"/>
<path d="M79.8919 161.959C79.8919 164.372 77.9422 166.328 75.5372 166.328C73.1321 166.328 71.1824 164.372 71.1824 161.959C71.1824 159.546 73.1321 157.59 75.5372 157.59C77.9422 157.59 79.8919 159.546 79.8919 161.959Z" fill="#E5E5E6"/>
<path d="M225.703 134.581H225.782C226.252 141.257 231.201 141.36 231.201 141.36C231.201 141.36 225.744 141.467 225.744 149.181C225.744 141.467 220.287 141.36 220.287 141.36C220.287 141.36 225.233 141.257 225.703 134.581Z" fill="#E5E5E6"/>
<path d="M105.936 163.213H208.779C216.893 163.213 223.471 156.614 223.471 148.474V45.2963C223.471 37.1559 216.893 30.5566 208.779 30.5566H135.319C127.205 30.5566 120.628 37.1559 120.628 45.2963V148.474C120.628 156.614 114.05 163.213 105.936 163.213ZM105.936 163.213C97.8212 163.213 91.2437 156.614 91.2437 148.474V67.4059C91.2437 59.2651 97.8212 52.6663 105.936 52.6663H120.628M146.339 60.0363H197.761M146.339 89.5156H197.761M146.339 118.996H197.761" stroke="#E5E5E6" stroke-width="1.23333" stroke-linecap="round" stroke-linejoin="round"/>
<path fill-rule="evenodd" clip-rule="evenodd" d="M92.9722 106.963C92.9722 124.06 106.786 137.919 123.828 137.919C140.87 137.919 154.684 124.06 154.684 106.963C154.684 89.8662 140.87 76.0068 123.828 76.0068C106.786 76.0068 92.9722 89.8662 92.9722 106.963Z" fill="#EEE6FA" stroke="#246BFD" stroke-width="6.19195" stroke-linecap="round" stroke-linejoin="round"/>
<path d="M86.2402 144.673L99.4243 131.446" stroke="#246BFD" stroke-width="6.19195" stroke-linecap="round" stroke-linejoin="round"/>
<path fill-rule="evenodd" clip-rule="evenodd" d="M185.142 144.443V130.171C185.143 127.812 185.76 125.494 186.932 123.449C188.104 121.404 189.79 119.703 191.822 118.516L205.265 110.666C207.318 109.468 209.651 108.837 212.027 108.837C214.402 108.837 216.736 109.468 218.789 110.666L232.232 118.516C234.265 119.702 235.952 121.403 237.124 123.448C238.297 125.494 238.914 127.812 238.914 130.171V144.443C238.914 146.802 238.297 149.12 237.125 151.165C235.953 153.21 234.267 154.912 232.235 156.099L218.792 163.948C216.738 165.146 214.405 165.778 212.03 165.778C209.654 165.778 207.321 165.146 205.268 163.948L191.825 156.099C189.792 154.912 188.105 153.211 186.932 151.166C185.76 149.121 185.143 146.803 185.142 144.443Z" fill="#246BFD"/>
<path d="M212.028 137.307V123.82M212.025 147.797C211.927 147.797 211.83 147.816 211.739 147.853C211.649 147.891 211.567 147.946 211.498 148.016C211.428 148.086 211.374 148.168 211.337 148.259C211.299 148.35 211.281 148.448 211.281 148.546C211.281 148.695 211.325 148.84 211.407 148.963C211.49 149.086 211.607 149.182 211.743 149.239C211.88 149.296 212.03 149.31 212.175 149.281C212.32 149.252 212.453 149.18 212.558 149.075C212.662 148.97 212.733 148.836 212.761 148.69C212.79 148.545 212.775 148.394 212.718 148.257C212.66 148.12 212.564 148.003 212.441 147.921C212.318 147.839 212.173 147.796 212.025 147.797Z" stroke="#EEE6FA" stroke-width="4.03732" stroke-linecap="round" stroke-linejoin="round"/>
</g>
<defs>
<linearGradient id="paint0_linear_407_23921" x1="74.893" y1="125.492" x2="67.6742" y2="93.1588" gradientUnits="userSpaceOnUse">
<stop stop-color="white"/>
<stop offset="1" stop-color="#EEEEEE"/>
</linearGradient>
<linearGradient id="paint1_linear_407_23921" x1="228.828" y1="114.803" x2="254.46" y2="85.7455" gradientUnits="userSpaceOnUse">
<stop stop-color="white"/>
<stop offset="1" stop-color="#EEEEEE"/>
</linearGradient>
<linearGradient id="paint2_linear_407_23921" x1="86.5679" y1="72.3958" x2="64.6959" y2="32.8505" gradientUnits="userSpaceOnUse">
<stop stop-color="white"/>
<stop offset="1" stop-color="#EEEEEE"/>
</linearGradient>
<clipPath id="clip0_407_23921">
<rect width="308" height="206" fill="white"/>
</clipPath>
</defs>
</svg>
