<svg width="41" height="40" viewBox="0 0 41 40" fill="none" xmlns="http://www.w3.org/2000/svg">
<path d="M18.9167 24.9167L15.8334 28C15.1834 28.65 14.15 28.65 13.4834 28.0167C13.3 27.8334 13.1167 27.6667 12.9334 27.4834C11.2167 25.75 9.66671 23.9334 8.28337 22.0334C6.91671 20.1334 5.81671 18.2334 5.01671 16.35C4.23337 14.45 3.83337 12.6334 3.83337 10.9C3.83337 9.76671 4.03337 8.68337 4.43337 7.68337C4.83337 6.66671 5.46671 5.73337 6.35004 4.90004C7.41671 3.85004 8.58337 3.33337 9.81671 3.33337C10.2834 3.33337 10.75 3.43337 11.1667 3.63337C11.6 3.83337 11.9834 4.13337 12.2834 4.56671L16.15 10.0167C16.45 10.4334 16.6667 10.8167 16.8167 11.1834C16.9667 11.5334 17.05 11.8834 17.05 12.2C17.05 12.6 16.9334 13 16.7 13.3834C16.4834 13.7667 16.1667 14.1667 15.7667 14.5667L14.5 15.8834C14.3167 16.0667 14.2334 16.2834 14.2334 16.55C14.2334 16.6834 14.25 16.8 14.2834 16.9334C14.3334 17.0667 14.3834 17.1667 14.4167 17.2667C14.7167 17.8167 15.2334 18.5334 15.9667 19.4C16.7167 20.2667 17.5167 21.15 18.3834 22.0334C18.55 22.2 18.7334 22.3667 18.9 22.5334C19.5667 23.1834 19.5834 24.25 18.9167 24.9167Z" fill="white"/>
<path d="M37.1167 30.55C37.1167 31.0167 37.0333 31.5 36.8667 31.9667C36.8167 32.1 36.7667 32.2334 36.7 32.3667C36.4167 32.9667 36.05 33.5334 35.5667 34.0667C34.75 34.9667 33.85 35.6167 32.8333 36.0334C32.8167 36.0334 32.8 36.05 32.7833 36.05C31.8 36.45 30.7333 36.6667 29.5833 36.6667C27.8833 36.6667 26.0667 36.2667 24.15 35.45C22.2333 34.6334 20.3167 33.5334 18.4167 32.15C17.7667 31.6667 17.1167 31.1834 16.5 30.6667L21.95 25.2167C22.4167 25.5667 22.8333 25.8334 23.1833 26.0167C23.2667 26.05 23.3667 26.1 23.4833 26.15C23.6167 26.2 23.75 26.2167 23.9 26.2167C24.1833 26.2167 24.4 26.1167 24.5833 25.9334L25.85 24.6834C26.2667 24.2667 26.6667 23.95 27.05 23.75C27.4333 23.5167 27.8167 23.4 28.2333 23.4C28.55 23.4 28.8833 23.4667 29.25 23.6167C29.6167 23.7667 30 23.9834 30.4167 24.2667L35.9333 28.1834C36.3667 28.4834 36.6667 28.8334 36.85 29.25C37.0167 29.6667 37.1167 30.0834 37.1167 30.55Z" fill="white"/>
</svg>
