<svg width="24" height="24" viewBox="0 0 24 24" fill="none" xmlns="http://www.w3.org/2000/svg">
<rect y="3.43018" width="24" height="17.1429" rx="2" fill="white"/>
<mask id="mask0_407_24313" style="mask-type:luminance" maskUnits="userSpaceOnUse" x="0" y="3" width="24" height="18">
<rect y="3.43018" width="24" height="17.1429" rx="2" fill="white"/>
</mask>
<g mask="url(#mask0_407_24313)">
<path fill-rule="evenodd" clip-rule="evenodd" d="M24 3.43018H0V4.57303H24V3.43018ZM24 5.71589H0V6.85875H24V5.71589ZM0 8.0016H24V9.14446H0V8.0016ZM24 10.2873H0V11.4302H24V10.2873ZM0 12.573H24V13.7159H0V12.573ZM24 14.8587H0V16.0016H24V14.8587ZM0 17.1445H24V18.2873H0V17.1445ZM24 19.4302H0V20.573H24V19.4302Z" fill="#D02F44"/>
<rect y="3.43018" width="10.2857" height="8" fill="#46467F"/>
<g filter="url(#filter0_d_407_24313)">
<path fill-rule="evenodd" clip-rule="evenodd" d="M2.28568 5.14467C2.28568 5.46026 2.02984 5.7161 1.71425 5.7161C1.39866 5.7161 1.14282 5.46026 1.14282 5.14467C1.14282 4.82908 1.39866 4.57324 1.71425 4.57324C2.02984 4.57324 2.28568 4.82908 2.28568 5.14467ZM4.57139 5.14467C4.57139 5.46026 4.31556 5.7161 3.99997 5.7161C3.68437 5.7161 3.42854 5.46026 3.42854 5.14467C3.42854 4.82908 3.68437 4.57324 3.99997 4.57324C4.31556 4.57324 4.57139 4.82908 4.57139 5.14467ZM6.28568 5.7161C6.60127 5.7161 6.85711 5.46026 6.85711 5.14467C6.85711 4.82908 6.60127 4.57324 6.28568 4.57324C5.97009 4.57324 5.71425 4.82908 5.71425 5.14467C5.71425 5.46026 5.97009 5.7161 6.28568 5.7161ZM9.14282 5.14467C9.14282 5.46026 8.88699 5.7161 8.57139 5.7161C8.2558 5.7161 7.99997 5.46026 7.99997 5.14467C7.99997 4.82908 8.2558 4.57324 8.57139 4.57324C8.88699 4.57324 9.14282 4.82908 9.14282 5.14467ZM2.85711 6.85896C3.1727 6.85896 3.42854 6.60312 3.42854 6.28753C3.42854 5.97194 3.1727 5.7161 2.85711 5.7161C2.54152 5.7161 2.28568 5.97194 2.28568 6.28753C2.28568 6.60312 2.54152 6.85896 2.85711 6.85896ZM5.71425 6.28753C5.71425 6.60312 5.45841 6.85896 5.14282 6.85896C4.82723 6.85896 4.57139 6.60312 4.57139 6.28753C4.57139 5.97194 4.82723 5.7161 5.14282 5.7161C5.45841 5.7161 5.71425 5.97194 5.71425 6.28753ZM7.42854 6.85896C7.74413 6.85896 7.99996 6.60312 7.99996 6.28753C7.99996 5.97194 7.74413 5.7161 7.42854 5.7161C7.11295 5.7161 6.85711 5.97194 6.85711 6.28753C6.85711 6.60312 7.11295 6.85896 7.42854 6.85896ZM9.14282 7.43039C9.14282 7.74598 8.88699 8.00181 8.57139 8.00181C8.2558 8.00181 7.99997 7.74598 7.99997 7.43039C7.99997 7.11479 8.2558 6.85896 8.57139 6.85896C8.88699 6.85896 9.14282 7.11479 9.14282 7.43039ZM6.28568 8.00181C6.60127 8.00181 6.85711 7.74598 6.85711 7.43039C6.85711 7.11479 6.60127 6.85896 6.28568 6.85896C5.97009 6.85896 5.71425 7.11479 5.71425 7.43039C5.71425 7.74598 5.97009 8.00181 6.28568 8.00181ZM4.57139 7.43039C4.57139 7.74598 4.31556 8.00181 3.99997 8.00181C3.68437 8.00181 3.42854 7.74598 3.42854 7.43039C3.42854 7.11479 3.68437 6.85896 3.99997 6.85896C4.31556 6.85896 4.57139 7.11479 4.57139 7.43039ZM1.71425 8.00181C2.02984 8.00181 2.28568 7.74598 2.28568 7.43039C2.28568 7.11479 2.02984 6.85896 1.71425 6.85896C1.39866 6.85896 1.14282 7.11479 1.14282 7.43039C1.14282 7.74598 1.39866 8.00181 1.71425 8.00181ZM3.42854 8.57324C3.42854 8.88883 3.1727 9.14467 2.85711 9.14467C2.54152 9.14467 2.28568 8.88883 2.28568 8.57324C2.28568 8.25765 2.54152 8.00181 2.85711 8.00181C3.1727 8.00181 3.42854 8.25765 3.42854 8.57324ZM5.14282 9.14467C5.45841 9.14467 5.71425 8.88883 5.71425 8.57324C5.71425 8.25765 5.45841 8.00181 5.14282 8.00181C4.82723 8.00181 4.57139 8.25765 4.57139 8.57324C4.57139 8.88883 4.82723 9.14467 5.14282 9.14467ZM7.99996 8.57324C7.99996 8.88883 7.74413 9.14467 7.42854 9.14467C7.11295 9.14467 6.85711 8.88883 6.85711 8.57324C6.85711 8.25765 7.11295 8.00181 7.42854 8.00181C7.74413 8.00181 7.99996 8.25765 7.99996 8.57324ZM8.57139 10.2875C8.88699 10.2875 9.14282 10.0317 9.14282 9.7161C9.14282 9.40051 8.88699 9.14467 8.57139 9.14467C8.2558 9.14467 7.99997 9.40051 7.99997 9.7161C7.99997 10.0317 8.2558 10.2875 8.57139 10.2875ZM6.85711 9.7161C6.85711 10.0317 6.60127 10.2875 6.28568 10.2875C5.97009 10.2875 5.71425 10.0317 5.71425 9.7161C5.71425 9.40051 5.97009 9.14467 6.28568 9.14467C6.60127 9.14467 6.85711 9.40051 6.85711 9.7161ZM3.99997 10.2875C4.31556 10.2875 4.57139 10.0317 4.57139 9.7161C4.57139 9.40051 4.31556 9.14467 3.99997 9.14467C3.68437 9.14467 3.42854 9.40051 3.42854 9.7161C3.42854 10.0317 3.68437 10.2875 3.99997 10.2875ZM2.28568 9.7161C2.28568 10.0317 2.02984 10.2875 1.71425 10.2875C1.39866 10.2875 1.14282 10.0317 1.14282 9.7161C1.14282 9.40051 1.39866 9.14467 1.71425 9.14467C2.02984 9.14467 2.28568 9.40051 2.28568 9.7161Z" fill="url(#paint0_linear_407_24313)"/>
</g>
</g>
<defs>
<filter id="filter0_d_407_24313" x="1.14282" y="4.57324" width="8" height="6.71436" filterUnits="userSpaceOnUse" color-interpolation-filters="sRGB">
<feFlood flood-opacity="0" result="BackgroundImageFix"/>
<feColorMatrix in="SourceAlpha" type="matrix" values="0 0 0 0 0 0 0 0 0 0 0 0 0 0 0 0 0 0 127 0" result="hardAlpha"/>
<feOffset dy="1"/>
<feColorMatrix type="matrix" values="0 0 0 0 0 0 0 0 0 0 0 0 0 0 0 0 0 0 0.06 0"/>
<feBlend mode="normal" in2="BackgroundImageFix" result="effect1_dropShadow_407_24313"/>
<feBlend mode="normal" in="SourceGraphic" in2="effect1_dropShadow_407_24313" result="shape"/>
</filter>
<linearGradient id="paint0_linear_407_24313" x1="1.14282" y1="4.57324" x2="1.14282" y2="10.2875" gradientUnits="userSpaceOnUse">
<stop stop-color="white"/>
<stop offset="1" stop-color="#F0F0F0"/>
</linearGradient>
</defs>
</svg>
