<svg width="306" height="204" viewBox="0 0 306 204" fill="none" xmlns="http://www.w3.org/2000/svg">
<g clip-path="url(#clip0_407_23650)">
<path d="M251.351 47.2304H70.3905C65.1328 47.2304 60.8705 51.4927 60.8705 56.7504V163.404C60.8705 168.662 65.1328 172.924 70.3905 172.924H251.351C256.609 172.924 260.871 168.662 260.871 163.404V56.7504C260.871 51.4927 256.609 47.2304 251.351 47.2304Z" fill="white" stroke="#E1E4E5" stroke-width="1.36"/>
<path d="M232.29 56.471H218.429C216.253 56.471 214.489 58.2351 214.489 60.4111C214.489 62.5872 216.253 64.3512 218.429 64.3512H232.29C234.466 64.3512 236.23 62.5872 236.23 60.4111C236.23 58.2351 234.466 56.471 232.29 56.471Z" fill="white" stroke="#E1E4E5" stroke-width="1.36"/>
<path d="M203.029 56.471H189.169C186.993 56.471 185.229 58.2351 185.229 60.4111C185.229 62.5872 186.993 64.3512 189.169 64.3512H203.029C205.205 64.3512 206.969 62.5872 206.969 60.4111C206.969 58.2351 205.205 56.471 203.029 56.471Z" fill="white" stroke="#E1E4E5" stroke-width="1.36"/>
<path d="M177.708 60.4111C177.708 58.2351 175.944 56.471 173.768 56.471C171.592 56.471 169.828 58.2351 169.828 60.4111C169.828 62.5872 171.592 64.3512 173.768 64.3512C175.944 64.3512 177.708 62.5872 177.708 60.4111Z" fill="white" stroke="#E1E4E5" stroke-width="1.36"/>
<path d="M85.868 129.647H112.748V139.491H124.068V129.647H131.014V120.158H124.068V83.4894H109.247L85.868 120.323V129.647ZM112.966 120.158H97.7901V119.721L112.529 96.3961H112.966V120.158ZM160.86 140.722C174.943 140.722 183.447 130.002 183.474 111.545C183.501 93.2242 174.888 82.7237 160.86 82.7237C146.805 82.7237 138.274 93.1967 138.246 111.545C138.192 129.948 146.75 140.694 160.86 140.722ZM160.86 130.905C154.434 130.905 150.278 124.452 150.305 111.545C150.333 98.8298 154.462 92.431 160.86 92.431C167.231 92.431 171.388 98.8298 171.388 111.545C171.415 124.452 167.259 130.905 160.86 130.905ZM191.069 129.647H217.949V139.491H229.27V129.647H236.215V120.158H229.27V83.4894H214.449L191.069 120.323V129.647ZM218.167 120.158H202.991V119.721L217.73 96.3961H218.167V120.158Z" fill="#246BFD"/>
<path d="M79.916 59.6412C79.916 57.8904 78.4967 56.471 76.7458 56.471C74.995 56.471 73.5757 57.8904 73.5757 59.6412C73.5757 61.392 74.995 62.8114 76.7458 62.8114C78.4967 62.8114 79.916 61.392 79.916 59.6412Z" fill="white" stroke="#E1E4E5" stroke-width="1.36"/>
<path d="M63.4773 131.822C65.6992 131.822 67.5005 133.623 67.5005 135.845C67.5005 138.067 65.6992 139.868 63.4773 139.868C61.2553 139.868 59.454 138.067 59.454 135.845C59.454 133.623 61.2553 131.822 63.4773 131.822Z" fill="#246BFD"/>
<path d="M263.977 88.3853C261.283 89.941 257.838 89.0178 256.282 86.3233C254.726 83.6289 255.65 80.1835 258.344 78.6279C261.038 77.0723 264.484 77.9954 266.039 80.6899C267.595 83.3843 266.672 86.8297 263.977 88.3853Z" fill="#246BFD"/>
<path d="M158.716 64.573C156.398 64.573 154.518 62.6932 154.518 60.3744C154.518 58.0555 156.398 56.1757 158.716 56.1757C161.035 56.1757 162.915 58.0555 162.915 60.3744C162.915 62.6932 161.035 64.573 158.716 64.573Z" fill="#E1E4E5"/>
<path d="M108.514 50.4111C111.6 50.4111 114.102 47.9093 114.102 44.8232C114.102 41.7371 111.6 39.2353 108.514 39.2353C105.428 39.2353 102.926 41.7371 102.926 44.8232C102.926 47.9093 105.428 50.4111 108.514 50.4111Z" fill="#246BFD"/>
<path d="M188.399 146.268C185.847 146.268 183.779 148.337 183.779 150.888C183.779 153.44 185.847 155.509 188.399 155.509C190.951 155.509 193.019 153.44 193.019 150.888C193.019 148.337 190.951 146.268 188.399 146.268Z" fill="#246BFD"/>
<path d="M102.939 164.002C100.593 164.002 98.6919 162.1 98.6919 159.755C98.6919 157.41 100.593 155.509 102.939 155.509C105.284 155.509 107.185 157.41 107.185 159.755C107.185 162.1 105.284 164.002 102.939 164.002Z" fill="#E1E4E5"/>
<path d="M145.441 144.009C146.963 144.888 147.485 146.835 146.606 148.357C145.727 149.879 143.781 150.4 142.258 149.521C140.736 148.643 140.215 146.696 141.094 145.174C141.972 143.652 143.919 143.131 145.441 144.009Z" fill="#E1E4E5"/>
<path d="M250.395 55.5825L244.607 61.3708C244.396 61.5816 244.396 61.9234 244.607 62.1342C244.818 62.345 245.16 62.345 245.37 62.1341L251.159 56.3458C251.37 56.135 251.37 55.7932 251.159 55.5824C250.948 55.3716 250.606 55.3717 250.395 55.5825Z" fill="#E1E4E5"/>
<path d="M249.829 59.727L248.16 61.3962C247.949 61.6071 247.949 61.9489 248.159 62.1597C248.37 62.3705 248.712 62.3704 248.923 62.1596L250.592 60.4903C250.803 60.2795 250.803 59.9377 250.592 59.7269C250.381 59.5161 250.04 59.5162 249.829 59.727Z" fill="#E1E4E5"/>
<path d="M71.8713 157.775L66.6917 162.954C66.5032 163.143 66.5032 163.449 66.6917 163.637L66.692 163.638C66.8805 163.826 67.1862 163.826 67.3747 163.638L72.5543 158.458C72.7428 158.269 72.7428 157.964 72.5543 157.775L72.554 157.775C72.3655 157.586 72.0598 157.586 71.8713 157.775Z" fill="#E1E4E5"/>
<path d="M71.3643 161.483L69.8703 162.977C69.6818 163.165 69.6818 163.471 69.8703 163.66L69.8706 163.66C70.0591 163.849 70.3648 163.849 70.5533 163.66L72.0473 162.166C72.2358 161.977 72.2358 161.672 72.0473 161.483L72.0471 161.483C71.8585 161.294 71.5528 161.294 71.3643 161.483Z" fill="#E1E4E5"/>
<path d="M46.7703 57.0475L56.7829 47.0349C57.1475 46.6703 57.1475 46.0791 56.7829 45.7145C56.4183 45.3499 55.8272 45.3499 55.4626 45.7145L45.4499 55.7271C45.0853 56.0917 45.0853 56.6829 45.4499 57.0475C45.8146 57.4121 46.4057 57.4121 46.7703 57.0475Z" fill="#E1E4E5"/>
<path d="M47.7507 49.8786L50.6383 46.991C51.003 46.6263 51.0029 46.0352 50.6383 45.6706C50.2737 45.306 49.6826 45.306 49.318 45.6706L46.4303 48.5582C46.0657 48.9228 46.0657 49.514 46.4303 49.8786C46.7949 50.2432 47.3861 50.2432 47.7507 49.8786Z" fill="#E1E4E5"/>
<path d="M245.619 164.752L252.668 157.704C252.925 157.447 252.925 157.031 252.668 156.774C252.411 156.517 251.995 156.517 251.739 156.774L244.69 163.823C244.433 164.08 244.433 164.496 244.69 164.752C244.947 165.009 245.363 165.009 245.619 164.752Z" fill="#E1E4E5"/>
<path d="M246.31 159.706L248.343 157.673C248.599 157.416 248.599 157 248.343 156.743C248.086 156.487 247.67 156.487 247.413 156.743L245.38 158.776C245.124 159.033 245.124 159.449 245.38 159.706C245.637 159.962 246.053 159.962 246.31 159.706Z" fill="#E1E4E5"/>
<path fill-rule="evenodd" clip-rule="evenodd" d="M240.866 34.9429H241.989C242.261 34.9429 242.479 35.1639 242.479 35.4331V36.5565C242.479 36.8282 242.258 37.0468 241.989 37.0468H240.866C240.597 37.0468 240.376 36.8258 240.376 36.5565V35.4331C240.375 35.3687 240.388 35.3049 240.413 35.2454C240.437 35.1858 240.473 35.1317 240.519 35.0862C240.564 35.0406 240.618 35.0045 240.678 34.9799C240.738 34.9553 240.801 34.9427 240.866 34.9429ZM244.761 34.9429H245.884C246.153 34.9429 246.374 35.1639 246.374 35.4331V36.5565C246.374 36.8282 246.153 37.0468 245.884 37.0468H244.761C244.491 37.0468 244.27 36.8258 244.27 36.5565V35.4331C244.27 35.1639 244.491 34.9429 244.761 34.9429ZM248.658 34.9429H249.781C250.051 34.9429 250.272 35.1639 250.272 35.4331V36.5565C250.272 36.8282 250.051 37.0468 249.781 37.0468H248.658C248.389 37.0468 248.168 36.8258 248.168 36.5565V35.4331C248.168 35.3687 248.18 35.3049 248.205 35.2454C248.229 35.1858 248.265 35.1317 248.311 35.0862C248.357 35.0406 248.411 35.0045 248.47 34.9799C248.53 34.9553 248.594 34.9427 248.658 34.9429ZM252.553 34.9429H253.676C253.946 34.9429 254.167 35.1639 254.167 35.4331V36.5565C254.167 36.8282 253.946 37.0468 253.676 37.0468H252.553C252.423 37.0467 252.298 36.9951 252.206 36.9032C252.113 36.8114 252.061 36.6867 252.06 36.5565V35.4331C252.062 35.3031 252.114 35.1789 252.206 35.0872C252.298 34.9955 252.423 34.9437 252.553 34.9429ZM256.448 34.9429H257.571C257.843 34.9429 258.064 35.1639 258.064 35.4331V36.5565C258.064 36.8282 257.843 37.0468 257.571 37.0468H256.448C256.179 37.0468 255.958 36.8258 255.958 36.5565V35.4331C255.958 35.1639 256.179 34.9429 256.448 34.9429ZM244.903 39.1901H246.027C246.296 39.1901 246.517 39.4111 246.517 39.6804V40.8062C246.517 41.0754 246.296 41.2964 246.027 41.2964H244.903C244.632 41.2964 244.413 41.0754 244.413 40.8062V39.6828C244.413 39.6182 244.425 39.5541 244.449 39.4943C244.474 39.4345 244.51 39.3802 244.556 39.3344C244.601 39.2886 244.655 39.2523 244.715 39.2275C244.775 39.2028 244.839 39.1901 244.903 39.1901ZM248.798 39.1901H249.922C250.191 39.1901 250.412 39.4111 250.412 39.6804V40.8062C250.412 41.0754 250.191 41.2964 249.922 41.2964H248.798C248.529 41.2964 248.308 41.0754 248.308 40.8062V39.6828C248.308 39.6182 248.32 39.5541 248.345 39.4943C248.369 39.4345 248.405 39.3802 248.451 39.3344C248.496 39.2886 248.55 39.2523 248.61 39.2275C248.67 39.2028 248.734 39.1901 248.798 39.1901ZM252.693 39.1901H253.817C254.088 39.1901 254.309 39.4111 254.309 39.6804V40.8062C254.309 40.9364 254.257 41.061 254.164 41.1529C254.072 41.2448 253.947 41.2964 253.817 41.2964H252.693C252.424 41.2964 252.203 41.0754 252.203 40.8062V39.6828C252.203 39.4111 252.424 39.1901 252.693 39.1901ZM248.658 30.3801H249.781C250.051 30.3801 250.272 30.6011 250.272 30.8703V31.994C250.272 32.2654 250.051 32.4843 249.781 32.4843H248.658C248.389 32.4843 248.168 32.2633 248.168 31.994V30.8703C248.168 30.8059 248.18 30.7421 248.205 30.6826C248.229 30.623 248.265 30.5689 248.311 30.5234C248.357 30.4778 248.411 30.4417 248.47 30.4171C248.53 30.3925 248.594 30.3799 248.658 30.3801ZM252.553 30.3801H253.676C253.946 30.3801 254.167 30.6011 254.167 30.8703V31.994C254.167 32.2654 253.946 32.4843 253.676 32.4843H252.553C252.423 32.4842 252.298 32.4326 252.206 32.3408C252.113 32.2489 252.061 32.1243 252.06 31.994V30.8703C252.062 30.7403 252.114 30.6161 252.206 30.5244C252.298 30.4327 252.423 30.3809 252.553 30.3801ZM37.9654 167.386H39.0887C39.3604 167.386 39.579 167.607 39.579 167.877V169C39.579 169.272 39.358 169.49 39.0887 169.49H37.9654C37.6961 169.49 37.4751 169.269 37.4751 169V167.877C37.475 167.812 37.4876 167.749 37.5121 167.689C37.5367 167.629 37.5728 167.575 37.6184 167.53C37.664 167.484 37.7181 167.448 37.7776 167.424C37.8371 167.399 37.901 167.386 37.9654 167.386ZM41.8601 167.386H42.9834C43.2531 167.386 43.4741 167.607 43.4741 167.877V169C43.4741 169.272 43.2531 169.49 42.9834 169.49H41.8601C41.5908 169.49 41.3698 169.269 41.3698 169V167.877C41.3698 167.607 41.5908 167.386 41.8601 167.386ZM45.7575 167.386H46.8812C47.1505 167.386 47.3715 167.607 47.3715 167.877V169C47.3715 169.272 47.1505 169.49 46.8812 169.49H45.7575C45.4882 169.49 45.2672 169.269 45.2672 169V167.877C45.2671 167.812 45.2797 167.749 45.3044 167.689C45.329 167.629 45.3651 167.575 45.4106 167.53C45.4562 167.484 45.5102 167.448 45.5698 167.424C45.6293 167.399 45.6931 167.386 45.7575 167.386ZM49.6525 167.386H50.7759C51.0452 167.386 51.2662 167.607 51.2662 167.877V169C51.2662 169.272 51.0452 169.49 50.7759 169.49H49.6525C49.5223 169.49 49.3974 169.439 49.3051 169.347C49.2128 169.255 49.1606 169.13 49.1599 169V167.877C49.1613 167.747 49.2137 167.623 49.3059 167.531C49.398 167.439 49.5225 167.387 49.6525 167.386ZM53.5476 167.386H54.6709C54.9426 167.386 55.1636 167.607 55.1636 167.877V169C55.1636 169.272 54.9426 169.49 54.6709 169.49H53.5476C53.2783 169.49 53.0573 169.269 53.0573 169V167.877C53.0573 167.607 53.2783 167.386 53.5476 167.386ZM42.0032 171.634H43.1266C43.3959 171.634 43.6169 171.855 43.6169 172.124V173.25C43.6169 173.519 43.3959 173.74 43.1266 173.74H42.0032C41.7316 173.74 41.5126 173.519 41.5126 173.25V172.126C41.5123 172.062 41.5247 171.998 41.5493 171.938C41.5738 171.878 41.6099 171.824 41.6555 171.778C41.7011 171.732 41.7553 171.696 41.8149 171.671C41.8746 171.646 41.9386 171.634 42.0032 171.634ZM45.8979 171.634H47.0213C47.2906 171.634 47.5116 171.855 47.5116 172.124V173.25C47.5116 173.519 47.2906 173.74 47.0213 173.74H45.8979C45.6286 173.74 45.4076 173.519 45.4076 173.25V172.126C45.4072 172.062 45.4196 171.998 45.4441 171.938C45.4686 171.878 45.5046 171.824 45.5502 171.778C45.5958 171.732 45.65 171.696 45.7096 171.671C45.7693 171.646 45.8333 171.634 45.8979 171.634ZM49.793 171.634H50.9163C51.188 171.634 51.409 171.855 51.409 172.124V173.25C51.4083 173.38 51.3561 173.505 51.2637 173.596C51.1714 173.688 51.0465 173.74 50.9163 173.74H49.793C49.5237 173.74 49.3027 173.519 49.3027 173.25V172.126C49.3027 171.855 49.5237 171.634 49.793 171.634ZM45.7578 162.824H46.8812C47.1505 162.824 47.3715 163.045 47.3715 163.314V164.438C47.3715 164.709 47.1505 164.928 46.8812 164.928H45.7578C45.4882 164.928 45.2672 164.707 45.2672 164.438V163.314C45.2671 163.25 45.2797 163.186 45.3043 163.126C45.3289 163.067 45.365 163.013 45.4106 162.967C45.4562 162.921 45.5103 162.885 45.5699 162.861C45.6295 162.836 45.6934 162.824 45.7578 162.824ZM49.6525 162.824H50.7759C51.0452 162.824 51.2662 163.045 51.2662 163.314V164.438C51.2662 164.709 51.0452 164.928 50.7759 164.928H49.6525C49.5223 164.928 49.3974 164.876 49.3051 164.784C49.2128 164.693 49.1606 164.568 49.1599 164.438V163.314C49.1612 163.184 49.2136 163.06 49.3058 162.968C49.3979 162.876 49.5225 162.824 49.6525 162.824Z" fill="#E1E4E5"/>
<path fill-rule="evenodd" clip-rule="evenodd" d="M61.4999 110.813C53.1223 110.813 46.3301 103.925 46.3301 95.4298C46.3301 86.9342 53.1223 80.0465 61.4999 80.0465C69.8775 80.0465 76.6697 86.9342 76.6697 95.4298C76.6697 103.925 69.8775 110.813 61.4999 110.813Z" fill="#246BFD"/>
<path d="M67.6114 88.9018L61.203 95.7389L57.3556 91.6371" stroke="white" stroke-width="2.5177" stroke-linecap="round" stroke-linejoin="round"/>
<path d="M54.8008 102.284L61.2091 95.4468L65.0565 99.5485" stroke="white" stroke-width="2.5177" stroke-linecap="round" stroke-linejoin="round"/>
</g>
<defs>
<clipPath id="clip0_407_23650">
<rect width="306" height="204" fill="white"/>
</clipPath>
</defs>
</svg>
