<svg width="238" height="251" viewBox="0 0 238 251" fill="none" xmlns="http://www.w3.org/2000/svg">
<path d="M10.9999 219.717L0.729004 233.66L18.0243 246.528C19.1675 244.814 12.6688 234.825 12.6688 234.825L19.619 226.163L10.9999 219.717Z" fill="#455A64"/>
<path d="M7.90185 230.106C7.69847 230.032 7.47485 230.036 7.27426 230.117C7.07367 230.198 6.91035 230.351 6.81589 230.546C6.73556 230.747 6.73519 230.972 6.81485 231.173C6.89452 231.375 7.04821 231.539 7.24456 231.631C7.46006 231.707 7.69601 231.701 7.90702 231.613C8.11804 231.526 8.28923 231.363 8.38768 231.157C8.45082 230.938 8.42654 230.703 8.31994 230.502C8.21333 230.3 8.03272 230.148 7.81612 230.077" fill="white"/>
<path d="M0.706055 233.694L1.79773 232.197L17.9557 245.202C17.9557 245.202 18.4701 246.116 17.9557 246.591L0.706055 233.694Z" fill="#263238"/>
<path d="M13.0459 234.951C12.983 235.037 12.5315 234.763 11.9028 234.723C11.274 234.683 10.7997 234.877 10.7596 234.786C10.7196 234.694 11.1997 234.3 11.9428 234.357C12.6858 234.414 13.0916 234.888 13.0459 234.951Z" fill="#263238"/>
<path d="M14.2749 237.054C14.2292 237.151 13.7605 237.02 13.2061 237.162C12.6517 237.305 12.2916 237.625 12.2059 237.557C12.1202 237.488 12.4288 236.985 13.1204 236.808C13.812 236.631 14.3321 236.974 14.2749 237.054Z" fill="#263238"/>
<path d="M13.6863 239.991C13.5948 239.951 13.7949 239.419 14.355 239.139C14.9151 238.859 15.4467 238.951 15.4295 239.048C15.4124 239.145 14.9837 239.208 14.5322 239.465C14.0807 239.722 13.7777 240.042 13.6863 239.991Z" fill="#263238"/>
<path d="M14.3835 232.803C14.2864 232.854 13.9892 232.448 13.4862 232.128C12.9832 231.808 12.5031 231.677 12.5088 231.557C12.5146 231.437 13.0804 231.414 13.6862 231.803C14.2921 232.191 14.475 232.768 14.3835 232.803Z" fill="#263238"/>
<path d="M52.8152 161.354C53.1238 163.103 53.6154 177.976 53.9297 185.822C54.2441 193.667 53.461 197.524 52.5637 199.284C51.6664 201.044 17.8244 225.974 15.2467 231.946L6.67334 225.037C6.67334 225.037 19.2476 202.472 24.6088 198.37C29.97 194.267 40.2866 190.502 40.2866 190.502L37.3546 147.538L51.4092 146.772L52.8152 161.354Z" fill="#263238"/>
<path d="M21.362 233.505L21.2134 250.802L42.7668 251.099C42.6697 249.042 31.5757 244.751 31.5757 244.751L32.1473 233.66L21.362 233.505Z" fill="#455A64"/>
<path d="M24.9228 243.751C24.7148 243.811 24.5363 243.946 24.4214 244.129C24.3065 244.312 24.2632 244.532 24.2998 244.745C24.3528 244.955 24.4841 245.137 24.6667 245.254C24.8494 245.371 25.0698 245.414 25.2829 245.374C25.5025 245.308 25.6904 245.164 25.8106 244.969C25.9308 244.774 25.9749 244.542 25.9345 244.317C25.8579 244.103 25.7011 243.927 25.4974 243.827C25.2936 243.727 25.0589 243.71 24.8428 243.779" fill="white"/>
<path d="M21.208 250.865V249.008L41.927 250.082C41.927 250.082 42.8758 250.522 42.7557 251.196L21.208 250.865Z" fill="#263238"/>
<path d="M31.9072 244.671C31.9072 244.779 31.3757 244.819 30.8555 245.151C30.3354 245.482 30.0496 245.917 29.9525 245.877C29.8553 245.837 30.0211 245.225 30.6612 244.837C31.3014 244.448 31.9529 244.574 31.9072 244.671Z" fill="#263238"/>
<path d="M34.1935 245.659C34.1935 245.762 33.7534 245.934 33.3933 246.374C33.0333 246.814 32.919 247.288 32.8218 247.276C32.7246 247.265 32.656 246.676 33.119 246.134C33.582 245.591 34.1935 245.539 34.1935 245.659Z" fill="#263238"/>
<path d="M35.4224 248.362C35.3252 248.362 35.188 247.854 35.4624 247.282C35.7367 246.711 36.2397 246.488 36.2797 246.574C36.3197 246.659 36.0168 246.968 35.7939 247.442C35.571 247.916 35.5252 248.351 35.4224 248.362Z" fill="#263238"/>
<path d="M31.7701 242.128C31.7244 242.225 31.2443 242.071 30.627 242.128C30.0097 242.185 29.5639 242.339 29.4839 242.248C29.4039 242.157 29.8783 241.791 30.5813 241.762C31.2843 241.734 31.8216 242.048 31.7701 242.128Z" fill="#263238"/>
<path d="M54.3695 144.995C54.3695 146.006 56.0099 171.611 47.6366 190.136C47.6366 190.136 44.7388 195.93 44.2072 198.461C43.6757 200.992 32.8447 242.979 32.8447 242.979L20.3276 242.522C20.3276 242.522 18.3271 221.489 20.3276 209.312C22.328 197.135 26.0431 198.564 26.0431 190.701C26.0431 182.839 24.1742 166.537 24.1742 166.537C24.1742 166.537 21.4421 162.085 20.5105 153.451C19.7503 146.44 23.0539 138.926 23.0539 138.926L26.3175 133.149L53.9294 131.704L54.3695 144.995Z" fill="#263238"/>
<path d="M54.3698 144.995C54.3698 144.995 54.3698 144.698 54.3698 144.12C54.3698 143.543 54.3355 142.686 54.3126 141.561C54.2612 139.304 54.1754 135.978 54.0725 131.681V131.618H54.004L26.392 133.024H26.3348L26.3006 133.075C25.2889 134.869 24.1744 136.829 23.0312 138.852C22.1811 140.903 21.5173 143.025 21.0479 145.195C20.5294 147.479 20.2971 149.819 20.3564 152.16C20.5303 154.605 20.9128 157.031 21.4995 159.411C22.0655 161.91 22.9551 164.325 24.1458 166.594V166.537C24.6202 170.799 25.0603 175.216 25.4318 179.765C25.6147 182.05 25.7747 184.336 25.889 186.685C25.9462 187.827 25.9919 189.027 25.9976 190.21C25.9976 190.781 25.9976 191.393 25.9633 191.981C25.9227 192.572 25.8502 193.159 25.7461 193.741C25.5122 194.914 25.0976 196.044 24.5173 197.09C23.9457 198.158 23.3742 199.215 22.8026 200.33C21.7675 202.591 21.0131 204.971 20.5564 207.415C19.5619 212.329 19.3618 217.438 19.3047 222.586C19.3047 229.38 19.6248 236.054 20.1849 242.505V242.642H20.3163L32.8335 243.099H32.9535L32.9821 242.979C36.6115 228.917 39.9951 215.775 42.9786 203.958L44.0589 199.587C44.2475 198.861 44.3675 198.141 44.5904 197.456C44.8133 196.77 45.0648 196.09 45.3277 195.427C45.865 194.101 46.4708 192.816 47.0424 191.564L47.4882 190.633C47.6465 190.329 47.7877 190.016 47.9112 189.696C48.1684 189.062 48.4256 188.439 48.6828 187.816C50.4602 183.207 51.783 178.436 52.6322 173.571C53.8563 166.639 54.4873 159.616 54.5184 152.577C54.5527 147.652 54.3526 144.978 54.3526 144.978C54.3526 144.978 54.3526 145.143 54.3526 145.469C54.3526 145.795 54.3526 146.292 54.3869 146.932C54.4212 148.217 54.4441 150.115 54.3869 152.577C54.334 159.61 53.6974 166.626 52.4836 173.554C51.6148 178.404 50.2748 183.157 48.4827 187.747L47.7168 189.616C47.5911 189.936 47.4482 190.239 47.2939 190.547C47.1395 190.856 46.9909 191.17 46.8423 191.484C46.2708 192.736 45.6649 194.021 45.1277 195.353C44.859 196.021 44.6018 196.701 44.3789 197.398C44.156 198.095 44.0246 198.833 43.8417 199.541C43.4816 200.981 43.1215 202.432 42.75 203.912C39.715 215.718 36.3371 228.86 32.7191 242.922L32.8678 242.814L20.3506 242.351L20.4992 242.488C19.9277 236.048 19.5962 229.38 19.619 222.597C19.6762 217.455 19.8762 212.369 20.865 207.489C21.3204 205.068 22.0669 202.71 23.0884 200.467C23.6028 199.364 24.2315 198.318 24.8031 197.233C25.3796 196.158 25.7882 195.002 26.0148 193.804C26.1231 193.209 26.1976 192.608 26.2377 192.004C26.2377 191.433 26.2948 190.804 26.272 190.216C26.272 189.027 26.2205 187.844 26.1634 186.673C26.0491 184.33 25.8833 182.022 25.6947 179.748C25.3137 175.176 24.8812 170.763 24.3973 166.508V166.474C23.2062 164.234 22.3127 161.848 21.7395 159.377C21.1561 157.014 20.7737 154.605 20.5964 152.177C20.5349 149.857 20.7614 147.539 21.2708 145.275C21.7314 143.127 22.3797 141.024 23.2084 138.989L26.4663 133.207L26.3749 133.264L53.9868 131.772L53.9125 131.71C54.0497 136.001 54.1526 139.326 54.2211 141.583C54.2612 142.726 54.2897 143.56 54.3126 144.143C54.3355 144.726 54.3698 144.995 54.3698 144.995Z" fill="#455A64"/>
<path d="M45.3906 92.5625C45.3906 92.5625 37.9603 91.2482 38.6519 100.808C39.0863 106.522 40.7667 116.327 41.6983 122.584C42.0184 124.75 42.7271 128.624 45.5906 130.898L66.1095 145.092L72.5853 137.349L54.2611 119.904L51.4033 102.648L45.3906 92.5625Z" fill="#455A64"/>
<path d="M46.2649 58.1068C47.4427 59.0549 48.3745 60.2728 48.9814 61.6574C49.5883 63.042 49.8524 64.5524 49.7514 66.0608C49.6371 67.5236 49.2313 69.1864 50.1858 70.3006C51.1403 71.4148 52.9693 71.3748 53.8723 72.5062C54.9297 73.8433 54.0438 75.8318 54.4439 77.4946C54.6478 78.2713 55.1215 78.9501 55.7801 79.4097C56.4388 79.8692 57.2394 80.0796 58.039 80.0031C56.1632 81.5376 53.901 82.5261 51.5004 82.8601L49.6257 80.523C50.323 81.3459 50.1344 82.6544 49.4656 83.4944C48.7392 84.2762 47.8024 84.8317 46.7679 85.0943C44.3056 85.8516 41.7017 86.0306 39.1589 85.6173C36.616 85.204 34.203 84.2096 32.1074 82.7115" fill="#263238"/>
<path d="M18.8128 71.0034C19.1786 69.8606 19.7959 68.8492 20.0417 67.7007C20.5675 65.2265 19.3615 62.438 20.5618 60.2095C21.4191 58.6267 23.2367 57.8496 24.9628 57.3182C26.6889 56.7868 28.5293 56.3411 29.8153 55.0783C30.7527 54.1526 31.2899 52.8727 32.2273 51.947C33.5647 50.6213 35.5423 50.1699 37.417 50.0556C39.3528 49.8686 41.3041 50.1855 43.0812 50.9756C43.9636 51.3781 44.7389 51.9824 45.3446 52.7398C45.9502 53.4971 46.3692 54.3863 46.5677 55.3354C46.7163 56.2611 46.602 57.2382 46.8992 58.1353C47.2192 59.1181 47.9908 59.8838 48.4709 60.8038C48.9518 61.7918 49.0909 62.9114 48.8664 63.987C48.642 65.0625 48.0666 66.0331 47.2307 66.7464L33.982 83.8543C31.1985 84.9057 24.4541 83.6372 22.305 81.5687C20.156 79.5002 17.8926 73.8318 18.8128 71.0034Z" fill="#263238"/>
<path d="M46.8825 64.575C46.3109 60.6894 43.3788 56.101 39.5208 56.8095L27.6096 60.8094C26.4664 61.0265 27.2781 62.9407 27.3924 64.1235L29.9815 90.9796C29.9815 90.9796 28.3697 92.1224 27.7982 91.9053C27.7656 91.8939 27.7303 91.893 27.6972 91.9026C27.6641 91.9122 27.6348 91.9319 27.6135 91.9589C27.5921 91.986 27.5797 92.019 27.5779 92.0534C27.5762 92.0879 27.5853 92.122 27.6038 92.151C29.0499 94.2366 35.7885 103.305 42.7673 100.522C44.3219 99.8993 42.6015 95.0023 42.7673 93.191L42.5615 88.5569C42.4072 86.1912 42.3329 85.2198 42.3329 85.2427C42.3329 85.2656 47.2597 84.0313 47.7913 77.443C48.0599 74.1803 47.4883 68.8891 46.8825 64.575Z" fill="#FFBF9D"/>
<path d="M46.0537 70.552C46.0714 70.7695 46.0038 70.9853 45.8651 71.1538C45.7264 71.3223 45.5276 71.4303 45.3107 71.4548C45.205 71.4717 45.097 71.4673 44.9931 71.4418C44.8892 71.4163 44.7914 71.3703 44.7056 71.3063C44.6198 71.2424 44.5477 71.1619 44.4936 71.0696C44.4395 70.9774 44.4044 70.8752 44.3905 70.7691C44.3728 70.5516 44.4404 70.3357 44.5791 70.1672C44.7178 69.9987 44.9166 69.8908 45.1335 69.8663C45.2391 69.8493 45.3471 69.8537 45.4511 69.8792C45.555 69.9047 45.6527 69.9508 45.7385 70.0147C45.8243 70.0786 45.8964 70.1591 45.9506 70.2514C46.0047 70.3437 46.0398 70.4459 46.0537 70.552Z" fill="#263238"/>
<path d="M37.9371 71.0605C37.9564 71.2774 37.8901 71.4933 37.7523 71.662C37.6146 71.8307 37.4163 71.9388 37.1998 71.9633C37.0943 71.9795 36.9866 71.9745 36.8829 71.9487C36.7793 71.9229 36.6819 71.8767 36.5963 71.8129C36.5106 71.7491 36.4386 71.6689 36.3842 71.577C36.3299 71.4852 36.2943 71.3834 36.2796 71.2776C36.2619 71.0601 36.3296 70.8443 36.4682 70.6758C36.6069 70.5073 36.8058 70.3993 37.0227 70.3748C37.128 70.3579 37.2356 70.3623 37.3392 70.3879C37.4428 70.4135 37.5401 70.4596 37.6255 70.5236C37.7108 70.5876 37.7824 70.6681 37.836 70.7604C37.8895 70.8526 37.9239 70.9547 37.9371 71.0605Z" fill="#263238"/>
<path d="M46.3509 67.7978C46.2595 67.952 45.4822 67.4606 44.5105 67.6035C43.5389 67.7463 42.9159 68.4092 42.7959 68.2892C42.6758 68.1692 42.7959 67.9692 43.0759 67.6663C43.4276 67.2717 43.9084 67.0152 44.4322 66.9429C44.9559 66.8707 45.4883 66.9874 45.9337 67.2721C46.2538 67.4949 46.3967 67.7292 46.3509 67.7978Z" fill="#263238"/>
<path d="M37.6232 68.5234C37.5089 68.6663 36.7487 68.112 35.7027 68.1577C34.6568 68.2034 33.9138 68.792 33.7937 68.6606C33.6737 68.5291 33.8452 68.352 34.171 68.0892C34.5986 67.7362 35.1313 67.5353 35.6856 67.5178C36.2372 67.4961 36.7802 67.6589 37.2288 67.9806C37.5546 68.2149 37.6746 68.4549 37.6232 68.5234Z" fill="#263238"/>
<path d="M40.8979 74.6774C41.3594 74.4891 41.8436 74.3623 42.3382 74.3003C42.5611 74.2603 42.7783 74.1974 42.8012 74.0374C42.8042 73.7986 42.7322 73.5648 42.5954 73.3689C42.3382 72.8318 42.0696 72.2661 41.7838 71.6547C40.6407 69.2376 39.8119 67.2491 39.9091 67.2034C40.0063 67.1577 41.0065 69.0776 42.1382 71.489C42.4125 72.089 42.6754 72.6318 42.9212 73.2032C43.0884 73.4683 43.1553 73.7845 43.1098 74.0946C43.0836 74.1782 43.0386 74.2546 42.9781 74.3181C42.9177 74.3815 42.8434 74.4301 42.7612 74.4603C42.6373 74.5027 42.5087 74.5295 42.3782 74.5403C41.892 74.6444 41.395 74.6904 40.8979 74.6774Z" fill="#263238"/>
<path d="M42.3329 85.2542C39.2722 85.5352 36.1935 84.9615 33.4395 83.5972C33.4395 83.5972 35.9829 87.997 42.4472 86.8884L42.3329 85.2542Z" fill="#FF9A6C"/>
<path d="M38.1602 77.2945C38.2621 77.0686 38.4194 76.8721 38.6174 76.7231C38.8598 76.6079 39.1349 76.5816 39.3947 76.6488C39.7808 76.7051 40.1379 76.8856 40.4121 77.163C40.5467 77.303 40.6415 77.4764 40.6867 77.6652C40.7319 77.8541 40.7259 78.0515 40.6693 78.2373C40.5664 78.6144 40.0063 78.8087 39.6234 78.8887C39.2266 78.9466 38.8222 78.8637 38.4802 78.6544C38.3315 78.5867 38.2017 78.4836 38.102 78.3541C38.0024 78.2246 37.936 78.0727 37.9087 77.9116C37.934 77.6866 38.0211 77.4731 38.1602 77.2945Z" fill="#FF9A6C"/>
<path d="M38.3434 76.0317C38.4863 76.0317 38.5663 76.9859 39.4522 77.6145C40.3381 78.243 41.3669 78.0545 41.3841 78.1859C41.4012 78.3173 41.1726 78.3916 40.7325 78.4373C40.1614 78.4896 39.5903 78.3377 39.1207 78.0087C38.6676 77.6961 38.3555 77.2179 38.2519 76.6774C38.1948 76.2831 38.2748 76.0317 38.3434 76.0317Z" fill="#263238"/>
<path d="M37.5431 65.0093C37.4688 65.255 36.5658 65.2093 35.5198 65.4207C34.4739 65.6322 33.6451 65.9921 33.4908 65.7693C33.4222 65.6721 33.5479 65.4322 33.8737 65.1693C34.3101 64.8443 34.8153 64.6237 35.3504 64.5246C35.8855 64.4256 36.4363 64.4506 36.9601 64.5979C37.3602 64.7122 37.5717 64.8893 37.5431 65.0093Z" fill="#263238"/>
<path d="M45.7964 64.5237C45.6307 64.7408 44.9105 64.5865 44.0818 64.6437C43.253 64.7008 42.5214 64.9008 42.3385 64.7008C42.2585 64.6037 42.3385 64.3865 42.6529 64.1694C43.0662 63.8971 43.547 63.7448 44.0418 63.7294C44.5334 63.694 45.025 63.7991 45.4592 64.0323C45.7564 64.2037 45.8707 64.4094 45.7964 64.5237Z" fill="#263238"/>
<path d="M24.9747 61.7466C25.5462 60.8209 26.6551 60.3466 27.6839 59.9524C32.127 58.2372 36.7588 57.0575 41.4813 56.4382C42.0528 57.4039 41.527 58.7239 40.6411 59.4267C39.7552 60.1295 38.612 60.4095 37.5547 60.8038C36.4973 61.198 35.4056 61.8152 34.9655 62.8608C34.5254 63.9065 34.8969 65.2836 34.4854 66.415C33.7824 68.3692 31.0561 68.9977 30.3759 70.9462C29.8501 72.4262 30.7074 73.9975 30.9475 75.5518C31.0572 76.3406 30.9974 77.1437 30.7721 77.9076C30.5467 78.6714 30.161 79.3784 29.6406 79.9814C29.1202 80.5844 28.4772 81.0695 27.7544 81.4043C27.0316 81.7391 26.2456 81.9159 25.4491 81.9229C25.129 76.327 24.807 70.7348 24.4831 65.1465C24.386 63.9808 24.3403 62.7237 24.9747 61.7466Z" fill="#263238"/>
<path d="M13.7034 75.8774C14.5893 75.0832 15.6981 74.3975 16.0468 73.2661C16.5612 71.6148 15.2352 69.6777 16.0925 68.1749C16.8698 66.8035 19.1618 66.8778 19.8877 65.4779C20.4592 64.3808 19.8019 63.4151 20.0134 62.4551C20.2249 61.4952 21.5966 60.6552 22.5683 60.7695L30.1928 71.8376C30.9016 75.5517 31.616 77.5517 30.8216 79.7001C30.2961 80.857 29.8993 82.068 29.6384 83.3114C29.467 84.5685 29.7927 85.9913 30.8158 86.7399C26.2434 87.0999 21.9681 84.7114 18.0129 82.3972L13.8463 79.9516C13.3902 79.7334 12.9969 79.4031 12.7032 78.9916C12.0802 77.9745 12.8232 76.666 13.7034 75.8774Z" fill="#263238"/>
<path d="M17.9155 81.2716C18.0751 81.3229 18.24 81.3555 18.4071 81.3688C18.8839 81.4143 19.365 81.3796 19.8302 81.2659C20.573 81.0881 21.2565 80.7198 21.8136 80.1974C22.5493 79.4895 23.0109 78.5443 23.1167 77.5289C23.1854 76.9401 23.1349 76.3435 22.9681 75.7747C22.7632 75.1684 22.4787 74.592 22.1222 74.0605C21.7442 73.5209 21.4494 72.9277 21.2477 72.3006C21.1406 71.9799 21.1071 71.6393 21.1496 71.304C21.1922 70.9687 21.3097 70.6472 21.4935 70.3635C21.905 69.7921 22.6766 69.6721 23.3968 69.3864C23.7857 69.2466 24.1241 68.9939 24.3684 68.6607C24.5934 68.3043 24.7032 67.8874 24.6828 67.4665C24.5839 66.6596 24.4098 65.8638 24.1627 65.0894C24.0749 64.7135 24.0749 64.3225 24.1627 63.9466C24.2633 63.5676 24.4965 63.2371 24.8199 63.0152C25.5154 62.6143 26.3034 62.4016 27.1062 62.3981C27.937 62.3706 28.7473 62.1327 29.461 61.7067C30.1555 61.2834 30.7193 60.6763 31.0899 59.9525C31.3941 59.2575 31.587 58.5189 31.6615 57.764C31.7408 57.0651 31.8901 56.3759 32.1073 55.7069C32.348 55.0985 32.7141 54.5475 33.1818 54.0898C34.0445 53.2715 35.1582 52.7682 36.3426 52.6613C37.3301 52.5769 38.3213 52.7751 39.2003 53.2327C39.8615 53.571 40.4575 54.0237 40.9607 54.5698C41.3813 55.0465 41.7456 55.5699 42.0467 56.1298C42.0467 56.1298 42.0467 56.0898 42.0067 56.0098C41.9598 55.8963 41.9063 55.7856 41.8466 55.6784C41.6284 55.2635 41.3617 54.8761 41.0522 54.5241C40.5494 53.956 39.9494 53.482 39.2804 53.1242C38.392 52.636 37.3826 52.412 36.3711 52.4785C35.1299 52.5693 33.9575 53.0838 33.0504 53.9356C32.5506 54.4182 32.1607 55.0029 31.9073 55.6498C31.6806 56.3312 31.5236 57.0338 31.4386 57.7468C31.3593 58.477 31.1664 59.1903 30.867 59.861C30.5185 60.5355 29.9929 61.1024 29.3467 61.501C28.6657 61.9003 27.8953 62.1223 27.1062 62.1467C26.2461 62.1448 25.4013 62.3737 24.6599 62.8095C24.289 63.0618 24.0212 63.439 23.9055 63.8723C23.8053 64.295 23.8053 64.7353 23.9055 65.158C24.1475 65.9178 24.3197 66.6982 24.4199 67.4893C24.4434 67.8568 24.3515 68.2224 24.1569 68.535C23.9362 68.8249 23.6365 69.0451 23.2939 69.1693C22.9567 69.3121 22.5909 69.4092 22.2365 69.5578C21.8675 69.6971 21.5421 69.9317 21.2934 70.2378C21.0916 70.5533 20.9622 70.9097 20.9148 71.2812C20.8674 71.6527 20.903 72.0302 21.0191 72.3863C21.2331 73.0335 21.5412 73.6458 21.9336 74.2033C22.2817 74.7086 22.5605 75.2582 22.7623 75.8376C22.9243 76.3779 22.9787 76.9448 22.9224 77.5061C22.8287 78.4833 22.396 79.397 21.6992 80.0888C21.1659 80.6051 20.5084 80.9751 19.7902 81.1631C19.1786 81.3227 18.5415 81.3596 17.9155 81.2716Z" fill="#455A64"/>
<path d="M11.8228 73.4032C11.748 73.5154 11.6974 73.6419 11.6741 73.7747C11.5981 74.1665 11.6672 74.5727 11.8685 74.9175C12.008 75.1636 12.2038 75.3731 12.44 75.5289C12.7345 75.7069 13.0733 75.7981 13.4174 75.7917C13.8355 75.7826 14.2431 75.6589 14.5959 75.4342C14.9486 75.2096 15.2329 74.8925 15.4179 74.5175C15.6353 74.0871 15.7469 73.6111 15.7436 73.129C15.7298 72.6108 15.6214 72.0996 15.4236 71.6205C15.0635 70.6319 14.4005 69.6662 14.389 68.512C14.3674 68.2278 14.4034 67.9422 14.4947 67.6722C14.586 67.4022 14.7309 67.1534 14.9206 66.9406C15.384 66.5581 15.9795 66.3733 16.5781 66.4264C17.2443 66.475 17.9138 66.4054 18.5557 66.2207C18.892 66.0838 19.1762 65.8437 19.3673 65.535C19.5513 65.2281 19.6663 64.885 19.7045 64.5293C19.7375 63.8469 19.6818 63.1632 19.5388 62.4951C19.4365 61.8681 19.4735 61.2262 19.6474 60.6152C19.9713 59.4487 20.7302 58.4508 21.7679 57.8267C22.7528 57.3251 23.8463 57.0739 24.9514 57.0953C25.9336 57.0975 26.9099 56.9432 27.8435 56.6382C28.6026 56.3597 29.2983 55.9323 29.8897 55.3811C30.3426 54.9628 30.7282 54.4771 31.0328 53.9412C31.3009 53.4966 31.485 53.0066 31.5758 52.4955C31.4056 52.9779 31.1933 53.4445 30.9414 53.8897C30.2213 55.0912 29.1121 56.0105 27.7978 56.4953C26.872 56.7785 25.9081 56.9173 24.94 56.9068C23.8027 56.8747 22.6752 57.1261 21.6593 57.6382C20.5681 58.2778 19.7626 59.31 19.4073 60.5238C19.2244 61.1682 19.1835 61.8447 19.2873 62.5065C19.4211 63.1527 19.4767 63.8127 19.453 64.4722C19.4395 64.7857 19.3402 65.0895 19.1658 65.3505C18.9915 65.6114 18.7488 65.8195 18.4643 65.9521C17.8535 66.1254 17.2169 66.1893 16.5838 66.1407C15.9209 66.0827 15.2618 66.288 14.7491 66.7121C14.5398 66.9504 14.3811 67.2288 14.2829 67.5304C14.1846 67.832 14.1488 68.1504 14.1776 68.4663C14.2028 69.0595 14.3446 69.642 14.5948 70.1805C14.8177 70.6948 15.0635 71.1748 15.2521 71.6547C15.4439 72.1098 15.5523 72.5956 15.5722 73.089C15.58 73.5396 15.4821 73.9858 15.2864 74.3918C15.1205 74.7421 14.8618 75.0402 14.5384 75.2538C14.2149 75.4673 13.8391 75.5882 13.4517 75.6032C13.134 75.6145 12.8193 75.5374 12.5429 75.3803C12.3063 75.2423 12.1094 75.0454 11.9714 74.8089C11.771 74.4909 11.6881 74.113 11.737 73.7404C11.7656 73.5347 11.8399 73.409 11.8228 73.4032Z" fill="#263238"/>
<path d="M59.9653 76.1289C60.1013 76.5154 60.1013 76.9366 59.9653 77.3231C59.8899 77.545 59.7654 77.747 59.6012 77.9142C59.4369 78.0814 59.2371 78.2094 59.0165 78.2888C58.7225 78.3755 58.4101 78.3786 58.1143 78.2979C57.8185 78.2172 57.5511 78.0557 57.3419 77.8317C57.1018 77.5678 56.9622 77.228 56.9475 76.8717C56.9365 76.4832 56.9966 76.0959 57.1247 75.7289C57.3647 74.9575 57.862 74.1175 57.7877 73.1061C57.7516 72.5934 57.6089 72.0937 57.3688 71.6392C57.1287 71.1846 56.7963 70.7852 56.3931 70.4662C55.9708 70.1283 55.4877 69.8742 54.9699 69.7177C54.441 69.5711 53.8955 69.4924 53.3467 69.4834C52.8148 69.479 52.2847 69.4235 51.7635 69.3177C51.2769 69.2174 50.8416 68.9482 50.5346 68.5577C50.2628 68.157 50.1102 67.6875 50.0945 67.2035C50.0691 66.732 50.1075 66.2591 50.2088 65.7979C50.4597 64.9277 50.598 64.029 50.6204 63.1237C50.5743 62.3199 50.2898 61.548 49.803 60.9066C49.3914 60.3976 48.8872 59.9711 48.317 59.6495C47.9003 59.403 47.5012 59.1281 47.1224 58.8267C46.8118 58.5608 46.5589 58.2341 46.3794 57.8667C46.3794 57.8667 46.3794 57.8667 46.3794 57.9467C46.4019 58.024 46.4326 58.0987 46.4708 58.1696C46.6134 58.4473 46.8073 58.6955 47.0424 58.901C47.4129 59.2234 47.8085 59.5158 48.2255 59.7752C48.7708 60.0995 49.2514 60.5218 49.643 61.0209C50.096 61.6358 50.3548 62.3721 50.386 63.1351C50.3521 64.02 50.2081 64.8971 49.9573 65.7464C49.8468 66.2296 49.8025 66.7256 49.8259 67.2207C49.8472 67.7539 50.0175 68.2706 50.3174 68.712C50.6582 69.1528 51.1442 69.4586 51.6892 69.5748C52.2254 69.6849 52.7708 69.7442 53.3181 69.752C53.8471 69.7589 54.3732 69.8319 54.8842 69.9691C55.3692 70.1198 55.8224 70.358 56.2216 70.6719C56.5973 70.968 56.9075 71.3387 57.1328 71.7606C57.3581 72.1825 57.4935 72.6465 57.5305 73.1233C57.6105 74.0432 57.1533 74.8375 56.9018 75.666C56.7697 76.0635 56.7116 76.4818 56.7303 76.9003C56.7552 77.2995 56.919 77.6775 57.1933 77.9688C57.428 78.2147 57.7273 78.3895 58.0568 78.4734C58.3863 78.5573 58.7327 78.5468 59.0565 78.4431C59.2931 78.3514 59.5056 78.2069 59.6779 78.0208C59.8502 77.8346 59.9779 77.6117 60.0511 77.3688C60.1547 77.071 60.1706 76.7497 60.0968 76.4431C60.0719 76.3314 60.0274 76.225 59.9653 76.1289Z" fill="#263238"/>
<path d="M54.5011 120.887V114.567C55.2099 111.019 54.8726 106.813 53.2208 103.574C52.0225 101.485 50.6979 99.4721 49.2542 97.5452L42.9671 89.3798C39.5035 91.8997 34.0794 90.0769 29.4269 88.3856C29.4269 88.3856 24.8544 90.9283 22.6939 93.3168C20.4477 95.831 28.1295 127.287 28.1295 127.287C24.6487 134.247 20.1562 140.429 19.4761 146.772L55.8271 148.172L54.2839 131.51L54.5011 120.887Z" fill="#455A64"/>
<path d="M53.9982 131.687C53.9621 131.45 53.9525 131.211 53.9697 130.972C53.9697 130.452 53.9697 129.83 53.9697 129.035C53.9983 127.321 54.0325 125.11 54.0726 122.647C54.1126 120.184 54.1869 117.893 54.2669 116.259C54.3069 115.442 54.3469 114.779 54.3812 114.322C54.3852 114.085 54.4158 113.849 54.4726 113.619C54.4958 113.854 54.4958 114.092 54.4726 114.327C54.4726 114.847 54.4726 115.47 54.4726 116.264C54.4441 117.979 54.4041 120.19 54.364 122.653C54.324 125.115 54.2555 127.407 54.1754 129.041C54.1354 129.858 54.0954 130.521 54.0554 130.978C54.0644 131.216 54.0452 131.454 53.9982 131.687Z" fill="#263238"/>
<path d="M70.602 137.435C70.602 137.435 74.1456 137.629 76.3176 139.001C78.4895 140.372 82.0331 142.509 83.4906 145.155C84.1593 146.372 82.256 146.629 81.313 145.926C80.3699 145.223 78.9353 143.886 78.2208 143.726L77.5064 143.561C78.1586 145.036 78.8855 146.478 79.684 147.88C80.4213 149.023 81.0615 150.92 78.8438 151.006C78.8438 151.006 77.3521 152.949 75.8432 151.509C75.8432 151.509 74.6658 153.274 72.7682 150.829C72.7682 150.829 71.6594 152.229 71.2021 151.692C70.7449 151.155 69.2302 150.309 68.7901 148.56C68.1298 146.525 67.3667 144.524 66.5039 142.566L70.602 137.435Z" fill="#FFBF9D"/>
<path d="M149.94 88.3284C150.334 88.3284 166.561 86.6142 166.561 86.6142C166.561 86.6142 167.938 80.0202 167.864 78.306C167.79 76.5918 166.635 65.2493 166.635 65.2493L172.711 62.3923C172.711 62.3923 180.832 89.7741 179.061 92.0483C177.289 94.3225 173.957 96.3624 173.671 96.3738C173.385 96.3853 157.947 103.231 147.208 99.6708C136.468 96.111 149.94 88.3284 149.94 88.3284Z" fill="#FFBF9D"/>
<path d="M135.72 103.111C138.109 105.482 142.224 107.453 149.094 105.739C162.674 102.345 172.854 99.4537 176.9 97.2824C180.947 95.1111 179.37 85.4086 179.713 84.9686C180.736 83.6429 179.61 80.7973 178.152 80.3516C173.997 79.0945 166.767 79.5917 166.401 79.9688C164.269 82.2087 166.212 84.9286 166.212 84.9286L148.305 87.2771C146.104 87.1739 143.898 87.3138 141.727 87.6942" fill="#455A64"/>
<path d="M141.727 87.694L142.155 87.6026C142.441 87.5512 142.864 87.4769 143.424 87.4083C145.045 87.2044 146.679 87.1356 148.311 87.2026L166.212 84.8027L166.126 85.0027C165.538 84.1378 165.249 83.1044 165.303 82.06C165.352 81.5198 165.529 80.9989 165.818 80.54C165.963 80.3095 166.128 80.0916 166.309 79.8886C166.381 79.8357 166.46 79.7933 166.544 79.7629L166.749 79.7115C166.887 79.6772 167.018 79.6658 167.15 79.6372C169.367 79.3815 171.605 79.3356 173.831 79.5001C175 79.5713 176.162 79.7317 177.306 79.9801C177.592 80.0429 177.878 80.1286 178.175 80.2029C178.48 80.3001 178.759 80.4641 178.992 80.6829C179.447 81.1146 179.793 81.647 180.004 82.2371C180.231 82.8282 180.311 83.4653 180.238 84.0942C180.186 84.4214 180.063 84.7334 179.878 85.0084C179.827 85.0656 179.832 85.2198 179.827 85.3684V85.8255C179.867 87.0541 179.924 88.3054 179.89 89.5625C179.899 91.3471 179.607 93.1204 179.027 94.808C178.728 95.6535 178.216 96.4075 177.54 96.9965C177.19 97.2701 176.806 97.4967 176.397 97.6708C176.02 97.8708 175.62 98.025 175.254 98.2079C173.688 98.8764 172.116 99.425 170.567 99.9221C169.019 100.419 167.498 100.899 165.995 101.339C160.017 103.053 154.564 104.442 150.026 105.579C148.942 105.866 147.842 106.093 146.733 106.259C145.74 106.397 144.736 106.451 143.733 106.419C142.122 106.385 140.532 106.039 139.052 105.402C138.123 104.992 137.257 104.454 136.48 103.802C136.206 103.581 135.95 103.338 135.714 103.076C135.714 103.076 135.977 103.328 136.52 103.756C137.308 104.384 138.177 104.903 139.103 105.299C140.574 105.906 142.147 106.23 143.739 106.253C144.731 106.277 145.723 106.216 146.705 106.07C147.806 105.897 148.898 105.664 149.974 105.373C154.547 104.231 159.954 102.825 165.915 101.076C167.407 100.636 168.927 100.168 170.487 99.6536C172.048 99.1393 173.597 98.5965 175.146 97.9393C175.523 97.7622 175.917 97.6079 176.289 97.4079C176.67 97.24 177.029 97.025 177.358 96.768C177.996 96.2137 178.478 95.5027 178.758 94.7052C179.321 93.0398 179.601 91.2919 179.587 89.534C179.621 88.2826 179.587 87.0426 179.524 85.8084V85.3398C179.524 85.2598 179.524 85.1798 179.524 85.0941C179.519 85.0485 179.519 85.0026 179.524 84.957C179.537 84.9217 179.552 84.8873 179.569 84.8541L179.598 84.8084C179.759 84.5742 179.864 84.3065 179.907 84.0256C179.974 83.4446 179.897 82.856 179.684 82.3114C179.492 81.7657 179.175 81.2725 178.758 80.8714C178.555 80.6817 178.313 80.5392 178.049 80.4543C177.763 80.38 177.478 80.3 177.198 80.2315C176.068 79.9867 174.922 79.8281 173.768 79.7572C171.565 79.5888 169.351 79.6309 167.155 79.8829C167.024 79.8829 166.892 79.9172 166.767 79.9515L166.584 79.9915C166.544 80.007 166.506 80.0262 166.469 80.0486C166.297 80.2362 166.142 80.439 166.006 80.6543C165.734 81.0747 165.569 81.5554 165.526 82.0542C165.477 83.0363 165.745 84.0082 166.292 84.8256L166.407 85.0027H166.206L148.294 87.2883C146.671 87.206 145.045 87.2519 143.43 87.4255C142.858 87.4826 142.441 87.5455 142.155 87.5855C141.87 87.6255 141.727 87.694 141.727 87.694Z" fill="#263238"/>
<path d="M93.2428 106.304L85.9489 93.2026L223.906 16.4369C225.496 15.5525 227.371 15.3355 229.121 15.8337C230.87 16.3319 232.35 17.5045 233.235 19.0935L233.86 20.2169C234.745 21.8059 234.962 23.6812 234.464 25.4302C233.965 27.1791 232.792 28.6586 231.203 29.543L93.2456 106.309L93.2428 106.304Z" fill="#5A9BFF"/>
<path d="M208.927 37.0174L192.035 6.67622C191.953 6.52936 191.901 6.36782 191.881 6.20085C191.862 6.03388 191.876 5.86474 191.922 5.70308C191.968 5.54143 192.045 5.39043 192.15 5.2587C192.254 5.12698 192.384 5.01711 192.531 4.93536L200.281 0.622433C200.428 0.540687 200.59 0.488663 200.757 0.469344C200.924 0.450025 201.093 0.46378 201.255 0.509826C201.417 0.555875 201.568 0.633317 201.699 0.737723C201.831 0.842129 201.941 0.971456 202.023 1.11832L218.915 31.4595L208.927 37.0174Z" fill="#5A9BFF"/>
<path d="M175.696 22.8889L188.007 45.0019C188.504 45.8954 189.632 46.2165 190.526 45.7192L197.278 41.9621C198.171 41.4648 198.493 40.3375 197.995 39.444L185.684 17.331C185.187 16.4376 184.059 16.1164 183.165 16.6137L176.413 20.3708C175.52 20.8681 175.198 21.9955 175.696 22.8889Z" fill="#5A9BFF"/>
<path d="M186.566 21.5975L194.188 35.2877L209.699 26.6563L202.077 12.9661L186.566 21.5975Z" fill="#5A9BFF"/>
<path d="M221.888 17.5883C221.928 17.6569 194.853 32.7991 161.428 51.4041C128.004 70.0091 100.843 85.037 100.843 84.9628C100.843 84.8885 127.872 69.7519 161.308 51.1412C194.744 32.5306 221.848 17.514 221.888 17.5883Z" fill="#263238"/>
<path d="M37.3716 131.612C47.5453 149.897 68.9958 157.326 85.2852 148.269C101.575 139.212 106.547 117.042 96.3735 98.7795C86.1997 80.5173 64.7549 73.0662 48.4598 82.123C32.1647 91.1798 27.2035 113.35 37.3716 131.612ZM87.5486 103.694C94.6759 116.493 91.1951 132.018 79.7754 138.366C68.3557 144.715 53.3295 139.509 46.2021 126.698C39.0748 113.887 42.5556 98.3738 53.9696 92.0197C65.3836 85.6657 80.4213 90.8941 87.5486 103.694Z" fill="#5A9BFF"/>
<path d="M109.172 80.1223L116.699 93.6428C117.7 95.4407 119.97 96.0869 121.768 95.0862L122.377 94.7472C124.175 93.7465 124.822 91.4779 123.821 89.68L116.294 76.1596C115.293 74.3617 113.023 73.7155 111.225 74.7161L110.616 75.0552C108.817 76.0558 108.171 78.3245 109.172 80.1223Z" fill="#5A9BFF"/>
<path d="M123.628 72.0776L131.155 85.5981C132.156 87.3959 134.426 88.0422 136.224 87.0415L136.833 86.7025C138.632 85.7018 139.278 83.4332 138.277 81.6353L130.75 68.1149C129.749 66.317 127.479 65.6708 125.681 66.6714L125.072 67.0105C123.274 68.0111 122.627 70.2798 123.628 72.0776Z" fill="#5A9BFF"/>
<path d="M116.132 75.9517C116.207 75.9117 117.95 78.9801 120.036 82.8086C122.122 86.637 123.751 89.7568 123.677 89.7968C123.603 89.8368 121.859 86.7741 119.773 82.94C117.687 79.1058 116.058 75.9517 116.132 75.9517Z" fill="#263238"/>
<path d="M109.496 80.6659C109.571 80.6259 111.274 83.5572 113.309 87.2027C115.343 90.8483 116.926 93.8482 116.858 93.8882C116.789 93.9282 115.08 90.9969 113.068 87.3799C111.057 83.7629 109.428 80.7059 109.496 80.6659Z" fill="#263238"/>
<path d="M130.678 67.992C130.753 67.952 132.53 71.0033 134.651 74.8088C136.771 78.6144 138.429 81.74 138.354 81.78C138.28 81.82 136.508 78.763 134.388 74.9574C132.267 71.1518 130.61 68.032 130.678 67.992Z" fill="#263238"/>
<path d="M123.7 72.2032C123.768 72.1632 125.512 75.1974 127.581 78.9801C129.65 82.7628 131.279 85.837 131.204 85.8998C131.13 85.9627 129.398 82.9057 127.323 79.123C125.249 75.3402 123.625 72.2432 123.7 72.2032Z" fill="#263238"/>
<path d="M165.155 51.5926C165.82 51.6709 166.491 51.4988 167.037 51.1098C167.582 50.7208 167.964 50.1428 168.106 49.4882C168.249 48.8336 168.143 48.1494 167.809 47.5687C167.474 46.9881 166.936 46.5526 166.298 46.3471C166.71 45.9251 166.979 45.3841 167.067 44.8008C167.155 44.2174 167.057 43.6213 166.787 43.0968C166.517 42.5722 166.089 42.1459 165.563 41.878C165.037 41.6102 164.441 41.5145 163.857 41.6044C163.833 41.0242 163.66 40.4601 163.353 39.967C163.047 39.4738 162.618 39.0683 162.108 38.7899C161.598 38.5115 161.025 38.3697 160.444 38.3783C159.863 38.3869 159.295 38.5455 158.793 38.8388C158.14 38.3045 157.326 38.0042 156.482 37.9855C155.638 37.9669 154.812 38.2311 154.135 38.736C153.567 38.6275 152.978 38.705 152.458 38.9571C151.937 39.2092 151.511 39.6225 151.243 40.1355C150.976 40.6486 150.881 41.2342 150.972 41.8055C151.064 42.3769 151.337 42.9034 151.752 43.3072" fill="#263238"/>
<path d="M153.558 41.3988H154.13C157.011 41.4013 159.787 42.4886 161.903 44.4443C164.019 46.4 165.321 49.0807 165.549 51.9527C165.978 57.4896 166.378 63.6094 166.332 66.5807C166.224 72.7519 160.085 73.6661 160.085 73.6661L160.582 81.0601L145.648 80.5744L144.407 53.7755C143.881 47.3815 147.157 41.7531 153.558 41.3988Z" fill="#FFBF9D"/>
<path d="M160.136 73.6661C157.279 73.6583 154.484 72.8314 152.083 71.2834C152.083 71.2834 154.061 75.9403 160.199 75.4032L160.136 73.6661Z" fill="#FF9A6C"/>
<path d="M162.171 57.7525C162.173 57.9815 162.084 58.2019 161.925 58.3664C161.766 58.531 161.549 58.6265 161.32 58.6325C161.208 58.6402 161.096 58.6258 160.99 58.59C160.884 58.5541 160.786 58.4977 160.702 58.4238C160.618 58.3499 160.55 58.2601 160.501 58.1596C160.452 58.0591 160.423 57.9499 160.417 57.8382C160.416 57.6092 160.505 57.3889 160.664 57.2238C160.823 57.0586 161.039 56.9614 161.268 56.9526C161.38 56.9448 161.493 56.9595 161.599 56.9956C161.705 57.0318 161.803 57.0888 161.887 57.1633C161.971 57.2377 162.04 57.3282 162.089 57.4294C162.137 57.5305 162.165 57.6404 162.171 57.7525Z" fill="#263238"/>
<path d="M164.217 54.9754C164.109 55.0897 163.44 54.5983 162.503 54.5983C161.565 54.5983 160.862 55.0668 160.76 54.9525C160.657 54.8383 160.822 54.6954 161.125 54.4726C161.535 54.1909 162.023 54.0432 162.52 54.0497C163.011 54.0477 163.49 54.2039 163.886 54.4954C164.172 54.7183 164.269 54.9297 164.217 54.9754Z" fill="#263238"/>
<path d="M153.649 57.341C153.654 57.5734 153.566 57.7982 153.405 57.9663C153.245 58.1344 153.024 58.2321 152.792 58.2381C152.68 58.2458 152.568 58.2314 152.462 58.1955C152.356 58.1597 152.258 58.1032 152.174 58.0294C152.09 57.9555 152.022 57.8657 151.973 57.7652C151.924 57.6647 151.895 57.5555 151.889 57.4438C151.887 57.2143 151.975 56.9933 152.134 56.8278C152.293 56.6624 152.511 56.5656 152.74 56.5581C152.851 56.5496 152.963 56.5631 153.069 56.5978C153.175 56.6326 153.273 56.6879 153.357 56.7607C153.442 56.8334 153.511 56.9221 153.561 57.0217C153.611 57.1213 153.641 57.2298 153.649 57.341Z" fill="#263238"/>
<path d="M154.924 55.1239C154.815 55.2382 154.147 54.7468 153.209 54.7468C152.272 54.7468 151.569 55.2153 151.466 55.101C151.363 54.9867 151.529 54.8439 151.832 54.621C152.242 54.3394 152.729 54.1916 153.226 54.1982C153.718 54.1961 154.197 54.3524 154.593 54.6439C154.878 54.8668 154.975 55.0725 154.924 55.1239Z" fill="#263238"/>
<path d="M158.331 62.1467C158.829 61.9899 159.346 61.8977 159.868 61.8724C160.108 61.8724 160.337 61.8038 160.382 61.6381C160.403 61.3893 160.347 61.1403 160.222 60.9238L159.514 59.0839C158.531 56.4612 157.799 54.307 157.925 54.2727C158.05 54.2384 158.914 56.324 159.897 58.9411C160.131 59.5868 160.36 60.2039 160.577 60.7924C160.725 61.0853 160.767 61.4204 160.697 61.741C160.661 61.8256 160.606 61.901 160.537 61.9614C160.468 62.0217 160.385 62.0656 160.297 62.0895C160.165 62.1286 160.028 62.1479 159.891 62.1467C159.373 62.2114 158.849 62.2114 158.331 62.1467Z" fill="#263238"/>
<path d="M155.753 51.4898C155.627 51.7298 154.821 51.4898 153.821 51.4327C152.821 51.3756 151.986 51.5641 151.895 51.3127C151.855 51.1927 152.032 50.9813 152.392 50.787C152.856 50.5576 153.372 50.4513 153.889 50.4784C154.402 50.4966 154.901 50.6504 155.336 50.9241C155.661 51.147 155.81 51.3813 155.753 51.4898Z" fill="#263238"/>
<path d="M164.274 51.0841C164.074 51.2955 163.291 51.0841 162.354 51.0841C161.417 51.0841 160.639 51.2269 160.439 50.9983C160.359 50.8898 160.485 50.6726 160.834 50.4727C161.314 50.221 161.852 50.1007 162.394 50.1241C162.933 50.1313 163.46 50.2833 163.92 50.5641C164.252 50.7584 164.36 50.9755 164.274 51.0841Z" fill="#263238"/>
<path d="M164.966 49.1528C164.966 49.1528 163.354 45.2958 161.497 44.393C159.25 43.2959 158.279 45.7586 156.135 45.1529C153.992 44.5473 151.849 43.5016 149.654 45.1529C147.253 46.9586 148.374 48.2328 148.214 50.9641C147.585 62.0266 145.55 65.1464 144.996 59.9352C144.933 59.3638 143.35 58.9067 143.121 56.5068C142.824 53.3812 142.715 49.5813 143.424 47.3643C143.995 45.4958 145.087 44.2044 147.002 42.793C150.031 40.5531 154.181 40.5074 156.998 40.8103C159.816 41.1131 165.235 44.3301 164.966 49.1528Z" fill="#263238"/>
<path d="M145.384 59.7637C145.378 59.538 145.326 59.3159 145.231 59.1108C145.137 58.9058 145.001 58.7221 144.833 58.5709C144.666 58.4198 144.469 58.3042 144.255 58.2313C144.041 58.1583 143.815 58.1295 143.59 58.1466C142.447 58.2552 141.161 58.9009 141.229 61.2722C141.349 65.4778 145.55 64.4892 145.556 64.3635C145.562 64.2378 145.453 61.5236 145.384 59.7637Z" fill="#FFBF9D"/>
<path d="M144.59 62.8095C144.59 62.8095 144.522 62.8666 144.396 62.9238C144.225 63.0021 144.031 63.0123 143.853 62.9523C143.575 62.7882 143.347 62.5527 143.191 62.2703C143.035 61.9879 142.958 61.669 142.967 61.3467C142.945 60.9878 143.004 60.6286 143.138 60.2953C143.175 60.1635 143.243 60.0426 143.336 59.9431C143.43 59.8435 143.546 59.7683 143.676 59.7239C143.759 59.6984 143.85 59.7033 143.93 59.7378C144.011 59.7723 144.076 59.8342 144.116 59.9124C144.173 60.0267 144.15 60.1124 144.173 60.1181C144.196 60.1239 144.259 60.0439 144.219 59.8724C144.196 59.7682 144.135 59.6763 144.047 59.6153C143.989 59.5729 143.924 59.5424 143.854 59.5257C143.784 59.5091 143.712 59.5065 143.641 59.5182C143.469 59.5569 143.31 59.6393 143.179 59.7574C143.048 59.8755 142.949 60.0253 142.893 60.1924C142.723 60.5605 142.646 60.9648 142.67 61.3695C142.721 62.2152 143.178 62.998 143.813 63.158C143.926 63.1879 144.045 63.1915 144.159 63.1688C144.274 63.146 144.383 63.0974 144.476 63.0266C144.59 62.9123 144.607 62.8095 144.59 62.8095Z" fill="#FF9A6C"/>
<path d="M145.493 51.6157C146.008 52.035 146.619 52.3197 147.271 52.4442C147.598 52.4955 147.933 52.4266 148.214 52.2501C148.494 52.0736 148.701 51.8016 148.797 51.4842C148.848 51.1928 148.797 50.85 148.968 50.6271C149.14 50.4043 149.626 50.4443 149.974 50.4843C151.197 50.6157 152.632 49.2672 152.946 48.0787C153.105 48.3066 153.345 48.4654 153.617 48.5227C153.889 48.5801 154.172 48.5316 154.41 48.3872C154.798 48.1497 155.143 47.8461 155.427 47.4901C155.593 47.2634 155.811 47.0801 156.062 46.9557C156.314 46.8314 156.592 46.7697 156.873 46.7759C157.169 46.8781 157.476 46.9452 157.787 46.9758C158.359 46.9301 158.61 46.2844 158.696 45.7359C158.782 45.1873 158.851 44.5531 159.319 44.256C159.8 44.0675 160.332 44.0534 160.822 44.216C161.331 44.296 161.966 44.176 162.12 43.6788C162.141 43.546 162.135 43.4103 162.103 43.2797C162.07 43.1492 162.012 43.0265 161.931 42.9189C161.591 42.4092 161.089 42.0292 160.506 41.8405C159.923 41.6517 159.293 41.6653 158.719 41.8789C158.517 41.1757 158.11 40.5485 157.55 40.0774C156.99 39.6063 156.302 39.3125 155.574 39.2334C154.847 39.1544 154.112 39.2936 153.464 39.6335C152.816 39.9734 152.283 40.4984 151.935 41.1418C151.49 40.7342 150.952 40.4403 150.369 40.2851C149.786 40.1299 149.174 40.118 148.585 40.2505C147.996 40.3829 147.448 40.6558 146.987 41.0458C146.526 41.4358 146.167 41.9314 145.939 42.4903C145.425 42.3531 144.881 42.3702 144.376 42.5395C143.871 42.7088 143.427 43.0227 143.1 43.4424C142.772 43.862 142.575 44.3687 142.533 44.8994C142.491 45.4302 142.606 45.9615 142.864 46.4273C142.472 46.6207 142.136 46.9104 141.887 47.2692C141.639 47.628 141.485 48.0442 141.441 48.4786C141.441 49.3472 142.27 50.1929 143.11 49.9872C142.936 50.3294 142.899 50.7254 143.008 51.0937C143.116 51.4621 143.362 51.7749 143.694 51.9679C144.026 52.161 144.419 52.2196 144.793 52.1318C145.167 52.044 145.493 51.8163 145.705 51.4957" fill="#263238"/>
<path d="M159.028 43.113C159.028 43.113 159.028 43.113 159.028 43.193C159.028 43.273 159.028 43.3187 158.999 43.4158C158.94 43.701 158.836 43.9749 158.69 44.2272C158.458 44.6226 158.14 44.9605 157.759 45.2157C157.255 45.5592 156.653 45.7297 156.044 45.7014L156.113 45.61C156.236 45.9873 156.205 46.3982 156.027 46.7528C155.838 47.1288 155.595 47.4752 155.307 47.7813C155.167 47.9598 155.008 48.1227 154.832 48.267C154.521 48.4715 154.148 48.5591 153.779 48.5141C153.409 48.4691 153.068 48.2945 152.815 48.0213L152.969 47.9756C152.91 48.4123 152.76 48.8317 152.529 49.2067C152.297 49.5817 151.99 49.904 151.626 50.1527C151.226 50.4497 150.741 50.6082 150.243 50.6041C149.776 50.5786 149.316 50.4763 148.882 50.3012L148.997 50.2498C148.777 50.7587 148.433 51.2045 147.997 51.5469C147.797 51.7174 147.563 51.8413 147.31 51.9095C147.056 51.9777 146.791 51.9885 146.533 51.9412C146.091 51.8451 145.687 51.6218 145.37 51.299C145.053 50.9762 144.838 50.5678 144.75 50.1241L144.847 50.1698C144.402 50.4001 143.893 50.4726 143.401 50.3755C143.035 50.3057 142.691 50.1511 142.395 49.9241C142.212 49.78 142.053 49.6062 141.927 49.4099C141.88 49.3417 141.846 49.2664 141.824 49.187C141.983 49.4498 142.191 49.6804 142.435 49.867C142.727 50.0776 143.063 50.2166 143.418 50.2727C143.885 50.361 144.368 50.2843 144.784 50.0555L144.864 50.0098V50.1013C144.951 50.5142 145.156 50.893 145.454 51.1914C145.753 51.4897 146.132 51.6947 146.545 51.7812C146.78 51.8223 147.022 51.8103 147.253 51.7461C147.483 51.6818 147.696 51.5669 147.877 51.4098C148.286 51.0843 148.608 50.6621 148.814 50.1813L148.848 50.107H148.928C149.342 50.2733 149.78 50.3699 150.226 50.3927C150.686 50.3964 151.136 50.25 151.506 49.9755C151.848 49.7405 152.138 49.4367 152.357 49.0835C152.575 48.7303 152.717 48.3355 152.775 47.9242V47.7242L152.906 47.8785C153.055 48.0426 153.241 48.168 153.45 48.2437C153.658 48.3194 153.881 48.3431 154.101 48.3128C154.306 48.2855 154.501 48.2111 154.672 48.0956C154.838 47.9626 154.987 47.8112 155.118 47.6442C155.401 47.3527 155.64 47.0216 155.827 46.6614C155.911 46.501 155.963 46.3254 155.978 46.1449C155.994 45.9644 155.974 45.7826 155.918 45.61L155.884 45.5072H155.993C156.576 45.5434 157.156 45.389 157.644 45.0672C158.019 44.8257 158.336 44.5036 158.57 44.1244C158.781 43.8169 158.936 43.4745 159.028 43.113Z" fill="#455A64"/>
<path d="M158.319 65.2836C158.285 65.1293 157.262 65.3807 156.313 64.6836C155.364 63.9865 155.21 62.8665 155.067 62.8951C154.924 62.9237 154.924 63.1922 155.027 63.6551C155.168 64.2589 155.518 64.7934 156.016 65.1636C156.491 65.5177 157.085 65.6734 157.673 65.5978C158.113 65.5293 158.342 65.3521 158.319 65.2836Z" fill="#263238"/>
<path d="M190.018 225.157L194.076 238.98C194.076 238.98 209.508 239.494 210.497 241.979L183.942 250.802L176.729 229.517L190.018 225.157Z" fill="#455A64"/>
<path d="M185.491 240.562C185.262 240.725 185.101 240.967 185.039 241.241C184.976 241.515 185.017 241.802 185.154 242.048C185.307 242.283 185.545 242.45 185.819 242.515C186.092 242.58 186.38 242.537 186.623 242.397C186.866 242.223 187.036 241.966 187.1 241.675C187.165 241.384 187.119 241.079 186.971 240.819C186.785 240.59 186.517 240.442 186.224 240.406C185.932 240.37 185.636 240.448 185.399 240.625" fill="#E0E0E0"/>
<path d="M208.999 240.979C208.999 240.979 210.354 241.099 210.496 241.979L183.942 250.802L183.302 248.625L208.976 240.968" fill="#263238"/>
<path d="M194.458 238.7C194.498 238.831 193.887 239.105 193.372 239.734C192.858 240.362 192.715 241.02 192.578 241.008C192.441 240.997 192.389 240.185 193.007 239.437C193.624 238.688 194.447 238.574 194.458 238.7Z" fill="white"/>
<path d="M197.625 238.922C197.699 239.042 197.213 239.448 196.951 240.139C196.688 240.831 196.762 241.459 196.63 241.494C196.499 241.528 196.173 240.825 196.51 239.968C196.848 239.111 197.585 238.802 197.625 238.922Z" fill="white"/>
<path d="M200.317 241.728C200.208 241.797 199.814 241.208 199.911 240.391C200.008 239.574 200.517 239.082 200.609 239.174C200.7 239.265 200.449 239.745 200.38 240.442C200.311 241.14 200.443 241.659 200.317 241.728Z" fill="white"/>
<path d="M193.184 235.654C193.184 235.791 192.515 235.808 191.801 236.1C191.086 236.391 190.589 236.814 190.486 236.728C190.383 236.643 190.778 235.997 191.629 235.66C192.481 235.323 193.218 235.528 193.184 235.654Z" fill="white"/>
<path d="M128.095 225.277L122.316 238.477C122.316 238.477 133.799 248.762 132.97 251.322L106.964 241.037L115.12 220.1L128.095 225.277Z" fill="#455A64"/>
<path d="M114.72 234.174C114.441 234.152 114.163 234.234 113.939 234.403C113.716 234.573 113.562 234.819 113.509 235.094C113.477 235.373 113.552 235.653 113.72 235.879C113.888 236.104 114.135 236.256 114.412 236.305C114.709 236.327 115.003 236.239 115.239 236.058C115.476 235.877 115.637 235.615 115.692 235.323C115.692 234.751 115.172 234.1 114.612 234.18" fill="#E0E0E0"/>
<path d="M132.462 249.596C132.462 249.596 133.422 250.562 132.97 251.31L106.964 241.025L107.873 238.951L132.45 249.579" fill="#263238"/>
<path d="M122.785 238.511C122.733 238.637 122.076 238.442 121.287 238.602C120.499 238.762 119.956 239.174 119.859 239.071C119.761 238.968 120.241 238.317 121.196 238.14C122.15 237.962 122.865 238.402 122.785 238.511Z" fill="white"/>
<path d="M125.071 240.717C125.071 240.848 124.42 240.848 123.774 241.214C123.128 241.579 122.785 242.099 122.631 242.048C122.476 241.997 122.711 241.242 123.516 240.802C124.322 240.362 125.117 240.597 125.071 240.717Z" fill="white"/>
<path d="M125.334 244.591C125.208 244.591 125.283 243.871 125.906 243.305C126.529 242.74 127.209 242.694 127.22 242.819C127.232 242.945 126.717 243.174 126.231 243.648C125.746 244.122 125.466 244.631 125.334 244.591Z" fill="white"/>
<path d="M123.774 235.374C123.677 235.465 123.162 235.065 122.425 234.803C121.688 234.54 121.042 234.574 121.019 234.443C120.996 234.311 121.711 234.065 122.574 234.351C123.437 234.637 123.877 235.283 123.774 235.374Z" fill="white"/>
<path d="M137.828 152.766L128.718 189.713C128.718 189.713 112.285 217.369 109.502 231.208L124.534 237.117C124.534 237.117 135.468 210.461 138.674 205.569C140.117 203.377 141.775 201.335 143.624 199.473C144.826 198.28 145.688 196.789 146.122 195.153L153.02 168.794L137.828 152.766Z" fill="#263238"/>
<path d="M133.948 146.857C133.948 146.857 135.217 156.754 144.744 161.143L164.818 193.827C164.818 193.827 166.389 204.455 169.39 213.409C172.391 222.363 178.455 239.62 178.455 239.62L194.967 233.448L184.445 197.484L182.73 185.01L166.349 143.298L152.278 134.864L133.948 146.857Z" fill="#263238"/>
<path d="M133.948 146.858L134.251 146.652L135.159 146.046L138.726 143.692L152.249 134.807L152.295 134.778L152.34 134.807L166.424 143.223V143.258L182.839 184.93V184.959C183.382 188.902 183.982 193.124 184.553 197.433C187.411 207.147 190.441 217.54 193.573 228.249C194.079 229.974 194.582 231.688 195.082 233.391L195.122 233.523L194.99 233.568L178.478 239.74L178.335 239.791L178.289 239.648C175.431 231.357 172.665 223.375 170.053 215.803C169.396 213.912 168.75 212.038 168.213 210.164C167.675 208.289 167.19 206.427 166.749 204.587C165.881 200.907 165.183 197.313 164.635 193.827V193.873L144.676 161.177L144.71 161.206C142.296 160.077 140.152 158.444 138.423 156.417C137.156 154.929 136.115 153.262 135.337 151.469C134.855 150.362 134.472 149.215 134.194 148.04C134.096 147.652 134.039 147.349 134.005 147.143C133.971 146.938 133.965 146.835 133.965 146.835C133.965 146.835 133.965 146.938 134.028 147.138C134.091 147.338 134.125 147.64 134.234 148.035C134.529 149.194 134.922 150.326 135.411 151.417C136.2 153.192 137.243 154.842 138.509 156.314C140.244 158.32 142.388 159.933 144.796 161.046L164.909 193.707V193.736C165.481 197.21 166.166 200.798 167.035 204.472C167.475 206.307 167.955 208.164 168.498 210.032C169.041 211.901 169.682 213.763 170.339 215.655C172.962 223.226 175.723 231.208 178.592 239.494L178.404 239.408L194.916 233.237L194.824 233.414C194.329 231.711 193.826 229.997 193.315 228.271L184.308 197.45C183.736 193.141 183.13 188.919 182.593 184.976V185.01L166.241 143.298L166.286 143.349L152.226 134.898H152.312L138.789 143.743L135.188 146.063L134.262 146.663L133.948 146.858Z" fill="#455A64"/>
<path d="M142.789 76.2488C142.789 76.2488 137.977 79.9515 135.639 84.0885C132.839 89.0426 132.536 96.3851 132.45 107.79C132.364 118.339 133.942 121.27 133.336 125.247C132.141 133.012 131.255 159.074 131.255 159.074C131.255 159.074 146.687 153.149 149.682 150.503L152.694 147.886L172.007 154.269L168.109 130.544L165.435 100.974L162.005 85.2884L161.434 79.1344L144.847 72.4718L142.789 76.2488Z" fill="#455A64"/>
<path d="M160.811 78.8088C161.011 78.8488 160.337 80.2031 159.148 82.1916L159.096 82.2716L159.005 82.2373C157.33 81.5859 155.113 80.7688 152.689 79.8831C149.957 78.8888 147.488 77.9632 145.722 77.2432C144.836 76.8832 144.127 76.5804 143.641 76.3575C143.383 76.2578 143.135 76.1354 142.898 75.9918C143.17 76.0523 143.434 76.1404 143.687 76.2547L145.796 77.0489L152.792 79.6031C155.216 80.4888 157.427 81.3173 159.079 82.0259L158.942 82.0716C160.188 80.1231 160.925 78.8374 160.811 78.8088Z" fill="#263238"/>
<path d="M180.77 66.4892C180.77 66.4892 179.547 64.5864 178.392 62.8322C177.237 61.0779 175.488 60.2151 175.208 59.3009C174.928 58.3866 173.391 54.3125 173.145 53.3011C172.931 52.3216 172.832 51.3207 172.848 50.3184C172.848 50.3184 174.111 49.7813 174.717 51.5869C175.083 52.6726 176.249 56.3581 176.5 56.541C176.752 56.7238 177.072 56.4553 177.072 56.4553C176.553 55.0753 176.104 53.6697 175.729 52.244C175.671 51.5755 175.906 47.1414 175.906 47.1414C176.219 47.0782 176.545 47.1294 176.824 47.2855C177.103 47.4417 177.316 47.6926 177.426 47.9928C178.026 49.1356 178.049 51.9926 178.049 51.9926L178.958 55.181L178.638 52.0269L179.095 46.2271C179.539 46.2904 179.953 46.4889 180.28 46.7956C180.607 47.1023 180.832 47.5024 180.924 47.9413C181.307 49.507 180.798 51.6897 181.055 52.1526C181.313 52.6154 181.593 55.4153 181.593 55.4153C181.593 55.4153 181.907 48.6156 182.633 48.4213C183.359 48.227 183.953 48.947 183.85 50.3184C183.747 51.6897 183.719 54.5925 184.096 55.8724C184.473 57.1524 188.343 62.1579 188.028 64.3521C187.836 65.6778 187.716 67.0131 187.668 68.3519H181.038L180.77 66.4892Z" fill="#FFBF9D"/>
<path d="M157.513 83.6144C157.885 83.7572 173.722 87.6771 173.722 87.6771C173.722 87.6771 177.26 81.963 177.781 80.3059C178.301 78.6488 181.084 67.6093 181.084 67.6093L187.777 66.9807C187.777 66.9807 186.062 95.4882 183.639 97.0253C181.216 98.5623 177.352 99.3395 177.1 99.2537C176.849 99.168 159.982 100.339 151.095 93.3397C142.207 86.34 157.513 83.6144 157.513 83.6144Z" fill="#FFBF9D"/>
<g opacity="0.3">
<path d="M146.162 98.7052C147.862 100.629 150.13 101.962 152.638 102.511C156.838 103.436 165.783 105.076 165.783 105.076L165.349 100.688L145.916 98.6081" fill="black"/>
</g>
<path d="M139.109 92.6711C140.549 95.711 143.75 98.9566 150.786 99.6937C164.715 101.134 175.26 101.899 179.815 101.214C184.371 100.528 186.182 90.8883 186.674 90.5912C188.091 89.6998 188 86.637 186.777 85.7228C183.302 83.1229 176.334 81.1515 175.866 81.363C173.094 82.74 173.997 85.9628 173.997 85.9628L156.336 82.0658C154.301 81.2199 152.179 80.6028 150.008 80.2259" fill="#455A64"/>
<path d="M150.009 80.2258C150.009 80.2258 150.157 80.2258 150.443 80.2829C150.729 80.3401 151.157 80.4087 151.706 80.5286C153.299 80.8899 154.859 81.383 156.37 82.0029L174.02 85.8427L173.871 86.0027C173.61 84.9901 173.69 83.9195 174.1 82.9571C174.325 82.4644 174.667 82.0332 175.094 81.7C175.311 81.5311 175.542 81.382 175.786 81.2543C175.869 81.2295 175.956 81.216 176.043 81.2143H176.254C176.397 81.2143 176.523 81.2601 176.66 81.2829C178.832 81.7964 180.951 82.5138 182.987 83.4257C184.061 83.8932 185.098 84.4394 186.091 85.0599C186.337 85.2199 186.582 85.397 186.828 85.5685C187.082 85.7615 187.29 86.0096 187.434 86.2941C187.713 86.8552 187.858 87.4733 187.857 88.0998C187.872 88.7338 187.73 89.3616 187.446 89.9283C187.288 90.2206 187.065 90.4728 186.794 90.6654C186.725 90.6997 186.68 90.8482 186.623 90.9854L186.474 91.4139C186.097 92.5567 185.719 93.7796 185.262 94.9566C184.663 96.6446 183.786 98.2206 182.667 99.6193C182.262 100.151 181.744 100.587 181.152 100.897C180.559 101.207 179.906 101.383 179.238 101.414C178.809 101.476 178.381 101.488 177.958 101.522C176.243 101.625 174.597 101.602 172.968 101.556C171.339 101.511 169.744 101.425 168.195 101.328C161.983 100.928 156.41 100.362 151.735 99.8765C150.618 99.7787 149.507 99.6184 148.408 99.3965C147.433 99.1879 146.477 98.8973 145.55 98.5279C144.049 97.945 142.674 97.0799 141.498 95.9795C140.764 95.2773 140.133 94.4751 139.623 93.5967C139.441 93.2953 139.282 92.9801 139.149 92.6539C139.149 92.6539 139.309 92.9796 139.675 93.5681C140.203 94.4245 140.843 95.2066 141.578 95.8938C142.752 96.9703 144.122 97.8121 145.613 98.3737C146.541 98.7315 147.497 99.0125 148.471 99.2136C149.567 99.4237 150.674 99.5744 151.786 99.665C156.461 100.128 162.034 100.671 168.235 101.059C169.79 101.151 171.379 101.231 173.002 101.271C174.625 101.311 176.289 101.334 177.969 101.236C178.386 101.196 178.815 101.185 179.232 101.122C179.649 101.1 180.06 101.021 180.455 100.888C181.245 100.583 181.942 100.079 182.479 99.425C183.574 98.0534 184.431 96.5083 185.016 94.8538C185.474 93.711 185.845 92.5053 186.222 91.3282L186.382 90.8825C186.382 90.814 186.44 90.7397 186.474 90.6597C186.495 90.6156 186.52 90.5735 186.548 90.534C186.57 90.5064 186.595 90.4815 186.623 90.4597L186.663 90.4254C186.9 90.2612 187.095 90.0441 187.234 89.7911C187.501 89.2603 187.631 88.6709 187.611 88.0769C187.613 87.4988 187.482 86.928 187.228 86.4084C187.104 86.1631 186.926 85.9484 186.708 85.7799C186.462 85.6142 186.228 85.437 185.982 85.2828C185.004 84.6667 183.98 84.1261 182.919 83.6657C180.905 82.7579 178.809 82.0423 176.66 81.5286C176.529 81.5286 176.397 81.4715 176.272 81.46H176.083H175.957C175.732 81.5802 175.518 81.7198 175.317 81.8772C174.919 82.1774 174.599 82.5695 174.385 83.02C174.007 83.9238 173.929 84.9254 174.163 85.877L174.214 86.077L174.014 86.0313L156.393 82.0886C154.896 81.4589 153.352 80.9469 151.775 80.5572C151.203 80.4258 150.809 80.3344 150.523 80.2772C150.237 80.2201 150.009 80.2258 150.009 80.2258Z" fill="#263238"/>
<path d="M179.815 91.4767C179.409 91.3761 179.023 91.208 178.672 90.9796C177.796 90.4908 176.989 89.8874 176.272 89.1854C175.551 88.486 174.921 87.6989 174.397 86.8426C174.158 86.4918 173.975 86.1063 173.854 85.6998C174.637 86.854 175.515 87.9415 176.477 88.9511C177.512 89.891 178.629 90.7363 179.815 91.4767Z" fill="#263238"/>
<path d="M55.4672 138.538C55.4672 138.538 59.0109 138.726 61.1828 140.104C63.3547 141.481 66.8984 143.606 68.3558 146.258C69.0246 147.475 67.1213 147.732 66.1839 147.023C65.2466 146.315 63.8005 144.989 63.0861 144.823L62.3716 144.663C63.023 146.138 63.7499 147.578 64.5493 148.977C65.2866 150.12 65.9267 152.017 63.7148 152.109C63.7148 152.109 62.2173 154.052 60.7084 152.612C60.7084 152.612 59.531 154.372 57.6334 151.932C57.6334 151.932 56.5303 153.326 56.0673 152.794C55.6044 152.263 54.0955 151.412 53.6554 149.663C52.9987 147.627 52.2356 145.626 51.3691 143.669L55.4672 138.538Z" fill="#FFBF9D"/>
<path d="M25.3116 91.9511C23.4951 92.5359 21.9274 93.7129 20.8591 95.2939C19.4988 97.3852 19.0816 101.008 19.4703 103.705C20.2933 109.39 22.8996 118.984 24.3685 125.144C24.8715 127.27 25.906 131.075 28.941 133.092L50.5973 146.075L56.3872 137.504L36.6456 121.419L32.7418 99.3737L25.3116 91.9511Z" fill="#455A64"/>
<path d="M21.5679 113.619C21.5976 113.691 21.6205 113.765 21.6365 113.842L21.8194 114.51C21.9737 115.116 22.1909 115.984 22.4766 117.099C23.0482 119.384 23.8598 122.63 24.8715 126.67C25.4588 128.87 26.7029 130.839 28.438 132.315C29.4291 133.108 30.4888 133.812 31.6044 134.418L35.0852 136.521L50.683 145.938L50.483 145.983L52.5692 142.892L56.2729 137.389L56.3014 137.589L36.737 121.481H36.7027V121.441C35.411 116.007 34.4736 111.556 33.8792 108.459C33.5877 106.911 33.382 105.705 33.2505 104.882C33.1934 104.482 33.1476 104.168 33.1133 103.945C33.079 103.722 33.0733 103.625 33.0733 103.625C33.1044 103.728 33.1292 103.833 33.1476 103.939C33.1876 104.162 33.2448 104.471 33.3134 104.871C33.4677 105.688 33.6906 106.893 34.0107 108.436C34.6337 111.522 35.6053 115.962 36.9256 121.39L36.8856 121.327L56.4843 137.361L56.5872 137.446L56.5129 137.555L52.8092 143.058L50.723 146.149L50.6487 146.263L50.523 146.195L34.948 136.749L31.473 134.641C30.3499 134.029 29.2827 133.319 28.2837 132.521C26.5186 131.01 25.2598 128.993 24.6771 126.744C23.6998 122.693 22.9167 119.419 22.3909 117.15C22.1337 116.007 21.928 115.156 21.7851 114.55L21.6193 113.847C21.5968 113.772 21.5796 113.696 21.5679 113.619Z" fill="#263238"/>
<path d="M21.9224 94.9967C22.0568 94.9085 22.2058 94.8446 22.3625 94.8082C22.7773 94.6801 23.2016 94.5845 23.6313 94.5225C25.0649 94.3015 26.5318 94.4999 27.8551 95.0939C29.1341 95.7605 30.2204 96.7443 31.0101 97.9509C31.2496 98.3156 31.4416 98.7092 31.5817 99.1223C31.6431 99.2693 31.6779 99.426 31.6846 99.5851C31.4376 99.0605 31.1529 98.5545 30.8329 98.0709C30.0194 96.9448 28.9549 96.0234 27.7237 95.3796C26.4467 94.8138 25.0424 94.5969 23.6542 94.751C22.5854 94.8367 21.9395 95.0482 21.9224 94.9967Z" fill="#263238"/>
</svg>
