<svg width="25" height="24" viewBox="0 0 25 24" fill="none" xmlns="http://www.w3.org/2000/svg">
<g clip-path="url(#clip0_12_2523)">
<path d="M24.0078 12.2242C24.0078 11.2409 23.9295 10.5234 23.7598 9.7793H12.7295V14.2173H19.2041C19.0736 15.3202 18.3687 16.9811 16.8022 18.0972L16.7802 18.2458L20.2678 20.996L20.5095 21.0205C22.7285 18.9344 24.0078 15.8649 24.0078 12.2242" fill="#4285F4"/>
<path d="M12.7296 23.9178C15.9016 23.9178 18.5645 22.8548 20.5095 21.0211L16.8023 18.0978C15.8102 18.8021 14.4787 19.2937 12.7296 19.2937C9.6228 19.2937 6.98598 17.2076 6.04603 14.3242L5.90825 14.3361L2.2818 17.193L2.23438 17.3272C4.1663 21.2337 8.13462 23.9178 12.7296 23.9178Z" fill="#34A853"/>
<path d="M6.04597 14.3238C5.79795 13.5797 5.65442 12.7824 5.65442 11.9586C5.65442 11.1347 5.79795 10.3375 6.03292 9.59342L6.02635 9.43494L2.35446 6.53223L2.23432 6.59039C1.43808 8.21149 0.981201 10.0319 0.981201 11.9586C0.981201 13.8853 1.43808 15.7056 2.23432 17.3267L6.04597 14.3238" fill="#FBBC05"/>
<path d="M12.7295 4.62403C14.9356 4.62403 16.4237 5.59401 17.2722 6.40461L20.5878 3.10928C18.5515 1.1826 15.9015 0 12.7295 0C8.13462 0 4.1663 2.68406 2.23438 6.59056L6.03297 9.59359C6.98597 6.7102 9.62279 4.62403 12.7295 4.62403" fill="#EB4335"/>
</g>
<defs>
<clipPath id="clip0_12_2523">
<rect width="23.04" height="24" fill="white" transform="translate(0.97998)"/>
</clipPath>
</defs>
</svg>
