<svg width="25" height="25" viewBox="0 0 25 25" fill="none" xmlns="http://www.w3.org/2000/svg">
<path d="M6.375 5.5V19.5H9.375V13.5H15.375V19.5H18.375V5.5H15.375V11.5H9.375V5.5H6.375ZM3.375 15.5C3.375 15.7652 3.48036 16.0196 3.66789 16.2071C3.85543 16.3946 4.10978 16.5 4.375 16.5H5.375V8.5H4.375C4.10978 8.5 3.85543 8.60536 3.66789 8.79289C3.48036 8.98043 3.375 9.23478 3.375 9.5V11.5H2.375V13.5H3.375V15.5ZM21.375 9.5C21.375 9.23478 21.2696 8.98043 21.0821 8.79289C20.8946 8.60536 20.6402 8.5 20.375 8.5H19.375V16.5H20.375C20.6402 16.5 20.8946 16.3946 21.0821 16.2071C21.2696 16.0196 21.375 15.7652 21.375 15.5V13.5H22.375V11.5H21.375V9.5Z" fill="url(#paint0_linear_407_25135)"/>
<defs>
<linearGradient id="paint0_linear_407_25135" x1="22.375" y1="19.5" x2="0.354139" y2="10.3789" gradientUnits="userSpaceOnUse">
<stop stop-color="#246BFD"/>
<stop offset="1" stop-color="#5089FF"/>
</linearGradient>
</defs>
</svg>
