<svg width="21" height="19" viewBox="0 0 21 19" fill="none" xmlns="http://www.w3.org/2000/svg">
<path fill-rule="evenodd" clip-rule="evenodd" d="M14.35 0.000647953C14.981 0.000647953 15.611 0.0896479 16.21 0.290648C19.901 1.49065 21.231 5.54065 20.12 9.08065C19.49 10.8896 18.46 12.5406 17.111 13.8896C15.18 15.7596 13.061 17.4196 10.78 18.8496L10.53 19.0006L10.27 18.8396C7.98102 17.4196 5.85002 15.7596 3.90102 13.8796C2.56102 12.5306 1.53002 10.8896 0.890017 9.08065C-0.239983 5.54065 1.09002 1.49065 4.82102 0.269648C5.11102 0.169648 5.41002 0.099648 5.71002 0.060648H5.83002C6.11102 0.019648 6.39002 0.000647953 6.67002 0.000647953H6.78002C7.41002 0.019648 8.02002 0.129648 8.61102 0.330648H8.67002C8.71002 0.349648 8.74002 0.370648 8.76002 0.389648C8.98102 0.460648 9.19002 0.540648 9.39002 0.650648L9.77002 0.820648C9.86184 0.86962 9.9649 0.944447 10.054 1.00912C10.1104 1.05009 10.1612 1.08699 10.2 1.11065C10.2163 1.12028 10.2329 1.12996 10.2496 1.13972C10.3354 1.18977 10.4247 1.24191 10.5 1.29965C11.611 0.450648 12.96 -0.00935205 14.35 0.000647953ZM17.01 7.20065C17.42 7.18965 17.77 6.86065 17.8 6.43965V6.32065C17.83 4.91965 16.981 3.65065 15.69 3.16065C15.28 3.01965 14.83 3.24065 14.68 3.66065C14.54 4.08065 14.76 4.54065 15.18 4.68965C15.821 4.92965 16.25 5.56065 16.25 6.25965V6.29065C16.231 6.51965 16.3 6.74065 16.44 6.91065C16.58 7.08065 16.79 7.17965 17.01 7.20065Z" fill="#246BFD"/>
</svg>
