<svg width="16" height="15" viewBox="0 0 16 15" fill="none" xmlns="http://www.w3.org/2000/svg">
<mask id="mask0_32_4073" style="mask-type:luminance" maskUnits="userSpaceOnUse" x="0" y="0" width="16" height="15">
<path fill-rule="evenodd" clip-rule="evenodd" d="M0.25293 0H16.0002V15H0.25293V0Z" fill="white"/>
</mask>
<g mask="url(#mask0_32_4073)">
<path fill-rule="evenodd" clip-rule="evenodd" d="M1.656 7.01721C2.73441 10.3724 6.99496 13.0854 8.12721 13.7569C9.2633 13.0784 13.5546 10.3355 14.5984 7.02029C15.2838 4.87732 14.6476 2.16285 12.1201 1.34827C10.8955 0.955218 9.46714 1.19444 8.48103 1.95747C8.27489 2.11593 7.98875 2.119 7.78107 1.96209C6.73651 1.17674 5.37196 0.946757 4.12818 1.34827C1.60446 2.16208 0.970649 4.87655 1.656 7.01721ZM8.12788 15.0001C8.0325 15.0001 7.93789 14.977 7.85174 14.9301C7.61098 14.7986 1.93973 11.6726 0.557496 7.36971C0.556727 7.36971 0.556727 7.36894 0.556727 7.36894C-0.310921 4.65985 0.655184 1.25541 3.77425 0.250078C5.23879 -0.223744 6.83487 -0.015293 8.12557 0.799281C9.37628 0.00855192 11.0377 -0.209898 12.473 0.250078C15.5952 1.25695 16.5644 4.66062 15.6975 7.36894C14.3599 11.6226 8.64708 14.7955 8.40479 14.9286C8.31864 14.9762 8.22326 15.0001 8.12788 15.0001Z" fill="#246BFD"/>
</g>
<path fill-rule="evenodd" clip-rule="evenodd" d="M12.6784 5.86525C12.3807 5.86525 12.1284 5.6368 12.1038 5.33527C12.053 4.703 11.63 4.16918 11.0277 3.97457C10.7239 3.87612 10.5577 3.55075 10.6554 3.24846C10.7547 2.94539 11.0769 2.78079 11.3815 2.87617C12.43 3.21538 13.1645 4.1438 13.2545 5.24143C13.2799 5.55911 13.0438 5.83755 12.7261 5.86294C12.7099 5.86448 12.6946 5.86525 12.6784 5.86525Z" fill="#246BFD"/>
</svg>
