<svg width="21" height="20" viewBox="0 0 21 20" fill="none" xmlns="http://www.w3.org/2000/svg">
<path d="M14.4166 2.0249H6.08329C3.58329 2.0249 1.91663 3.69157 1.91663 6.19157V11.1916C1.91663 13.6916 3.58329 15.3582 6.08329 15.3582H9.41663L13.125 17.8249C13.675 18.1916 14.4166 17.7999 14.4166 17.1332V15.3582C16.9166 15.3582 18.5833 13.6916 18.5833 11.1916V6.19157C18.5833 3.69157 16.9166 2.0249 14.4166 2.0249ZM13.1666 9.3749H7.33329C6.99163 9.3749 6.70829 9.09157 6.70829 8.7499C6.70829 8.40824 6.99163 8.1249 7.33329 8.1249H13.1666C13.5083 8.1249 13.7916 8.40824 13.7916 8.7499C13.7916 9.09157 13.5083 9.3749 13.1666 9.3749Z" fill="#2B2B2B"/>
</svg>
