<svg width="25" height="25" viewBox="0 0 25 25" fill="none" xmlns="http://www.w3.org/2000/svg">
<path d="M4.125 22.5H20.125C20.3902 22.5 20.6446 22.3946 20.8321 22.2071C21.0196 22.0196 21.125 21.7652 21.125 21.5V5.5C21.125 3.846 19.779 2.5 18.125 2.5H6.125C4.471 2.5 3.125 3.846 3.125 5.5V21.5C3.125 21.7652 3.23036 22.0196 3.41789 22.2071C3.60543 22.3946 3.85978 22.5 4.125 22.5ZM18.125 4.424C18.2563 4.424 18.3864 4.44987 18.5077 4.50012C18.629 4.55038 18.7392 4.62403 18.8321 4.71689C18.925 4.80975 18.9986 4.91999 19.0489 5.04132C19.0991 5.16264 19.125 5.29268 19.125 5.424C19.125 5.55532 19.0991 5.68536 19.0489 5.80668C18.9986 5.92801 18.925 6.03825 18.8321 6.13111C18.7392 6.22397 18.629 6.29762 18.5077 6.34788C18.3864 6.39813 18.2563 6.424 18.125 6.424C17.8598 6.424 17.6054 6.31864 17.4179 6.13111C17.2304 5.94357 17.125 5.68922 17.125 5.424C17.125 5.15878 17.2304 4.90443 17.4179 4.71689C17.6054 4.52936 17.8598 4.424 18.125 4.424ZM15.125 4.424C15.2563 4.424 15.3864 4.44987 15.5077 4.50012C15.629 4.55038 15.7392 4.62403 15.8321 4.71689C15.925 4.80975 15.9986 4.91999 16.0489 5.04132C16.0991 5.16264 16.125 5.29268 16.125 5.424C16.125 5.55532 16.0991 5.68536 16.0489 5.80668C15.9986 5.92801 15.925 6.03825 15.8321 6.13111C15.7392 6.22397 15.629 6.29762 15.5077 6.34788C15.3864 6.39813 15.2563 6.424 15.125 6.424C14.8598 6.424 14.6054 6.31864 14.4179 6.13111C14.2304 5.94357 14.125 5.68922 14.125 5.424C14.125 5.15878 14.2304 4.90443 14.4179 4.71689C14.6054 4.52936 14.8598 4.424 15.125 4.424ZM12.125 7.5C15.434 7.5 18.125 10.191 18.125 13.5C18.125 16.809 15.434 19.5 12.125 19.5C8.816 19.5 6.125 16.809 6.125 13.5C6.125 10.191 8.816 7.5 12.125 7.5Z" fill="url(#paint0_linear_407_25165)"/>
<path d="M12.891 17.4289C14.29 17.1679 15.462 16.1139 15.914 14.7639C16.2412 13.8163 16.1864 12.7786 15.761 11.8709C15.7143 11.771 15.6349 11.6902 15.5359 11.6418C15.437 11.5934 15.3244 11.5803 15.217 11.6049C14.613 11.7539 14.198 12.0529 13.717 12.4059C12.931 12.9829 11.952 13.6999 10.125 13.6999C9.31196 13.6999 8.67496 13.5539 8.14096 13.3459L8.12796 13.3549C8.10681 13.9568 8.22167 14.5558 8.46399 15.1072C8.70631 15.6586 9.06986 16.1483 9.52758 16.5398C9.9853 16.9313 10.5254 17.2146 11.1077 17.3685C11.69 17.5224 12.2996 17.543 12.891 17.4289Z" fill="url(#paint1_linear_407_25165)"/>
<defs>
<linearGradient id="paint0_linear_407_25165" x1="21.125" y1="22.5" x2="-0.613679" y2="16.8274" gradientUnits="userSpaceOnUse">
<stop stop-color="#246BFD"/>
<stop offset="1" stop-color="#5089FF"/>
</linearGradient>
<linearGradient id="paint1_linear_407_25165" x1="16.1251" y1="17.5015" x2="7.18381" y2="13.9917" gradientUnits="userSpaceOnUse">
<stop stop-color="#246BFD"/>
<stop offset="1" stop-color="#5089FF"/>
</linearGradient>
</defs>
</svg>
