<svg width="20" height="20" viewBox="0 0 20 20" fill="none" xmlns="http://www.w3.org/2000/svg">
<path d="M10.4166 18.3335H3.39993C2.43327 18.3335 1.6416 17.5585 1.6416 16.6085V4.24179C1.6416 2.05846 3.2666 1.06679 5.25827 2.04179L8.95827 3.85846C9.75827 4.25013 10.4166 5.29179 10.4166 6.17513V18.3335Z" stroke="#246BFD" stroke-width="1.2" stroke-linecap="round" stroke-linejoin="round"/>
<path d="M18.3082 12.55V15.7C18.3082 17.5 17.4748 18.3333 15.6748 18.3333H10.4165V8.68335L10.8082 8.76668L14.5582 9.60835L16.2498 9.98335C17.3498 10.225 18.2498 10.7917 18.2998 12.3917C18.3082 12.4417 18.3082 12.4917 18.3082 12.55Z" stroke="#246BFD" stroke-width="1.2" stroke-linecap="round" stroke-linejoin="round"/>
<path d="M4.5835 7.5H7.47516" stroke="#246BFD" stroke-width="1.2" stroke-linecap="round" stroke-linejoin="round"/>
<path d="M4.5835 10.8335H7.47516" stroke="#246BFD" stroke-width="1.2" stroke-linecap="round" stroke-linejoin="round"/>
<path d="M14.5581 9.60851V12.2918C14.5581 13.3252 13.7164 14.1668 12.6831 14.1668C11.6498 14.1668 10.8081 13.3252 10.8081 12.2918V8.76685L14.5581 9.60851Z" stroke="#246BFD" stroke-width="1.2" stroke-linecap="round" stroke-linejoin="round"/>
<path d="M18.2998 12.3917C18.2498 13.3751 17.4331 14.1667 16.4331 14.1667C15.3998 14.1667 14.5581 13.3251 14.5581 12.2917V9.6084L16.2498 9.9834C17.3498 10.2251 18.2498 10.7917 18.2998 12.3917Z" stroke="#246BFD" stroke-width="1.2" stroke-linecap="round" stroke-linejoin="round"/>
</svg>
