<svg width="8" height="11" viewBox="0 0 8 11" fill="none" xmlns="http://www.w3.org/2000/svg">
<path d="M7.15607 6.01482C7.44844 5.47255 7.60091 4.86744 7.6 4.25308C7.6 2.18028 5.89872 0.5 3.8 0.5C1.70129 0.5 5.5743e-06 2.18028 5.5743e-06 4.25308C-0.00153267 5.13843 0.315337 5.99554 0.894122 6.67161L0.898593 6.67713C0.900157 6.67846 0.901498 6.68022 0.902616 6.68155H0.894122L3.02718 10.2225C3.11077 10.3101 3.21162 10.3799 3.32354 10.4277C3.43546 10.4754 3.55608 10.5 3.67798 10.5C3.79989 10.5 3.92051 10.4754 4.03242 10.4277C4.14434 10.3799 4.2452 10.3101 4.32879 10.2225L6.70588 6.68155H6.69739L6.70096 6.67735L6.70141 6.67691C6.7175 6.65792 6.7336 6.63894 6.74947 6.61951C6.90451 6.4313 7.04075 6.22872 7.15629 6.0146L7.15607 6.01482ZM3.80089 5.68808C3.44519 5.68808 3.10406 5.54853 2.85254 5.30011C2.60102 5.0517 2.45972 4.71478 2.45972 4.36347C2.45972 4.01216 2.60102 3.67523 2.85254 3.42682C3.10406 3.17841 3.44519 3.03885 3.80089 3.03885C4.1566 3.03885 4.49773 3.17841 4.74925 3.42682C5.00077 3.67523 5.14207 4.01216 5.14207 4.36347C5.14207 4.71478 5.00077 5.0517 4.74925 5.30011C4.49773 5.54853 4.1566 5.68808 3.80089 5.68808Z" fill="#246BFD"/>
</svg>
