<svg width="330" height="220" viewBox="0 0 330 220" fill="none" xmlns="http://www.w3.org/2000/svg">
<mask id="mask0_407_23222" style="mask-type:luminance" maskUnits="userSpaceOnUse" x="0" y="0" width="330" height="220">
<path d="M0 0H330V220H0V0Z" fill="white"/>
</mask>
<g mask="url(#mask0_407_23222)">
<path d="M221.451 117.54C212.686 111.701 202.327 110.126 192.827 112.319C195.277 103.117 191.766 92.9813 183.397 87.4072C172.883 80.4039 158.684 83.2426 151.687 93.7473C150.253 95.9004 149.195 98.2805 148.555 100.787C127.09 87.2716 98.6447 93.246 84.5115 114.465C70.1492 136.027 76.0023 165.158 97.585 179.534C119.168 193.91 148.305 188.085 162.667 166.523C164.079 164.398 165.32 162.164 166.376 159.842C168.89 167.253 173.776 173.922 180.797 178.599C197.674 189.84 220.459 185.285 231.689 168.424C242.92 151.564 238.327 128.781 221.451 117.54ZM169.59 129.256C169.48 129.435 169.379 129.612 169.274 129.794C169.231 129.606 169.183 129.414 169.14 129.225C169.289 129.241 169.439 129.256 169.59 129.256Z" fill="url(#paint0_linear_407_23222)"/>
<path d="M225.621 99.0022C217.387 104.218 205.282 99.8844 205.282 99.8844C205.282 99.8844 206.534 87.0958 214.773 81.8855C223.007 76.6697 235.107 80.9978 235.107 80.9978C235.107 80.9978 233.855 93.7864 225.621 99.0022Z" fill="url(#paint1_linear_407_23222)"/>
<path d="M205.392 183.26C205.238 183.199 205.112 183.083 205.04 182.933C204.968 182.784 204.955 182.613 205.004 182.455C205.052 182.297 205.159 182.162 205.302 182.079C205.445 181.995 205.614 181.969 205.776 182.005C207.37 182.37 208.974 182.69 210.587 182.965C210.672 182.979 210.753 183.011 210.826 183.057C210.899 183.103 210.962 183.163 211.012 183.233C211.062 183.304 211.097 183.383 211.116 183.468C211.135 183.552 211.137 183.639 211.123 183.724C211.093 183.896 210.996 184.048 210.854 184.149C210.712 184.25 210.535 184.29 210.364 184.261C208.726 183.982 207.097 183.657 205.478 183.288C205.449 183.279 205.42 183.271 205.392 183.26ZM215.127 184.94C214.977 184.882 214.854 184.772 214.781 184.63C214.707 184.488 214.688 184.323 214.726 184.168C214.765 184.013 214.859 183.877 214.99 183.786C215.122 183.694 215.283 183.654 215.442 183.673C217.07 183.867 218.711 184.021 220.322 184.132C220.495 184.144 220.657 184.225 220.771 184.356C220.886 184.487 220.944 184.658 220.933 184.831C220.921 185.005 220.841 185.168 220.71 185.283C220.579 185.398 220.407 185.456 220.233 185.444C218.599 185.334 216.936 185.177 215.285 184.98C215.231 184.972 215.178 184.959 215.127 184.94ZM224.971 185.598C224.827 185.542 224.708 185.438 224.634 185.303C224.559 185.168 224.534 185.012 224.564 184.861C224.593 184.709 224.674 184.573 224.794 184.476C224.913 184.379 225.063 184.326 225.217 184.328C226.848 184.349 228.48 184.321 230.11 184.244C230.197 184.24 230.283 184.253 230.364 184.282C230.445 184.311 230.52 184.356 230.583 184.414C230.647 184.472 230.699 184.543 230.736 184.621C230.772 184.699 230.793 184.783 230.797 184.87C230.814 185.233 230.534 185.541 230.171 185.558C228.547 185.637 226.875 185.665 225.199 185.641C225.121 185.642 225.043 185.627 224.971 185.598ZM234.821 185.121C234.709 185.078 234.61 185.005 234.537 184.91C234.463 184.814 234.417 184.701 234.404 184.581C234.395 184.495 234.402 184.408 234.426 184.325C234.449 184.242 234.489 184.165 234.543 184.097C234.597 184.03 234.663 183.974 234.739 183.932C234.814 183.89 234.897 183.864 234.983 183.854C236.626 183.665 238.25 183.418 239.811 183.12C239.896 183.104 239.983 183.104 240.068 183.122C240.152 183.139 240.233 183.173 240.304 183.222C240.375 183.27 240.436 183.333 240.483 183.405C240.53 183.478 240.563 183.559 240.578 183.644C240.611 183.815 240.574 183.992 240.477 184.137C240.379 184.281 240.228 184.38 240.057 184.413C238.425 184.724 236.782 184.974 235.131 185.163C235.026 185.172 234.92 185.158 234.821 185.121ZM244.498 183.254C244.402 183.218 244.316 183.159 244.246 183.083C244.177 183.007 244.127 182.915 244.101 182.816C244.054 182.648 244.076 182.468 244.162 182.316C244.248 182.164 244.391 182.052 244.559 182.004C246.122 181.567 247.664 181.057 249.18 180.475C249.343 180.413 249.524 180.418 249.683 180.489C249.842 180.56 249.967 180.691 250.029 180.853C250.158 181.192 249.989 181.572 249.65 181.704C248.096 182.301 246.515 182.824 244.912 183.271C244.775 183.311 244.63 183.305 244.498 183.254ZM253.676 179.702C253.524 179.644 253.399 179.531 253.327 179.386C253.248 179.23 253.234 179.049 253.288 178.883C253.342 178.717 253.46 178.58 253.616 178.501C255.057 177.765 256.456 176.949 257.805 176.057C257.877 176.009 257.958 175.976 258.043 175.96C258.127 175.943 258.214 175.943 258.299 175.96C258.384 175.978 258.464 176.011 258.536 176.059C258.608 176.108 258.669 176.17 258.717 176.242C258.813 176.387 258.847 176.565 258.813 176.736C258.778 176.907 258.677 177.058 258.532 177.154C257.14 178.075 255.699 178.917 254.213 179.675C254.13 179.716 254.04 179.74 253.947 179.744C253.855 179.749 253.763 179.735 253.676 179.702ZM261.861 174.261C261.755 174.22 261.661 174.151 261.589 174.063C261.517 173.975 261.469 173.869 261.45 173.757C261.432 173.644 261.442 173.529 261.481 173.422C261.521 173.315 261.587 173.219 261.674 173.146C262.903 172.098 264.067 170.976 265.16 169.788C265.219 169.724 265.289 169.673 265.368 169.636C265.446 169.6 265.53 169.579 265.617 169.576C265.703 169.572 265.789 169.586 265.87 169.615C265.951 169.645 266.026 169.69 266.089 169.749C266.153 169.807 266.204 169.877 266.241 169.956C266.277 170.034 266.298 170.119 266.301 170.205C266.305 170.291 266.291 170.377 266.262 170.458C266.232 170.539 266.187 170.614 266.128 170.677C264.999 171.906 263.796 173.065 262.525 174.147C262.331 174.308 262.076 174.343 261.861 174.261ZM268.513 167.033C268.419 166.997 268.335 166.939 268.267 166.866C268.198 166.792 268.148 166.703 268.119 166.607C268.09 166.51 268.084 166.409 268.101 166.309C268.118 166.21 268.157 166.116 268.216 166.035C269.16 164.722 270.03 163.359 270.823 161.95C270.865 161.875 270.922 161.808 270.99 161.755C271.057 161.701 271.135 161.662 271.219 161.639C271.302 161.616 271.389 161.609 271.475 161.62C271.56 161.631 271.643 161.658 271.718 161.701C271.794 161.744 271.86 161.801 271.913 161.869C271.967 161.937 272.006 162.015 272.029 162.098C272.052 162.181 272.059 162.269 272.049 162.354C272.038 162.44 272.011 162.523 271.968 162.599C271.152 164.051 270.254 165.456 269.281 166.808C269.195 166.924 269.073 167.008 268.935 167.049C268.796 167.089 268.648 167.084 268.513 167.033ZM273.409 158.495L273.365 158.478C273.287 158.442 273.217 158.39 273.158 158.327C273.1 158.263 273.055 158.188 273.025 158.107C272.995 158.026 272.982 157.94 272.986 157.854C272.99 157.767 273.011 157.683 273.047 157.605C273.731 156.131 274.351 154.628 274.903 153.1C274.93 153.017 274.974 152.94 275.032 152.874C275.09 152.809 275.16 152.755 275.239 152.717C275.318 152.678 275.403 152.656 275.491 152.652C275.578 152.647 275.666 152.66 275.748 152.689C275.83 152.719 275.906 152.765 275.97 152.824C276.035 152.883 276.087 152.955 276.123 153.034C276.16 153.114 276.18 153.2 276.182 153.288C276.185 153.375 276.17 153.462 276.138 153.544C276.014 153.891 275.881 154.247 275.746 154.599C275.283 155.802 274.779 156.99 274.237 158.161C274.166 158.31 274.042 158.428 273.888 158.489C273.735 158.551 273.564 158.553 273.409 158.495ZM276.702 149.21C276.554 149.152 276.431 149.043 276.357 148.902C276.283 148.761 276.263 148.598 276.299 148.443C276.687 146.826 276.964 145.22 277.122 143.672C277.14 143.499 277.225 143.339 277.36 143.229C277.495 143.119 277.668 143.067 277.842 143.084C277.927 143.093 278.011 143.119 278.087 143.16C278.162 143.201 278.229 143.257 278.284 143.324C278.338 143.391 278.379 143.468 278.403 143.551C278.428 143.634 278.436 143.72 278.426 143.806C278.26 145.414 277.974 147.075 277.574 148.748C277.533 148.918 277.427 149.064 277.278 149.156C277.13 149.247 276.951 149.275 276.781 149.235C276.757 149.228 276.728 149.22 276.702 149.21ZM277.665 139.43C277.547 139.385 277.445 139.306 277.371 139.204C277.296 139.101 277.252 138.98 277.245 138.854C277.152 137.218 276.914 135.621 276.535 134.108C276.492 133.939 276.518 133.76 276.608 133.61C276.697 133.46 276.842 133.352 277.012 133.31C277.095 133.288 277.182 133.284 277.267 133.296C277.353 133.309 277.435 133.338 277.509 133.382C277.583 133.427 277.647 133.485 277.699 133.554C277.75 133.624 277.787 133.702 277.808 133.786C278.207 135.377 278.458 137.055 278.557 138.776C278.562 138.862 278.55 138.948 278.522 139.03C278.493 139.112 278.449 139.187 278.392 139.251C278.334 139.316 278.265 139.368 278.187 139.406C278.109 139.443 278.025 139.465 277.938 139.47C277.842 139.477 277.75 139.463 277.665 139.43ZM257.819 131.005C257.664 130.945 257.536 130.828 257.464 130.678C257.392 130.527 257.379 130.355 257.43 130.195C257.482 130.029 257.598 129.89 257.752 129.809C257.907 129.728 258.087 129.711 258.254 129.763C259.708 130.22 261.319 130.46 262.911 130.458C263.083 130.462 263.247 130.533 263.367 130.657C263.487 130.78 263.554 130.945 263.553 131.117C263.553 131.289 263.486 131.454 263.365 131.577C263.245 131.7 263.081 131.771 262.91 131.774C261.185 131.777 259.439 131.514 257.858 131.02C257.846 131.012 257.83 131.009 257.819 131.005ZM253.537 128.651C253.459 128.62 253.387 128.576 253.325 128.519C251.711 127.014 251.081 125.219 251.555 123.468C251.601 123.3 251.711 123.157 251.862 123.07C252.013 122.983 252.192 122.96 252.36 123.004C252.443 123.027 252.521 123.066 252.589 123.119C252.658 123.172 252.715 123.237 252.758 123.312C252.8 123.387 252.828 123.47 252.839 123.556C252.85 123.641 252.843 123.728 252.821 123.811C252.385 125.424 253.34 126.739 254.217 127.559C254.328 127.662 254.4 127.801 254.42 127.952C254.44 128.103 254.407 128.256 254.327 128.385C254.247 128.514 254.124 128.611 253.98 128.66C253.835 128.708 253.679 128.705 253.537 128.651ZM267.527 130.992C267.434 130.957 267.35 130.9 267.282 130.828C267.214 130.755 267.163 130.668 267.134 130.573C267.083 130.407 267.099 130.226 267.18 130.072C267.26 129.917 267.399 129.801 267.565 129.748C269.069 129.278 270.486 128.566 271.761 127.64C271.831 127.589 271.91 127.553 271.994 127.532C272.078 127.512 272.165 127.509 272.25 127.522C272.335 127.536 272.417 127.566 272.491 127.611C272.564 127.656 272.628 127.716 272.679 127.786C272.729 127.856 272.766 127.935 272.786 128.019C272.806 128.103 272.809 128.19 272.796 128.276C272.782 128.361 272.752 128.443 272.707 128.517C272.662 128.59 272.602 128.654 272.532 128.705C271.143 129.715 269.597 130.491 267.957 131.004C267.813 131.051 267.66 131.043 267.527 130.992ZM275.246 129.942C275.092 129.884 274.966 129.769 274.893 129.621C274.188 128.193 273.318 126.852 272.3 125.628C272.244 125.562 272.203 125.485 272.177 125.403C272.151 125.32 272.142 125.234 272.15 125.148C272.158 125.062 272.183 124.978 272.223 124.902C272.263 124.825 272.318 124.758 272.384 124.702C272.45 124.647 272.527 124.606 272.609 124.58C272.691 124.554 272.778 124.545 272.863 124.553C272.949 124.56 273.033 124.585 273.109 124.625C273.185 124.665 273.253 124.719 273.308 124.785C274.391 126.09 275.318 127.517 276.069 129.038C276.23 129.362 276.099 129.76 275.772 129.92C275.6 130.002 275.41 130.006 275.246 129.942ZM255.091 120.597C254.975 120.552 254.875 120.476 254.801 120.377C254.727 120.277 254.682 120.159 254.672 120.036C254.662 119.912 254.687 119.789 254.744 119.679C254.801 119.569 254.888 119.477 254.994 119.414C256.452 118.564 258.145 118.114 260.027 118.078C260.113 118.076 260.199 118.091 260.279 118.123C260.359 118.154 260.433 118.201 260.495 118.261C260.557 118.321 260.606 118.393 260.64 118.472C260.675 118.551 260.693 118.636 260.694 118.722C260.696 118.809 260.681 118.895 260.649 118.975C260.618 119.055 260.571 119.129 260.511 119.191C260.451 119.253 260.379 119.303 260.3 119.337C260.221 119.372 260.136 119.39 260.05 119.392C258.396 119.424 256.918 119.812 255.656 120.549C255.572 120.599 255.477 120.63 255.379 120.638C255.281 120.646 255.183 120.632 255.091 120.597ZM275.377 125.31C275.323 125.289 275.272 125.261 275.224 125.228C275.154 125.177 275.095 125.112 275.05 125.038C275.005 124.965 274.975 124.882 274.962 124.797C274.949 124.711 274.953 124.624 274.973 124.54C274.994 124.456 275.031 124.377 275.082 124.307C275.977 123.085 276.744 121.682 277.359 120.138C277.424 119.978 277.548 119.849 277.706 119.779C277.864 119.71 278.044 119.705 278.205 119.766L278.213 119.769C278.375 119.834 278.504 119.96 278.573 120.12C278.642 120.281 278.644 120.461 278.579 120.623C277.921 122.271 277.102 123.773 276.14 125.084C276.055 125.2 275.935 125.285 275.797 125.326C275.659 125.367 275.512 125.361 275.377 125.31ZM268.977 122.465C268.924 122.445 268.874 122.417 268.828 122.385C267.509 121.437 266.098 120.693 264.649 120.182C264.485 120.124 264.351 120.002 264.276 119.845C264.201 119.688 264.192 119.507 264.25 119.343C264.279 119.261 264.323 119.186 264.381 119.122C264.439 119.058 264.509 119.005 264.587 118.968C264.665 118.931 264.749 118.909 264.835 118.905C264.922 118.901 265.008 118.913 265.089 118.942C266.654 119.495 268.179 120.297 269.596 121.318C269.891 121.531 269.958 121.94 269.747 122.236C269.567 122.482 269.249 122.57 268.977 122.465ZM279.102 116.259C278.958 116.203 278.838 116.099 278.763 115.963C278.689 115.828 278.664 115.671 278.694 115.519C278.986 114.022 279.183 112.403 279.278 110.712C279.288 110.538 279.367 110.375 279.497 110.259C279.627 110.142 279.797 110.082 279.972 110.091C280.146 110.101 280.309 110.18 280.425 110.31C280.541 110.44 280.601 110.611 280.591 110.785C280.493 112.537 280.29 114.212 279.984 115.769C279.951 115.94 279.851 116.091 279.707 116.189C279.562 116.286 279.385 116.323 279.214 116.29C279.176 116.283 279.138 116.273 279.102 116.259ZM279.712 106.435C279.593 106.389 279.489 106.309 279.415 106.206C279.34 106.103 279.297 105.98 279.291 105.852C279.215 104.227 279.074 102.605 278.869 100.99C278.848 100.817 278.896 100.643 279.003 100.505C279.109 100.367 279.266 100.277 279.439 100.254C279.612 100.233 279.787 100.281 279.924 100.388C280.062 100.494 280.151 100.652 280.174 100.824C280.386 102.535 280.532 104.203 280.603 105.789C280.608 105.898 280.586 106.007 280.538 106.105C280.491 106.203 280.42 106.288 280.331 106.352C280.243 106.416 280.14 106.457 280.032 106.472C279.924 106.486 279.814 106.473 279.712 106.435ZM278.418 96.6712C278.319 96.6332 278.23 96.5718 278.16 96.492C278.09 96.4122 278.04 96.3165 278.015 96.2132C277.628 94.6457 277.141 93.1046 276.556 91.5994C276.493 91.4367 276.497 91.2555 276.567 91.0955C276.637 90.9356 276.768 90.8101 276.93 90.7466C277.011 90.715 277.097 90.6996 277.183 90.7013C277.269 90.703 277.354 90.7217 277.433 90.7564C277.512 90.7911 277.584 90.841 277.644 90.9034C277.703 90.9658 277.75 91.0393 277.781 91.1198C278.386 92.6785 278.891 94.2745 279.291 95.8979C279.32 96.0144 279.316 96.1365 279.28 96.251C279.244 96.3655 279.178 96.468 279.088 96.5476C278.998 96.6271 278.888 96.6807 278.77 96.7024C278.652 96.7242 278.531 96.7134 278.418 96.6712ZM274.871 87.5089C274.724 87.4525 274.603 87.3451 274.528 87.2064C273.76 85.7826 272.912 84.403 271.989 83.0741C271.94 83.0032 271.905 82.9233 271.886 82.8389C271.868 82.7545 271.866 82.6673 271.882 82.5823C271.897 82.4973 271.929 82.4162 271.976 82.3436C272.023 82.271 272.083 82.2083 272.154 82.1592C272.451 81.9517 272.862 82.0236 273.068 82.3235C274.02 83.6928 274.893 85.1148 275.685 86.5827C275.726 86.6587 275.752 86.7421 275.76 86.828C275.769 86.914 275.761 87.0009 275.736 87.0836C275.711 87.1663 275.67 87.2434 275.615 87.3102C275.561 87.3771 275.493 87.4325 275.417 87.4733C275.334 87.5184 275.242 87.5449 275.148 87.551C275.054 87.5572 274.959 87.5428 274.871 87.5089ZM174.69 43.6039C174.567 43.5565 174.46 43.473 174.385 43.3643C174.31 43.2556 174.269 43.1267 174.268 42.9945C174.267 42.8202 174.335 42.6526 174.457 42.5283C174.579 42.4039 174.745 42.3327 174.919 42.3304C176.344 42.3194 178.016 42.377 179.895 42.5017C179.981 42.5074 180.065 42.5301 180.142 42.5684C180.219 42.6067 180.289 42.6598 180.345 42.7248C180.402 42.7898 180.445 42.8653 180.473 42.947C180.501 43.0288 180.512 43.1152 180.506 43.2013C180.494 43.3752 180.414 43.5374 180.283 43.6523C180.152 43.7672 179.98 43.8255 179.806 43.8143C177.962 43.6937 176.319 43.6361 174.929 43.6486C174.847 43.6487 174.766 43.6335 174.69 43.6039ZM269.277 79.4151C269.174 79.376 269.084 79.3118 269.013 79.2285C267.957 77.9958 266.847 76.8103 265.687 75.6755C265.625 75.6151 265.576 75.5433 265.542 75.4639C265.508 75.3846 265.49 75.2993 265.49 75.2131C265.489 75.1268 265.505 75.0413 265.537 74.9613C265.57 74.8813 265.617 74.8085 265.678 74.7471C265.738 74.6852 265.81 74.6359 265.889 74.6019C265.968 74.5679 266.053 74.5499 266.139 74.5489C266.226 74.5479 266.311 74.5641 266.391 74.5963C266.471 74.6286 266.544 74.6763 266.605 74.7368C267.792 75.8995 268.929 77.1129 270.011 78.3734C270.106 78.4845 270.162 78.6241 270.168 78.7702C270.175 78.9162 270.133 79.0603 270.049 79.1797C269.964 79.2991 269.843 79.3871 269.703 79.4297C269.563 79.4724 269.413 79.4672 269.277 79.4151ZM184.528 44.2034C184.392 44.1513 184.278 44.056 184.202 43.9321C184.127 43.8083 184.095 43.6629 184.111 43.5188C184.12 43.4329 184.145 43.3496 184.187 43.2737C184.228 43.1978 184.284 43.1309 184.351 43.0767C184.418 43.0225 184.496 42.9821 184.578 42.9579C184.661 42.9338 184.748 42.9262 184.834 42.9358C186.413 43.1048 188.065 43.3076 189.745 43.5419C189.831 43.5538 189.913 43.5825 189.987 43.6262C190.062 43.67 190.127 43.728 190.179 43.7969C190.231 43.8658 190.269 43.9443 190.29 44.0279C190.312 44.1115 190.317 44.1985 190.305 44.284C190.293 44.3696 190.265 44.4521 190.221 44.5267C190.178 44.6013 190.12 44.6665 190.051 44.7187C189.982 44.7709 189.903 44.8089 189.82 44.8307C189.736 44.8525 189.649 44.8576 189.563 44.8458C187.942 44.6207 186.318 44.4205 184.691 44.2452C184.635 44.238 184.58 44.224 184.528 44.2034ZM262.261 72.5122C262.193 72.4862 262.13 72.449 262.074 72.4022C260.826 71.3568 259.545 70.3526 258.231 69.3912C258.091 69.2881 257.997 69.1336 257.97 68.9615C257.944 68.7894 257.986 68.6137 258.089 68.473C258.191 68.3325 258.346 68.2384 258.518 68.2114C258.689 68.1845 258.865 68.2269 259.006 68.3293C260.343 69.3075 261.649 70.3296 262.919 71.3939C263.038 71.4939 263.118 71.6329 263.145 71.7862C263.171 71.9395 263.142 72.0972 263.063 72.2313C262.984 72.3655 262.861 72.4673 262.714 72.5187C262.567 72.5701 262.407 72.5678 262.261 72.5122ZM194.291 45.5465C194.139 45.4881 194.014 45.3754 193.941 45.2302C193.867 45.085 193.85 44.9175 193.892 44.7603C193.935 44.6031 194.035 44.4674 194.172 44.3794C194.309 44.2914 194.474 44.2574 194.634 44.284C196.239 44.5484 197.877 44.8403 199.502 45.1505C199.673 45.1837 199.824 45.2832 199.922 45.4273C200.02 45.5714 200.057 45.7484 200.025 45.9197C199.992 46.091 199.892 46.2423 199.748 46.3406C199.604 46.4389 199.427 46.4762 199.256 46.4444C197.647 46.1385 196.034 45.8515 194.418 45.5835C194.375 45.5751 194.333 45.5627 194.291 45.5465ZM203.972 47.3912C203.826 47.3351 203.704 47.2281 203.629 47.0898C203.555 46.9515 203.533 46.791 203.567 46.6377C203.604 46.4672 203.707 46.3183 203.853 46.2236C204 46.129 204.178 46.0963 204.348 46.1328C205.957 46.4782 207.578 46.8459 209.169 47.2291C209.253 47.2488 209.333 47.2851 209.403 47.3357C209.473 47.3864 209.532 47.4505 209.577 47.5242C209.622 47.598 209.652 47.6799 209.665 47.7654C209.679 47.8508 209.675 47.938 209.654 48.0218C209.613 48.1913 209.507 48.3377 209.358 48.4289C209.21 48.52 209.031 48.5485 208.862 48.508C207.269 48.1261 205.672 47.7626 204.071 47.4176C204.037 47.4127 204.004 47.4039 203.972 47.3912ZM254.324 66.6855C254.282 66.6689 254.242 66.6486 254.203 66.6247C252.833 65.741 251.44 64.8911 250.028 64.0756C249.877 63.9884 249.767 63.8451 249.722 63.6769C249.676 63.5087 249.699 63.3295 249.786 63.1784C249.829 63.1034 249.887 63.0376 249.955 62.9848C250.024 62.932 250.102 62.8933 250.185 62.8708C250.269 62.8483 250.356 62.8425 250.442 62.8538C250.527 62.865 250.61 62.8931 250.685 62.9364C252.118 63.7608 253.529 64.6222 254.918 65.5195C255.064 65.6143 255.167 65.7632 255.204 65.9336C255.24 66.1039 255.208 66.2819 255.114 66.4285C255.031 66.5547 254.908 66.6489 254.764 66.6956C254.62 66.7424 254.465 66.7388 254.324 66.6855ZM213.555 49.6905C213.404 49.6319 213.279 49.5196 213.206 49.375C213.132 49.2305 213.114 49.0639 213.155 48.907C213.2 48.7386 213.31 48.5949 213.46 48.5072C213.611 48.4196 213.79 48.3952 213.958 48.4395C215.551 48.8616 217.138 49.304 218.72 49.7664C218.885 49.8174 219.024 49.9314 219.106 50.0838C219.188 50.2362 219.207 50.4147 219.158 50.5808C219.109 50.7468 218.997 50.8871 218.846 50.9712C218.695 51.0554 218.517 51.0766 218.35 51.0303C216.779 50.5722 215.202 50.1329 213.62 49.7125C213.599 49.7048 213.576 49.6986 213.555 49.6905ZM245.793 61.7572C245.77 61.7487 245.747 61.7389 245.725 61.7278C244.274 60.9772 242.808 60.2562 241.328 59.5652C241.249 59.5287 241.179 59.4771 241.12 59.4133C241.062 59.3494 241.017 59.2747 240.988 59.1934C240.959 59.112 240.946 59.0257 240.95 58.9394C240.954 58.853 240.976 58.7684 241.013 58.6904C241.049 58.6119 241.101 58.5415 241.164 58.4831C241.228 58.4246 241.303 58.3794 241.384 58.35C241.465 58.3206 241.552 58.3075 241.638 58.3116C241.724 58.3158 241.809 58.3369 241.887 58.3739C243.382 59.0743 244.864 59.8032 246.331 60.5604C246.486 60.6407 246.602 60.7791 246.655 60.9452C246.707 61.1112 246.692 61.2914 246.612 61.4462C246.538 61.5897 246.413 61.7007 246.262 61.758C246.111 61.8154 245.944 61.8151 245.793 61.7572ZM223.01 52.4537C222.853 52.3932 222.725 52.275 222.653 52.1234C222.58 51.9719 222.569 51.7983 222.62 51.6383C222.673 51.4724 222.789 51.3344 222.944 51.2545C223.099 51.1745 223.279 51.1592 223.445 51.2118C225.014 51.7155 226.577 52.2406 228.132 52.787C228.296 52.8467 228.429 52.9681 228.504 53.1254C228.58 53.2826 228.59 53.463 228.533 53.6278C228.476 53.7923 228.355 53.9272 228.198 54.003C228.042 54.0788 227.861 54.0891 227.696 54.0319C226.153 53.4881 224.601 52.9672 223.043 52.4691C223.033 52.4625 223.023 52.4589 223.01 52.4537ZM236.872 57.5779L236.849 57.5687C235.343 56.9297 233.827 56.3163 232.301 55.7288C232.139 55.6656 232.008 55.5405 231.937 55.3809C231.866 55.2213 231.862 55.0402 231.925 54.8774C231.956 54.797 232.002 54.7234 232.061 54.6609C232.12 54.5984 232.192 54.5483 232.27 54.5133C232.349 54.4783 232.434 54.4592 232.52 54.4571C232.606 54.4549 232.692 54.4698 232.772 54.5008L232.775 54.5016C234.314 55.0952 235.843 55.7147 237.362 56.3598C237.441 56.3935 237.513 56.4425 237.574 56.504C237.634 56.5656 237.682 56.6384 237.714 56.7184C237.746 56.7984 237.762 56.8839 237.761 56.9701C237.76 57.0563 237.742 57.1415 237.709 57.2208C237.642 57.3771 237.518 57.5017 237.362 57.5683C237.206 57.635 237.03 57.6384 236.872 57.5779Z" fill="#E1E4E5"/>
<path fill-rule="evenodd" clip-rule="evenodd" d="M156.989 77.0075C155.099 74.7591 150.62 74.3657 147.691 77.269C145.799 79.1445 145.489 81.2788 145.864 82.7675C145.883 82.8408 145.899 82.9149 145.914 82.9897L153.794 124.183C155.627 132.577 162.295 139.205 170.805 141.03L212.36 148.843L212.371 148.846L212.398 148.851C214.555 149.279 216.857 148.398 218.197 147.069C220.953 144.337 220.953 140.44 218.197 137.709L157.23 77.269C157.146 77.1854 157.065 77.0981 156.989 77.0075ZM138.222 78.6352L108.03 108.827C101.003 115.854 101.003 126.579 108.03 133.605L155.653 181.229C157.185 182.761 159.669 182.761 161.201 181.229C161.247 181.183 161.291 181.136 161.334 181.089L164.92 184.636L167.849 182.468L185.141 183.849L187.061 181.715C188.603 183.048 190.934 182.982 192.398 181.519L217.746 156.17C215.621 156.822 213.273 157.019 210.893 156.551L169.309 148.733C169.278 148.727 169.248 148.721 169.218 148.715C157.681 146.264 148.597 137.277 146.116 125.797C146.109 125.766 146.103 125.736 146.097 125.705L138.226 84.5649C137.772 82.6821 137.754 80.6478 138.222 78.6352Z" fill="#246BFD"/>
<path d="M166.115 42.6143L166.21 47.0605L142.24 48.8531L166.115 42.6143Z" fill="white"/>
<path d="M165.7 52.0336L162.483 55.1965L143.317 48.7549L165.7 52.0336Z" fill="#246BFD"/>
<path d="M142.24 48.853L176.917 55.7702L168.954 46.4033L142.24 48.853Z" fill="#246BFD"/>
<path d="M166.116 42.6143L142.24 48.8532L161.37 36.2812L166.116 42.6143ZM253.445 185.562C245.658 185.707 243.597 186.323 235.513 186.069C231.663 186.105 227.553 185.997 223.789 185.925C221.999 185.453 218.852 185.925 216.729 185.526L215.915 185.779C215.187 185.634 214.335 185.562 213.595 185.707L213.644 185.779C212.558 185.598 211.324 185.707 210.793 185.598L210.842 185.671L209.522 185.634L209.744 185.743C207.844 185.526 205.894 185.526 204.166 185.598L204.314 185.272C200.624 185.634 199.279 184.982 195.959 185.381L196.008 185.453C191.8 184.62 189.368 186.033 185.036 185.236C185.58 185.345 184.802 185.381 184.851 185.49C182.852 185.417 180.729 185.345 180.692 184.729C179.236 184.729 179.508 184.91 179.322 185.164C179.335 184.91 178.064 184.765 176.928 184.765L177.446 184.874L174.188 184.765L174.83 184.258C173.102 184.403 174.386 184.874 172.744 184.765L172.769 184.33C170.387 184.403 168.98 185.055 166.672 185.381C157.071 185.562 146.753 184.475 137.83 185.236L137.435 185.562C137.263 186.033 134.967 184.874 134.634 185.309L133.597 185.091C133.301 185.163 132.684 185.272 133.202 185.381C132.24 185.417 132.215 185.309 131.524 185.2L130.487 185.49C126.698 185.707 123.477 185.164 119.491 185.272C114.702 185.852 105.681 185.309 100.485 185.018C93.1791 184.33 84.6879 186.178 77.209 185.381C76.9622 185.453 76.333 185.309 76.3451 185.236L69.4958 185.309C69.4958 185.309 36.3095 185.49 61.523 181.613L61.3503 181.504C65.102 181.251 67.4593 181.215 70.0388 181.722C70.4462 181.106 73.1118 181.649 73.9882 181.468L73.9016 181.432C76.1849 181.903 78.6038 181.034 80.8129 181.468C80.7264 181.432 80.6773 181.251 80.1713 181.251C81.7754 181.323 83.9721 181.468 84.0957 181.106C87.934 181.215 93.2778 181.034 95.7337 181.613L95.561 181.504C96.9554 181.903 97.3749 181.577 98.9424 181.758C99.0289 181.722 99.14 181.685 99.1151 181.649C100.646 182.048 103.57 181.722 104.792 181.867L104.866 181.613L107.902 181.685L106.767 181.722C107.162 182.374 109.062 181.287 111.259 181.722C113.32 181.649 115.443 183.099 117.578 182.772C118.602 183.099 116.677 182.265 118.207 182.519C118.257 182.157 117.492 182.301 117.887 182.011C119.38 182.193 120.343 181.649 122.194 181.903L122.268 181.649C124.674 182.157 126.809 181.287 128.414 181.758C130.894 181.976 130.08 180.961 132.672 181.468L133.684 181.106C134.794 181.034 134.474 181.541 135.708 181.36C135.634 181.142 137.263 181.178 136.535 180.961C139.311 180.599 142.175 181.468 145.84 180.852C146.63 181.287 148.481 181.034 149.073 181.36C149.172 181.178 152.764 181.323 150.703 180.888C150.53 180.852 150.209 180.852 150.234 180.925L149.987 180.671C152.072 180.164 153.776 180.961 155.849 180.852C155.232 180.925 154.417 180.925 154.96 181.106L156.886 181.069L156.491 180.852L159.354 180.707L158.959 180.997C160.354 180.852 160.847 180.381 162.427 180.78C163.143 180.997 161.106 181.142 162.575 181.251C164.451 181.07 167.252 180.78 169.634 180.707C169.412 181.034 170.054 180.997 170.72 181.069L170.794 180.816C173.324 181.178 171.72 180.236 174.238 180.526L174.016 180.345L174.682 180.925C176.953 181.468 175.904 180.381 178.421 181.106C177.422 181.069 177.952 181.685 179.174 181.577L178.866 181.323C179.545 181.396 179.767 181.504 180.223 181.432C179.816 181.287 180.014 181.069 181.013 181.106L180.347 180.78L182.235 181.251C183.691 180.961 185.999 181.323 186.604 180.961C186.604 180.961 189.739 180.78 190.454 181.178C189.825 180.925 191.553 180.816 191.059 180.526C191.874 180.816 194.268 181.034 195.231 180.744L195.045 180.707C198.6 180.381 201.117 181.142 204.301 180.744C204.153 181.069 205.844 180.888 205.425 181.287C208.72 181.686 211.435 180.454 212.632 181.722C214.138 181.794 214.409 181.432 215.187 181.36L214.829 181.287C217.643 181.396 218.457 181.396 220.543 181.36C221.58 181.468 221.752 182.048 223.616 181.903C223.011 181.686 223.776 181.722 224.467 181.722C224.023 181.685 223.887 181.613 224.801 181.432C224.924 181.504 225.134 181.541 225.319 181.577C225.331 181.577 225.368 181.541 225.344 181.504C226.504 181.577 226.306 181.649 225.763 181.685C225.788 181.722 225.751 181.758 225.578 181.83C226.788 181.541 228.947 181.867 229.096 181.468C232.6 181.577 235.106 181.976 238.018 182.12C238.352 181.903 237.66 181.722 236.821 181.649L238.895 181.722C238.882 181.432 237.71 181.541 237.068 181.504C239.536 181.034 242.153 181.976 245.041 181.541L245.645 181.758L245.818 181.722C245.806 181.83 246.46 182.011 246.88 182.048C247.287 181.794 246.855 181.468 248.286 181.468C249.422 181.215 251.495 181.577 252.976 181.722C252.174 181.758 252.433 181.903 252.779 182.011C253.495 182.011 253.902 181.758 254.457 181.867L254.531 181.541C254.247 181.867 256.395 181.903 256.666 182.011C257.074 181.758 255.556 181.794 255.383 181.613C258.246 181.649 256.814 181.613 259.69 181.649C261.22 181.903 259.406 181.976 260.147 182.265C261.492 182.338 262.812 182.555 264.367 182.374L263.873 182.664C266.416 182.917 267.934 182.881 269.637 182.555C288.544 185.018 273.623 185.925 273.623 185.925C266.145 186.685 262.306 185.816 253.445 185.562Z" fill="#246BFD"/>
<path d="M243.956 112.836C242.326 113.776 240.243 113.218 239.303 111.589C238.362 109.96 238.921 107.877 240.55 106.936C242.179 105.996 244.262 106.554 245.202 108.183C246.143 109.812 245.585 111.895 243.956 112.836Z" fill="#31446C"/>
<path d="M81.7667 152.533C83.9942 152.533 85.8 154.339 85.8 156.566C85.8 158.794 83.9942 160.6 81.7667 160.6C79.5391 160.6 77.7333 158.794 77.7333 156.566C77.7333 154.339 79.5391 152.533 81.7667 152.533Z" fill="#31446C"/>
<path d="M118.246 74.4331C116.729 74.4331 115.5 75.6627 115.5 77.1794C115.5 78.6962 116.729 79.9258 118.246 79.9258C119.763 79.9258 120.992 78.6962 120.992 77.1794C120.992 75.6627 119.763 74.4331 118.246 74.4331Z" fill="#E1E4E5"/>
<path d="M101.197 152.491C99.789 152.491 98.6473 153.633 98.6473 155.042C98.6473 156.45 99.789 157.592 101.197 157.592C102.606 157.592 103.748 156.45 103.748 155.042C103.748 153.633 102.606 152.491 101.197 152.491Z" fill="#E1E4E5"/>
<path d="M65.497 110.121C64.0885 110.121 62.9468 111.263 62.9468 112.672C62.9468 114.08 64.0885 115.222 65.497 115.222C66.9054 115.222 68.0471 114.08 68.0471 112.672C68.0471 111.263 66.9054 110.121 65.497 110.121Z" fill="#E1E4E5"/>
<path d="M85.9463 77.756C89.6596 77.756 92.6699 80.7662 92.6699 84.4796C92.6699 88.1929 89.6596 91.2031 85.9463 91.2031C82.233 91.2031 79.2227 88.1929 79.2227 84.4796C79.2227 80.7662 82.233 77.756 85.9463 77.756Z" fill="#246BFD"/>
<path d="M191.9 73.2831C193.135 74.518 195.137 74.518 196.372 73.2831C197.607 72.0482 197.607 70.0461 196.372 68.8112C195.137 67.5763 193.135 67.5763 191.9 68.8112C190.665 70.046 190.665 72.0482 191.9 73.2831Z" fill="#E1E4E5"/>
<path d="M238.237 143.297C236.025 141.085 236.025 137.499 238.237 135.286C240.449 133.074 244.036 133.074 246.248 135.286C248.46 137.499 248.46 141.085 246.248 143.297C244.036 145.51 240.449 145.51 238.237 143.297Z" fill="#246BFD"/>
</g>
<defs>
<linearGradient id="paint0_linear_407_23222" x1="86.0171" y1="255.526" x2="265.847" y2="-20.0888" gradientUnits="userSpaceOnUse">
<stop stop-color="white"/>
<stop offset="1" stop-color="#EEEEEE"/>
</linearGradient>
<linearGradient id="paint1_linear_407_23222" x1="193.678" y1="115.927" x2="259.38" y2="51.78" gradientUnits="userSpaceOnUse">
<stop stop-color="white"/>
<stop offset="1" stop-color="#EEEEEE"/>
</linearGradient>
</defs>
</svg>
