<svg width="24" height="20" viewBox="0 0 24 20" fill="none" xmlns="http://www.w3.org/2000/svg">
<path d="M13.5771 9.85417L15.9168 12.5233L19.0633 14.5298L19.6106 9.87102L19.0633 5.31738L15.8566 7.07998L13.5771 9.85417Z" fill="#00832D"/>
<path d="M0 14.0965V18.0664C0 18.9729 0.737183 19.7088 1.64565 19.7088H5.62348L6.44718 16.7093L5.62348 14.0965L2.89442 13.2744L0 14.0965Z" fill="#0066DA"/>
<path d="M5.62348 0L0 5.61231L2.8946 6.43245L5.62348 5.61231L6.43221 3.03512L5.62348 0Z" fill="#E94235"/>
<path d="M0 14.0982H5.62348V5.6123H0V14.0982Z" fill="#2684FC"/>
<path d="M22.6557 2.37643L19.0635 5.31774V14.5299L22.6707 17.4827C23.2107 17.9049 24.0006 17.5201 24.0006 16.8351V3.01087C24.0006 2.31823 23.1919 1.93535 22.6557 2.37643Z" fill="#00AC47"/>
<path d="M13.5766 9.85449V14.0965H5.62305V19.7088H17.4171C18.3256 19.7088 19.0628 18.9729 19.0628 18.0664V14.5301L13.5766 9.85449Z" fill="#00AC47"/>
<path d="M17.4171 0H5.62305V5.61231H13.5766V9.85428L19.0628 5.3175V1.64238C19.0628 0.735718 18.3256 0 17.4171 0Z" fill="#FFBA00"/>
</svg>
