<svg width="25" height="25" viewBox="0 0 25 25" fill="none" xmlns="http://www.w3.org/2000/svg">
<path d="M17.5 2.5H7.5C4.74 2.5 2.5 4.73 2.5 7.48V13.46V14.46C2.5 17.21 4.74 19.44 7.5 19.44H9C9.27 19.44 9.63 19.62 9.8 19.84L11.3 21.83C11.96 22.71 13.04 22.71 13.7 21.83L15.2 19.84C15.39 19.59 15.69 19.44 16 19.44H17.5C20.26 19.44 22.5 17.21 22.5 14.46V7.48C22.5 4.73 20.26 2.5 17.5 2.5ZM13.5 14.25H7.5C7.09 14.25 6.75 13.91 6.75 13.5C6.75 13.09 7.09 12.75 7.5 12.75H13.5C13.91 12.75 14.25 13.09 14.25 13.5C14.25 13.91 13.91 14.25 13.5 14.25ZM17.5 9.25H7.5C7.09 9.25 6.75 8.91 6.75 8.5C6.75 8.09 7.09 7.75 7.5 7.75H17.5C17.91 7.75 18.25 8.09 18.25 8.5C18.25 8.91 17.91 9.25 17.5 9.25Z" fill="#246BFD"/>
</svg>
