<svg width="21" height="20" viewBox="0 0 21 20" fill="none" xmlns="http://www.w3.org/2000/svg">
<path d="M8.83333 15.8333C8.83333 16.75 9.58333 17.5 10.5 17.5C11.4167 17.5 12.1667 16.75 12.1667 15.8333C12.1667 14.9167 11.4167 14.1667 10.5 14.1667C9.58333 14.1667 8.83333 14.9167 8.83333 15.8333Z" stroke="#555555" stroke-width="1.25"/>
<path d="M8.83333 4.16683C8.83333 5.0835 9.58333 5.8335 10.5 5.8335C11.4167 5.8335 12.1667 5.0835 12.1667 4.16683C12.1667 3.25016 11.4167 2.50016 10.5 2.50016C9.58333 2.50016 8.83333 3.25016 8.83333 4.16683Z" stroke="#555555" stroke-width="1.25"/>
<path d="M8.83333 9.99984C8.83333 10.9165 9.58333 11.6665 10.5 11.6665C11.4167 11.6665 12.1667 10.9165 12.1667 9.99984C12.1667 9.08317 11.4167 8.33317 10.5 8.33317C9.58333 8.33317 8.83333 9.08317 8.83333 9.99984Z" stroke="#555555" stroke-width="1.25"/>
</svg>
