<svg width="25" height="24" viewBox="0 0 25 24" fill="none" xmlns="http://www.w3.org/2000/svg">
<path d="M19.6201 9.11999C19.2301 9.11999 18.9201 9.42999 18.9201 9.81999V11.4C18.9201 14.94 16.0401 17.82 12.5001 17.82C8.96005 17.82 6.08005 14.94 6.08005 11.4V9.80999C6.08005 9.41999 5.77005 9.10999 5.38005 9.10999C4.99005 9.10999 4.68005 9.41999 4.68005 9.80999V11.39C4.68005 15.46 7.81005 18.81 11.8001 19.17V21.3C11.8001 21.69 12.1101 22 12.5001 22C12.8901 22 13.2001 21.69 13.2001 21.3V19.17C17.1801 18.82 20.3201 15.46 20.3201 11.39V9.80999C20.3101 9.42999 20.0001 9.11999 19.6201 9.11999Z" fill="white"/>
<path d="M12.5 2C10.06 2 8.07996 3.98 8.07996 6.42V11.54C8.07996 13.98 10.06 15.96 12.5 15.96C14.94 15.96 16.92 13.98 16.92 11.54V6.42C16.92 3.98 14.94 2 12.5 2ZM13.81 8.95C13.74 9.21 13.51 9.38 13.25 9.38C13.2 9.38 13.15 9.37 13.1 9.36C12.71 9.25 12.3 9.25 11.91 9.36C11.59 9.45 11.28 9.26 11.2 8.95C11.11 8.64 11.3 8.32 11.61 8.24C12.2 8.08 12.82 8.08 13.41 8.24C13.71 8.32 13.89 8.64 13.81 8.95ZM14.34 7.01C14.25 7.25 14.03 7.39 13.79 7.39C13.72 7.39 13.66 7.38 13.59 7.36C12.89 7.1 12.11 7.1 11.41 7.36C11.11 7.47 10.77 7.31 10.66 7.01C10.55 6.71 10.71 6.37 11.01 6.27C11.97 5.92 13.03 5.92 13.99 6.27C14.29 6.38 14.45 6.71 14.34 7.01Z" fill="white"/>
</svg>
