<svg width="175" height="165" viewBox="0 0 175 165" fill="none" xmlns="http://www.w3.org/2000/svg">
<path d="M125.852 116.817C122.365 116.817 119.538 119.644 119.538 123.131C119.538 126.619 122.365 129.446 125.852 129.446C129.34 129.446 132.167 126.619 132.167 123.131C132.167 119.644 129.34 116.817 125.852 116.817Z" fill="#246BFD"/>
<path d="M50.079 51.3047C48.3353 51.3047 46.9217 52.7182 46.9217 54.4619C46.9217 56.2056 48.3353 57.6191 50.079 57.6191C51.8226 57.6191 53.2362 56.2056 53.2362 54.4619C53.2362 52.7182 51.8226 51.3047 50.079 51.3047Z" fill="#246BFD"/>
<path d="M12.587 96.2951C10.6254 96.2951 9.03515 94.7049 9.03515 92.7433C9.03515 90.7816 10.6254 89.1914 12.587 89.1914C14.5487 89.1914 16.1389 90.7816 16.1389 92.7433C16.1389 94.7049 14.5487 96.2951 12.587 96.2951Z" fill="#246BFD"/>
<path d="M148.347 68.6694C147.257 68.6694 146.374 67.9627 146.374 67.0908C146.374 66.219 147.257 65.5122 148.347 65.5122C149.437 65.5122 150.321 66.219 150.321 67.0908C150.321 67.9627 149.437 68.6694 148.347 68.6694Z" fill="#246BFD"/>
<path d="M154.662 42.6223C153.136 42.6223 151.899 41.3855 151.899 39.8597C151.899 38.334 153.136 37.0972 154.662 37.0972C156.187 37.0972 157.424 38.334 157.424 39.8597C157.424 41.3855 156.187 42.6223 154.662 42.6223Z" fill="#BDD8FF"/>
<path d="M5.89862 70.7853C6.2545 72.1135 5.46631 73.4786 4.13814 73.8345C2.80997 74.1904 1.44478 73.4022 1.0889 72.0741C0.733018 70.7459 1.52121 69.3807 2.84938 69.0248C4.17755 68.6689 5.54274 69.4571 5.89862 70.7853Z" fill="#DAE8FF"/>
<path d="M67.4436 26.0471C65.7 26.0471 64.2864 24.6336 64.2864 22.8899C64.2864 21.1462 65.7 19.7327 67.4436 19.7327C69.1873 19.7327 70.6009 21.1462 70.6009 22.8899C70.6009 24.6336 69.1873 26.0471 67.4436 26.0471Z" fill="#E1E4E5"/>
<path fill-rule="evenodd" clip-rule="evenodd" d="M137.754 42.0228L118.914 23.4555C117.677 22.2365 116.213 21.2731 114.603 20.6202C112.994 19.9674 111.273 19.6379 109.536 19.6506L62.1241 20.0174C54.8194 20.0742 48.9485 26.0415 49.005 33.3529L49.7219 125.985C49.7784 133.296 55.7408 139.172 63.0456 139.116L129.153 138.604C136.458 138.548 142.328 132.58 142.272 125.269L141.7 51.3486C141.672 47.8399 140.253 44.4858 137.754 42.0228Z" fill="white" stroke="#EEF5FF" stroke-width="3.498"/>
<path d="M121.08 101.357L70.9094 101.745C69.0622 101.759 67.5762 103.268 67.5905 105.115C67.6048 106.962 69.1139 108.448 70.9612 108.434L121.131 108.046C122.979 108.032 124.465 106.523 124.45 104.676C124.436 102.828 122.927 101.342 121.08 101.357Z" fill="#EEF5FF"/>
<path d="M120.976 88.0761L70.8062 88.464C68.9589 88.4783 67.4729 89.9873 67.4872 91.8345C67.5015 93.6817 69.0106 95.1676 70.8579 95.1533L121.028 94.7654C122.875 94.7511 124.361 93.2421 124.347 91.3949C124.333 89.5477 122.824 88.0618 120.976 88.0761Z" fill="#EEF5FF"/>
<path d="M120.874 74.762L70.7037 75.1499C68.8564 75.1642 67.3704 76.6732 67.3847 78.5204C67.399 80.3676 68.9081 81.8535 70.7554 81.8392L120.926 81.4513C122.773 81.437 124.259 79.928 124.245 78.0808C124.23 76.2336 122.721 74.7477 120.874 74.762Z" fill="#EEF5FF"/>
<path d="M120.771 61.4488L70.6004 61.8367C68.7531 61.851 67.2671 63.36 67.2814 65.2072C67.2957 67.0544 68.8048 68.5403 70.6521 68.526L120.822 68.1381C122.67 68.1238 124.156 66.6148 124.141 64.7676C124.127 62.9204 122.618 61.4345 120.771 61.4488Z" fill="#EEF5FF"/>
<path d="M120.668 48.1351L70.4978 48.523C68.6506 48.5372 67.1646 50.0463 67.1789 51.8935C67.1932 53.7407 68.7023 55.2266 70.5496 55.2123L120.72 54.8244C122.567 54.8101 124.053 53.3011 124.039 51.4539C124.024 49.6067 122.515 48.1208 120.668 48.1351Z" fill="#EEF5FF"/>
<path d="M121.183 114.736L71.0127 115.124C69.1655 115.138 67.6795 116.647 67.6938 118.494C67.7081 120.341 69.2172 121.827 71.0645 121.813L121.235 121.425C123.082 121.411 124.568 119.902 124.554 118.054C124.539 116.207 123.03 114.721 121.183 114.736Z" fill="#EEF5FF"/>
<path fill-rule="evenodd" clip-rule="evenodd" d="M42.4376 85.2599L43.0089 86.9168C44.9876 92.6653 51.2499 95.7197 56.9985 93.741C62.7471 91.7624 65.8014 85.5 63.8227 79.7514L63.2511 78.0946" fill="#246BFD"/>
<path fill-rule="evenodd" clip-rule="evenodd" d="M42.2098 33.0235L40.9943 29.4951C39.6531 25.6052 35.4133 23.536 31.5193 24.8775C27.6291 26.2189 25.5601 30.4585 26.8975 34.3486L28.113 37.877" fill="#246BFD"/>
<path fill-rule="evenodd" clip-rule="evenodd" d="M21.3996 57.9011C18.0866 48.2835 23.2003 37.8003 32.8176 34.4875L39.7847 32.0892C49.4023 28.7764 59.8855 33.8899 63.1982 43.5072L66.8974 54.2548C67.5992 56.2927 69.0818 57.9683 71.019 58.9131L74.332 60.5268C75.2913 60.9944 76.149 61.6466 76.8562 62.4459C77.5634 63.2452 78.1062 64.176 78.4536 65.1851C79.8357 69.1971 77.7017 73.5709 73.6897 74.953L32.4924 89.1393C28.4804 90.5214 24.1066 88.3874 22.7247 84.3754C22.0224 82.3368 22.1583 80.1026 23.1026 78.1641L24.7164 74.8514C25.1849 73.8919 25.4595 72.8494 25.5243 71.7835C25.5892 70.7177 25.443 69.6496 25.0943 68.6404L21.3996 57.9011Z" fill="#246BFD"/>
<path d="M144.804 145.152L138.792 134.18" stroke="#246BFD" stroke-width="8" stroke-linecap="round" stroke-linejoin="round"/>
<path d="M118.756 134.5C132.158 138.849 146.547 131.511 150.896 118.11C155.246 104.708 147.907 90.3188 134.506 85.9696C121.105 81.6204 106.715 88.9586 102.366 102.36C98.0167 115.761 105.355 130.151 118.756 134.5Z" fill="white" stroke="#246BFD" stroke-width="8" stroke-linecap="round" stroke-linejoin="round"/>
<path d="M156.328 141C154.671 141 153.328 139.657 153.328 138C153.328 136.343 154.671 135 156.328 135C157.985 135 159.328 136.343 159.328 138C159.328 139.657 157.985 141 156.328 141Z" fill="#E1E4E5"/>
</svg>
