<svg width="25" height="25" viewBox="0 0 25 25" fill="none" xmlns="http://www.w3.org/2000/svg">
<path d="M21.625 6.5H19.625L18.355 5.23C17.8957 4.77023 17.2748 4.50825 16.625 4.5H14.125C13.9849 3.9388 13.6644 3.43913 13.2128 3.07779C12.7611 2.71646 12.2033 2.51346 11.625 2.5V8.86C11.6764 9.86993 12.0756 10.831 12.755 11.58C13.8736 12.6553 15.3366 13.3 16.885 13.4L20.335 12.02C20.7398 11.8575 21.1043 11.6087 21.4031 11.2909C21.7018 10.9731 21.9277 10.594 22.065 10.18L22.625 8.65C22.6402 8.54722 22.6402 8.44278 22.625 8.34V7.5C22.625 7.23478 22.5196 6.98043 22.3321 6.79289C22.1446 6.60536 21.8902 6.5 21.625 6.5ZM16.625 8.5C16.4272 8.5 16.2339 8.44135 16.0694 8.33147C15.905 8.22159 15.7768 8.06541 15.7011 7.88268C15.6254 7.69996 15.6056 7.49889 15.6442 7.30491C15.6828 7.11093 15.778 6.93275 15.9179 6.79289C16.0577 6.65304 16.2359 6.5578 16.4299 6.51921C16.6239 6.48063 16.825 6.50043 17.0077 6.57612C17.1904 6.65181 17.3466 6.77998 17.4565 6.94443C17.5664 7.10888 17.625 7.30222 17.625 7.5C17.625 7.76522 17.5196 8.01957 17.3321 8.20711C17.1446 8.39464 16.8902 8.5 16.625 8.5Z" fill="url(#paint0_linear_407_25153)"/>
<path d="M12.005 12.24C11.3074 11.476 10.8516 10.5226 10.695 9.5H6.625C6.35778 9.51768 6.08987 9.47806 5.83921 9.38381C5.58854 9.28955 5.3609 9.14283 5.17154 8.95346C4.98217 8.7641 4.83545 8.53646 4.74119 8.28579C4.64694 8.03513 4.60732 7.76722 4.625 7.5C4.625 7.23478 4.51964 6.98043 4.33211 6.79289C4.14457 6.60536 3.89022 6.5 3.625 6.5C3.35978 6.5 3.10543 6.60536 2.91789 6.79289C2.73036 6.98043 2.625 7.23478 2.625 7.5C2.63505 8.19397 2.79899 8.87706 3.105 9.5C3.44235 10.1541 3.97311 10.6884 4.625 11.03V22.5H7.625V17.5H13.625V22.5H16.625V14.37C14.8806 14.2326 13.2424 13.4773 12.005 12.24Z" fill="url(#paint1_linear_407_25153)"/>
<defs>
<linearGradient id="paint0_linear_407_25153" x1="22.6364" y1="13.4" x2="9.55466" y2="9.56831" gradientUnits="userSpaceOnUse">
<stop stop-color="#246BFD"/>
<stop offset="1" stop-color="#5089FF"/>
</linearGradient>
<linearGradient id="paint1_linear_407_25153" x1="16.625" y1="22.5" x2="-0.34212" y2="18.1955" gradientUnits="userSpaceOnUse">
<stop stop-color="#246BFD"/>
<stop offset="1" stop-color="#5089FF"/>
</linearGradient>
</defs>
</svg>
