<svg width="21" height="20" viewBox="0 0 21 20" fill="none" xmlns="http://www.w3.org/2000/svg">
<path d="M15.4333 8.95817C15.075 8.95817 14.7916 8.6665 14.7916 8.3165C14.7916 8.00817 14.4833 7.3665 13.9666 6.80817C13.4583 6.2665 12.9 5.94984 12.4333 5.94984C12.075 5.94984 11.7916 5.65817 11.7916 5.30817C11.7916 4.95817 12.0833 4.6665 12.4333 4.6665C13.2666 4.6665 14.1416 5.1165 14.9083 5.92484C15.625 6.68317 16.0833 7.62484 16.0833 8.30817C16.0833 8.6665 15.7916 8.95817 15.4333 8.95817Z" fill="#2B2B2B"/>
<path d="M18.4417 8.95817C18.0834 8.95817 17.8 8.6665 17.8 8.3165C17.8 5.35817 15.3917 2.95817 12.4417 2.95817C12.0834 2.95817 11.8 2.6665 11.8 2.3165C11.8 1.9665 12.0834 1.6665 12.4334 1.6665C16.1 1.6665 19.0834 4.64984 19.0834 8.3165C19.0834 8.6665 18.7917 8.95817 18.4417 8.95817Z" fill="#2B2B2B"/>
<path d="M9.95829 12.4582L8.41663 13.9998C8.09163 14.3248 7.57496 14.3248 7.24163 14.0082C7.14996 13.9165 7.05829 13.8332 6.96663 13.7415C6.10829 12.8748 5.33329 11.9665 4.64163 11.0165C3.95829 10.0665 3.40829 9.1165 3.00829 8.17484C2.61663 7.22484 2.41663 6.3165 2.41663 5.44984C2.41663 4.88317 2.51663 4.3415 2.71663 3.8415C2.91663 3.33317 3.23329 2.8665 3.67496 2.44984C4.20829 1.92484 4.79163 1.6665 5.40829 1.6665C5.64163 1.6665 5.87496 1.7165 6.08329 1.8165C6.29996 1.9165 6.49163 2.0665 6.64163 2.28317L8.57496 5.00817C8.72496 5.2165 8.83329 5.40817 8.90829 5.5915C8.98329 5.7665 9.02496 5.9415 9.02496 6.09984C9.02496 6.29984 8.96663 6.49984 8.84996 6.6915C8.74163 6.88317 8.58329 7.08317 8.38329 7.28317L7.74996 7.9415C7.65829 8.03317 7.61663 8.1415 7.61663 8.27484C7.61663 8.3415 7.62496 8.39984 7.64163 8.4665C7.66663 8.53317 7.69163 8.58317 7.70829 8.63317C7.85829 8.90817 8.11663 9.2665 8.48329 9.69984C8.85829 10.1332 9.25829 10.5748 9.69163 11.0165C9.77496 11.0998 9.86663 11.1832 9.94996 11.2665C10.2833 11.5915 10.2916 12.1248 9.95829 12.4582Z" fill="#2B2B2B"/>
<path d="M19.0583 15.2752C19.0583 15.5085 19.0167 15.7502 18.9333 15.9835C18.9083 16.0502 18.8833 16.1169 18.85 16.1835C18.7083 16.4835 18.525 16.7669 18.2833 17.0335C17.875 17.4835 17.425 17.8085 16.9167 18.0169C16.9083 18.0169 16.9 18.0252 16.8917 18.0252C16.4 18.2252 15.8667 18.3335 15.2917 18.3335C14.4417 18.3335 13.5333 18.1335 12.575 17.7252C11.6167 17.3169 10.6583 16.7669 9.70833 16.0752C9.38333 15.8335 9.05833 15.5919 8.75 15.3335L11.475 12.6085C11.7083 12.7835 11.9167 12.9169 12.0917 13.0085C12.1333 13.0252 12.1833 13.0502 12.2417 13.0752C12.3083 13.1002 12.375 13.1085 12.45 13.1085C12.5917 13.1085 12.7 13.0585 12.7917 12.9669L13.425 12.3419C13.6333 12.1335 13.8333 11.9752 14.025 11.8752C14.2167 11.7585 14.4083 11.7002 14.6167 11.7002C14.775 11.7002 14.9417 11.7335 15.125 11.8085C15.3083 11.8835 15.5 11.9919 15.7083 12.1335L18.4667 14.0919C18.6833 14.2419 18.8333 14.4169 18.925 14.6252C19.0083 14.8335 19.0583 15.0419 19.0583 15.2752Z" fill="#2B2B2B"/>
</svg>
