<svg width="20" height="20" viewBox="0 0 20 20" fill="none" xmlns="http://www.w3.org/2000/svg">
<path d="M1.6665 10.2917H6.49983C7.77483 10.2917 8.64984 11.2584 8.64984 12.4418V15.1251C8.64984 16.3085 7.77483 17.2751 6.49983 17.2751H3.81652C2.63318 17.2751 1.6665 16.3085 1.6665 15.1251V10.2917" stroke="#246BFD" stroke-width="1.5" stroke-linecap="round" stroke-linejoin="round"/>
<path d="M1.6665 10.2917C1.6665 5.25002 2.60819 4.41673 5.44153 2.7334" stroke="#246BFD" stroke-width="1.5" stroke-linecap="round" stroke-linejoin="round"/>
<path d="M11.3584 10.2917H16.1917C17.4667 10.2917 18.3417 11.2584 18.3417 12.4418V15.1251C18.3417 16.3085 17.4667 17.2751 16.1917 17.2751H13.5084C12.3251 17.2751 11.3584 16.3085 11.3584 15.1251V10.2917" stroke="#246BFD" stroke-width="1.5" stroke-linecap="round" stroke-linejoin="round"/>
<path d="M11.3584 10.2917C11.3584 5.25002 12.3 4.41673 15.1334 2.7334" stroke="#246BFD" stroke-width="1.5" stroke-linecap="round" stroke-linejoin="round"/>
</svg>
