<svg width="21" height="20" viewBox="0 0 21 20" fill="none" xmlns="http://www.w3.org/2000/svg">
<path fill-rule="evenodd" clip-rule="evenodd" d="M14.3498 0.500648C14.9808 0.500648 15.6108 0.589648 16.2098 0.790648C19.9008 1.99065 21.2308 6.04065 20.1198 9.58065C19.4898 11.3896 18.4598 13.0406 17.1108 14.3896C15.1798 16.2596 13.0608 17.9196 10.7798 19.3496L10.5298 19.5006L10.2698 19.3396C7.98077 17.9196 5.84977 16.2596 3.90077 14.3796C2.56077 13.0306 1.52977 11.3896 0.889772 9.58065C-0.240228 6.04065 1.08977 1.99065 4.82077 0.769648C5.11077 0.669648 5.40977 0.599648 5.70977 0.560648H5.82977C6.11077 0.519648 6.38977 0.500648 6.66977 0.500648H6.77977C7.40977 0.519648 8.01977 0.629648 8.61077 0.830648H8.66977C8.70977 0.849648 8.73977 0.870648 8.75977 0.889648C8.98077 0.960648 9.18977 1.04065 9.38977 1.15065L9.76977 1.32065C9.86159 1.36962 9.96466 1.44445 10.0537 1.50912C10.1102 1.55009 10.161 1.58699 10.1998 1.61065C10.2161 1.62028 10.2327 1.62996 10.2494 1.63972C10.3351 1.68977 10.4245 1.74191 10.4998 1.79965C11.6108 0.950648 12.9598 0.490648 14.3498 0.500648ZM17.0098 7.70065C17.4198 7.68965 17.7698 7.36065 17.7998 6.93965V6.82065C17.8298 5.41965 16.9808 4.15065 15.6898 3.66065C15.2798 3.51965 14.8298 3.74065 14.6798 4.16065C14.5398 4.58065 14.7598 5.04065 15.1798 5.18965C15.8208 5.42965 16.2498 6.06065 16.2498 6.75965V6.79065C16.2308 7.01965 16.2998 7.24065 16.4398 7.41065C16.5798 7.58065 16.7898 7.67965 17.0098 7.70065Z" fill="#F75555"/>
</svg>
