<svg width="25" height="25" viewBox="0 0 25 25" fill="none" xmlns="http://www.w3.org/2000/svg">
<path d="M12.125 10.5H10.125V3.5H8.125V10.5H6.125V3.5H4.125V11.5C4.125 13.154 5.471 14.5 7.125 14.5H8.125V21.5H10.125V14.5H11.125C12.779 14.5 14.125 13.154 14.125 11.5V3.5H12.125V10.5ZM19.125 3.5H18.125C16.966 3.5 16.125 4.762 16.125 6.5V14.5H18.125V21.5H20.125V4.5C20.125 4.23478 20.0196 3.98043 19.8321 3.79289C19.6446 3.60536 19.3902 3.5 19.125 3.5Z" fill="url(#paint0_linear_407_25140)"/>
<defs>
<linearGradient id="paint0_linear_407_25140" x1="20.125" y1="21.5" x2="0.771453" y2="16.5121" gradientUnits="userSpaceOnUse">
<stop stop-color="#246BFD"/>
<stop offset="1" stop-color="#5089FF"/>
</linearGradient>
</defs>
</svg>
