<svg width="25" height="25" viewBox="0 0 25 25" fill="none" xmlns="http://www.w3.org/2000/svg">
<path d="M12 21.5C17.2467 21.5 21.5 17.2467 21.5 12C21.5 6.75329 17.2467 2.5 12 2.5C6.75329 2.5 2.5 6.75329 2.5 12C2.5 17.2467 6.75329 21.5 12 21.5Z" fill="#246BFD"/>
<path d="M21.8001 22.5001C21.6201 22.5001 21.4401 22.4301 21.3101 22.3001L19.4501 20.4401C19.1801 20.1701 19.1801 19.7301 19.4501 19.4501C19.7201 19.1801 20.1601 19.1801 20.4401 19.4501L22.3001 21.3101C22.5701 21.5801 22.5701 22.0201 22.3001 22.3001C22.1601 22.4301 21.9801 22.5001 21.8001 22.5001Z" fill="#246BFD"/>
</svg>
