<svg width="56" height="56" viewBox="0 0 56 56" fill="none" xmlns="http://www.w3.org/2000/svg">
<rect width="56" height="56" rx="28" fill="#246BFD"/>
<path d="M34.07 24.51L25.51 20.23C19.76 17.35 17.4 19.71 20.28 25.46L21.15 27.2C21.4 27.71 21.4 28.3 21.15 28.81L20.28 30.54C17.4 36.29 19.75 38.65 25.51 35.77L34.07 31.49C37.91 29.57 37.91 26.43 34.07 24.51ZM30.84 28.75H25.44C25.03 28.75 24.69 28.41 24.69 28C24.69 27.59 25.03 27.25 25.44 27.25H30.84C31.25 27.25 31.59 27.59 31.59 28C31.59 28.41 31.25 28.75 30.84 28.75Z" fill="white"/>
</svg>
