<svg width="22" height="22" viewBox="0 0 22 22" fill="none" xmlns="http://www.w3.org/2000/svg">
<path d="M17.875 7.33333C19.1407 7.33333 20.1667 6.30732 20.1667 5.04167C20.1667 3.77601 19.1407 2.75 17.875 2.75C16.6093 2.75 15.5833 3.77601 15.5833 5.04167C15.5833 6.30732 16.6093 7.33333 17.875 7.33333Z" fill="white"/>
<path d="M17.875 7.33333C19.1407 7.33333 20.1667 6.30732 20.1667 5.04167C20.1667 3.77601 19.1407 2.75 17.875 2.75C16.6093 2.75 15.5833 3.77601 15.5833 5.04167C15.5833 6.30732 16.6093 7.33333 17.875 7.33333Z" fill="white"/>
<path d="M18.9933 8.53409C18.3517 8.73575 17.6458 8.77242 16.9125 8.58909C15.6842 8.26825 14.685 7.28742 14.3458 6.05909C14.1808 5.46325 14.1717 4.87659 14.2725 4.34492C14.3917 3.75825 13.9792 3.20825 13.3925 3.20825H6.41667C3.66667 3.20825 1.83333 4.58325 1.83333 7.79158V14.2083C1.83333 17.4166 3.66667 18.7916 6.41667 18.7916H15.5833C18.3333 18.7916 20.1667 17.4166 20.1667 14.2083V9.40492C20.1667 8.79992 19.58 8.34159 18.9933 8.53409ZM14.2267 10.2208L13.145 11.0824C12.54 11.5683 11.77 11.8066 11 11.8066C10.23 11.8066 9.45083 11.5683 8.855 11.0824L5.98583 8.79075C5.6925 8.55242 5.64667 8.11242 5.87583 7.81908C6.11417 7.52575 6.545 7.47075 6.83833 7.70908L9.7075 10.0008C10.4042 10.5599 11.5867 10.5599 12.2833 10.0008L13.365 9.13909C13.6583 8.90075 14.0983 8.94659 14.3275 9.24908C14.5658 9.54242 14.52 9.98242 14.2267 10.2208Z" fill="white"/>
</svg>
