<svg width="25" height="25" viewBox="0 0 25 25" fill="none" xmlns="http://www.w3.org/2000/svg">
<path d="M17.375 6.5C18.4796 6.5 19.375 5.60457 19.375 4.5C19.375 3.39543 18.4796 2.5 17.375 2.5C16.2704 2.5 15.375 3.39543 15.375 4.5C15.375 5.60457 16.2704 6.5 17.375 6.5Z" fill="url(#paint0_linear_407_25159)"/>
<path d="M16.152 11.469C16.3816 11.811 16.7108 12.0742 17.0951 12.2227C17.4794 12.3712 17.9001 12.3978 18.3 12.299L21.616 11.47L21.133 9.52997L17.817 10.359L16.438 8.29197C16.1434 7.85053 15.6861 7.54354 15.166 7.43797L11.32 6.66797C10.8897 6.58162 10.443 6.63933 10.0488 6.83217C9.65464 7.02502 9.3349 7.34229 9.139 7.73497L7.481 11.051L9.27 11.946L10.928 8.62897L12.895 9.02297L7.809 17.5H3.375V19.5H7.809C8.507 19.5 9.164 19.128 9.524 18.529L11.442 15.333L16.611 16.367L18.427 21.816L20.323 21.183L18.508 15.735C18.396 15.4005 18.1978 15.1014 17.9334 14.8679C17.669 14.6345 17.3478 14.4748 17.002 14.405L13.963 13.798L15.735 10.844L16.152 11.469Z" fill="url(#paint1_linear_407_25159)"/>
<defs>
<linearGradient id="paint0_linear_407_25159" x1="19.375" y1="6.5" x2="14.6154" y2="5.11999" gradientUnits="userSpaceOnUse">
<stop stop-color="#246BFD"/>
<stop offset="1" stop-color="#5089FF"/>
</linearGradient>
<linearGradient id="paint1_linear_407_25159" x1="21.616" y1="21.816" x2="0.631115" y2="14.5081" gradientUnits="userSpaceOnUse">
<stop stop-color="#246BFD"/>
<stop offset="1" stop-color="#5089FF"/>
</linearGradient>
</defs>
</svg>
