<svg width="17" height="17" viewBox="0 0 17 17" fill="none" xmlns="http://www.w3.org/2000/svg">
<mask id="mask0_407_25058" style="mask-type:alpha" maskUnits="userSpaceOnUse" x="2" y="2" width="13" height="13">
<path fill-rule="evenodd" clip-rule="evenodd" d="M4.03333 4.96667L3.06667 5.93333C2.86 6.14 2.5 5.99333 2.5 5.69333V2.83333C2.5 2.64667 2.64667 2.5 2.83333 2.5H5.69333C5.99333 2.5 6.14 2.86 5.93333 3.06667L4.96667 4.03333L6.42 5.47333C6.68 5.73333 6.68 6.16 6.42 6.42C6.16 6.68 5.73333 6.68 5.47333 6.42L4.03333 4.96667ZM12.0333 4.03333L11.0667 3.06667C10.86 2.86 11.0067 2.5 11.3067 2.5H14.1667C14.3533 2.5 14.5 2.64667 14.5 2.83333V5.69333C14.5 5.99333 14.14 6.14 13.9333 5.93333L12.9667 4.96667L11.5267 6.42C11.2667 6.68 10.84 6.68 10.58 6.42C10.32 6.16 10.32 5.73333 10.58 5.47333L12.0333 4.03333ZM5.93333 13.9333L4.96667 12.9667L6.42 11.5267C6.68 11.2667 6.68 10.84 6.42 10.58C6.16 10.32 5.73333 10.32 5.47333 10.58L4.03333 12.0333L3.06667 11.0667C2.86 10.86 2.5 11.0067 2.5 11.3067V14.1667C2.5 14.3533 2.64667 14.5 2.83333 14.5H5.69333C5.99333 14.5 6.14 14.14 5.93333 13.9333ZM12.9667 12.0333L13.9333 11.0667C14.14 10.86 14.5 11.0067 14.5 11.3067V14.1667C14.5 14.3533 14.3533 14.5 14.1667 14.5H11.3067C11.0067 14.5 10.86 14.14 11.0667 13.9333L12.0333 12.9667L10.58 11.5267C10.32 11.2667 10.32 10.84 10.58 10.58C10.84 10.32 11.2667 10.32 11.5267 10.58L12.9667 12.0333Z" fill="black"/>
</mask>
<g mask="url(#mask0_407_25058)">
<rect x="0.5" y="0.5" width="16" height="16" fill="url(#paint0_linear_407_25058)"/>
</g>
<defs>
<linearGradient id="paint0_linear_407_25058" x1="16.5" y1="16.5" x2="-2.53856" y2="10.9799" gradientUnits="userSpaceOnUse">
<stop stop-color="#246BFD"/>
<stop offset="1" stop-color="#5089FF"/>
</linearGradient>
</defs>
</svg>
