<svg width="10" height="9" viewBox="0 0 10 9" fill="none" xmlns="http://www.w3.org/2000/svg">
<path d="M7.29615 5.4175C7.17744 5.53254 7.1229 5.69892 7.14994 5.86208L7.5574 8.11708C7.59178 8.30821 7.51111 8.50163 7.35115 8.61208C7.1944 8.72667 6.98586 8.74042 6.8149 8.64875L4.78494 7.59C4.71436 7.55242 4.63598 7.53225 4.55578 7.52996H4.43157C4.38848 7.53638 4.34632 7.55013 4.30782 7.57121L2.2774 8.635C2.17703 8.68542 2.06336 8.70329 1.95198 8.68542C1.68065 8.63408 1.49961 8.37558 1.54407 8.10288L1.95198 5.84788C1.97903 5.68333 1.92448 5.51604 1.80578 5.39917L0.150735 3.795C0.0123181 3.66071 -0.0358069 3.45904 0.0274431 3.27708C0.0888597 3.09558 0.24561 2.96313 0.434901 2.93333L2.71282 2.60288C2.88607 2.585 3.03823 2.47958 3.11615 2.32375L4.1199 0.265833C4.14373 0.22 4.17444 0.177833 4.21157 0.142083L4.25282 0.11C4.27436 0.0861667 4.29911 0.0664583 4.32661 0.0504167L4.37657 0.0320833L4.45448 0H4.64744C4.81978 0.017875 4.97148 0.121 5.05078 0.275L6.06782 2.32375C6.14115 2.47363 6.28369 2.57767 6.44823 2.60288L8.72615 2.93333C8.91865 2.96083 9.07953 3.09375 9.14323 3.27708C9.20328 3.46088 9.15148 3.66254 9.01032 3.795L7.29615 5.4175Z" fill="url(#paint0_linear_32_4056)"/>
<defs>
<linearGradient id="paint0_linear_32_4056" x1="9.16786" y1="8.70892" x2="-1.65032" y2="5.40699" gradientUnits="userSpaceOnUse">
<stop stop-color="#FB9400"/>
<stop offset="1" stop-color="#FFAB38"/>
</linearGradient>
</defs>
</svg>
