<svg width="253" height="168" viewBox="0 0 253 168" fill="none" xmlns="http://www.w3.org/2000/svg">
<g clip-path="url(#clip0_407_23312)">
<path d="M60.5207 133.109C65.1183 137.789 73.7154 136.802 73.7154 136.802C73.7154 136.802 74.8533 128.229 70.2512 123.552C65.6539 118.873 57.0607 119.857 57.0607 119.857C57.0607 119.857 55.9231 128.43 60.5207 133.109Z" fill="url(#paint0_linear_407_23312)"/>
<path d="M179.543 35.1448C174.728 37.891 167.966 35.1109 167.966 35.1109C167.966 35.1109 169.014 27.8793 173.831 25.1364C178.645 22.3902 185.405 25.1672 185.405 25.1672C185.405 25.1672 184.357 32.3988 179.543 35.1448Z" fill="url(#paint1_linear_407_23312)"/>
<path d="M91.4476 43.7171C86.4994 48.7535 77.246 47.6915 77.246 47.6915C77.246 47.6915 76.0215 38.4641 80.9744 33.4308C85.9229 28.3944 95.1716 29.4531 95.1716 29.4531C95.1716 29.4531 96.396 38.6808 91.4476 43.7171Z" fill="url(#paint2_linear_407_23312)"/>
<path d="M64.3594 91.2883C66.7053 91.2883 68.607 93.2851 68.607 95.7482C68.607 98.2113 66.7053 100.208 64.3594 100.208C62.0135 100.208 60.1118 98.2113 60.1118 95.7482C60.1118 93.2851 62.0135 91.2883 64.3594 91.2883Z" fill="#E1E4E5"/>
<path d="M134.48 140.28C135.794 140.28 136.86 141.346 136.86 142.66C136.86 143.974 135.794 145.04 134.48 145.04C133.165 145.04 132.1 143.974 132.1 142.66C132.1 141.346 133.165 140.28 134.48 140.28Z" fill="url(#paint3_linear_407_23312)"/>
<path d="M194.685 112.839C197.394 112.839 199.59 115.035 199.59 117.744C199.59 120.453 197.394 122.649 194.685 122.649C191.976 122.649 189.78 120.453 189.78 117.744C189.78 115.035 191.976 112.839 194.685 112.839Z" fill="url(#paint4_linear_407_23312)"/>
<path d="M198.792 78.5021C200.985 78.5021 202.763 76.7241 202.763 74.5308C202.763 72.3376 200.985 70.5596 198.792 70.5596C196.598 70.5596 194.82 72.3376 194.82 74.5308C194.82 76.7241 196.598 78.5021 198.792 78.5021Z" fill="url(#paint5_linear_407_23312)"/>
<path d="M69.829 66.5725C71.7057 66.5725 73.2271 65.0512 73.2271 63.1744C73.2271 61.2977 71.7057 59.7764 69.829 59.7764C67.9523 59.7764 66.4309 61.2977 66.4309 63.1744C66.4309 65.0512 67.9523 66.5725 69.829 66.5725Z" fill="#F8AE9D"/>
<path d="M89.0705 144.966C90.2031 144.966 91.1212 144.105 91.1212 143.043C91.1212 141.981 90.2031 141.12 89.0705 141.12C87.9379 141.12 87.0198 141.981 87.0198 143.043C87.0198 144.105 87.9379 144.966 89.0705 144.966Z" fill="#E1E4E5"/>
<path d="M186.643 106.618C188.158 106.618 189.386 105.441 189.386 103.989C189.386 102.537 188.158 101.36 186.643 101.36C185.128 101.36 183.9 102.537 183.9 103.989C183.9 105.441 185.128 106.618 186.643 106.618Z" fill="#E1E4E5"/>
<path d="M175.606 137.411C177.366 137.411 178.792 135.985 178.792 134.226C178.792 132.466 177.366 131.04 175.606 131.04C173.847 131.04 172.421 132.466 172.421 134.226C172.421 135.985 173.847 137.411 175.606 137.411Z" fill="#E1E4E5"/>
<path d="M112.787 33.7282C113.608 33.7282 114.274 32.9675 114.274 32.0291C114.274 31.0908 113.608 30.3301 112.787 30.3301C111.966 30.3301 111.301 31.0908 111.301 32.0291C111.301 32.9675 111.966 33.7282 112.787 33.7282Z" fill="#E1E4E5"/>
<path d="M184.305 83.8293C184.081 84.6628 184.576 85.5195 185.409 85.7428C186.243 85.9662 187.1 85.4715 187.323 84.6381C187.546 83.8046 187.052 82.9479 186.218 82.7245C185.385 82.5012 184.528 82.9958 184.305 83.8293Z" fill="#E1E4E5"/>
<path d="M183.835 65.4263C185.008 65.4263 185.959 64.4755 185.959 63.3025C185.959 62.1296 185.008 61.1787 183.835 61.1787C182.662 61.1787 181.711 62.1296 181.711 63.3025C181.711 64.4755 182.662 65.4263 183.835 65.4263Z" fill="#E1E4E5"/>
<path d="M71.6646 81.0593C72.4856 81.0593 73.1511 80.4888 73.1511 79.785C73.1511 79.0813 72.4856 78.5107 71.6646 78.5107C70.8436 78.5107 70.1781 79.0813 70.1781 79.785C70.1781 80.4888 70.8436 81.0593 71.6646 81.0593Z" fill="#E1E4E5"/>
<path d="M143.341 28.9147C142.876 30.6493 143.906 32.4323 145.64 32.8971C147.375 33.3619 149.158 32.3325 149.623 30.5979C150.088 28.8632 149.058 27.0802 147.324 26.6154C145.589 26.1506 143.806 27.1801 143.341 28.9147Z" fill="#E1E4E5"/>
<path d="M45.9482 86.2691H45.9065C45.6598 89.7652 43.0603 89.8189 43.0603 89.8189C43.0603 89.8189 45.9269 89.8749 45.9269 93.9148C45.9269 89.8749 48.7936 89.8189 48.7936 89.8189C48.7936 89.8189 46.1949 89.7652 45.9482 86.2691ZM194.861 41.8857H194.789C194.364 47.9069 189.887 47.9995 189.887 47.9995C189.887 47.9995 194.824 48.0961 194.824 55.0533C194.824 48.0961 199.761 47.9995 199.761 47.9995C199.761 47.9995 195.286 47.9069 194.861 41.8857Z" fill="#E1E4E5"/>
<path fill-rule="evenodd" clip-rule="evenodd" d="M155.54 111.301V127.016C155.54 132.804 150.852 137.492 145.064 137.492H92.6819C86.8937 137.492 82.2057 132.804 82.2057 127.016V74.6337C82.2057 68.8455 86.8937 64.1572 92.6819 64.1572H108.397" fill="url(#paint6_linear_407_23312)"/>
<path fill-rule="evenodd" clip-rule="evenodd" d="M102.16 43.5205H162.094C169.452 43.5205 175.412 49.4806 175.412 56.839V116.773C175.412 124.131 169.452 130.091 162.094 130.091H102.16C94.8014 130.091 88.8413 124.131 88.8413 116.773V56.839C88.8413 49.4806 94.8014 43.5205 102.16 43.5205Z" fill="url(#paint7_linear_407_23312)"/>
<path d="M119.531 86.1743L129.03 95.673L149.761 74.9365" stroke="white" stroke-width="8.995" stroke-linecap="round" stroke-linejoin="round"/>
</g>
<defs>
<linearGradient id="paint0_linear_407_23312" x1="78.864" y1="149.093" x2="45.6264" y2="96.99" gradientUnits="userSpaceOnUse">
<stop stop-color="white"/>
<stop offset="1" stop-color="#EEEEEE"/>
</linearGradient>
<linearGradient id="paint1_linear_407_23312" x1="160.953" y1="43.918" x2="199.962" y2="9.20892" gradientUnits="userSpaceOnUse">
<stop stop-color="white"/>
<stop offset="1" stop-color="#EEEEEE"/>
</linearGradient>
<linearGradient id="paint2_linear_407_23312" x1="71.7048" y1="60.9203" x2="107.478" y2="4.84193" gradientUnits="userSpaceOnUse">
<stop stop-color="white"/>
<stop offset="1" stop-color="#EEEEEE"/>
</linearGradient>
<linearGradient id="paint3_linear_407_23312" x1="136.86" y1="140.28" x2="131.196" y2="141.922" gradientUnits="userSpaceOnUse">
<stop stop-color="#246BFD"/>
<stop offset="1" stop-color="#5089FF"/>
</linearGradient>
<linearGradient id="paint4_linear_407_23312" x1="199.59" y1="112.839" x2="187.917" y2="116.224" gradientUnits="userSpaceOnUse">
<stop stop-color="#246BFD"/>
<stop offset="1" stop-color="#5089FF"/>
</linearGradient>
<linearGradient id="paint5_linear_407_23312" x1="202.763" y1="78.5021" x2="193.312" y2="75.7619" gradientUnits="userSpaceOnUse">
<stop stop-color="#246BFD"/>
<stop offset="1" stop-color="#5089FF"/>
</linearGradient>
<linearGradient id="paint6_linear_407_23312" x1="117.309" y1="23.0417" x2="119.571" y2="217.268" gradientUnits="userSpaceOnUse">
<stop stop-color="white"/>
<stop offset="1" stop-color="#EEEEEE"/>
</linearGradient>
<linearGradient id="paint7_linear_407_23312" x1="175.412" y1="130.091" x2="72.4007" y2="100.224" gradientUnits="userSpaceOnUse">
<stop stop-color="#246BFD"/>
<stop offset="1" stop-color="#5089FF"/>
</linearGradient>
<clipPath id="clip0_407_23312">
<rect width="252" height="168" fill="white" transform="translate(0.5)"/>
</clipPath>
</defs>
</svg>
