<svg width="25" height="25" viewBox="0 0 25 25" fill="none" xmlns="http://www.w3.org/2000/svg">
<path d="M19.628 8.504C20.7337 8.504 21.63 7.60767 21.63 6.502C21.63 5.39633 20.7337 4.5 19.628 4.5C18.5223 4.5 17.626 5.39633 17.626 6.502C17.626 7.60767 18.5223 8.504 19.628 8.504Z" fill="url(#paint0_linear_407_25129)"/>
<path d="M19.5 13.7191C18.933 14.1721 18.522 14.5001 17.622 14.5001C16.723 14.5001 16.334 14.1891 15.746 13.7191C15.066 13.1761 14.221 12.5001 12.619 12.5001C11.018 12.5001 10.174 13.1761 9.495 13.7191C8.907 14.1891 8.52 14.5001 7.62 14.5001C6.722 14.5001 6.334 14.1891 5.747 13.7201C5.068 13.1761 4.225 12.5001 2.625 12.5001V14.5001C3.522 14.5001 3.91 14.8111 4.497 15.2801C5.176 15.8241 6.02 16.5001 7.62 16.5001C9.22 16.5001 10.066 15.8241 10.745 15.2801C11.332 14.8101 11.721 14.5001 12.619 14.5001C13.519 14.5001 13.93 14.8281 14.497 15.2811C15.176 15.8241 16.021 16.5001 17.622 16.5001C19.224 16.5001 20.069 15.8241 20.749 15.2811C21.337 14.8111 21.726 14.5001 22.625 14.5001V12.5001C21.024 12.5001 20.179 13.1761 19.5 13.7191ZM17.622 19.5001C16.723 19.5001 16.334 19.1891 15.746 18.7191C15.066 18.1761 14.221 17.5001 12.619 17.5001C11.018 17.5001 10.174 18.1761 9.495 18.7191C8.907 19.1891 8.52 19.5001 7.62 19.5001C6.722 19.5001 6.334 19.1891 5.747 18.7201C5.068 18.1761 4.225 17.5001 2.625 17.5001V19.5001C3.522 19.5001 3.91 19.8111 4.497 20.2801C5.176 20.8241 6.02 21.5001 7.62 21.5001C9.22 21.5001 10.066 20.8241 10.745 20.2801C11.332 19.8101 11.721 19.5001 12.619 19.5001C13.519 19.5001 13.93 19.8281 14.497 20.2811C15.176 20.8241 16.021 21.5001 17.622 21.5001C19.224 21.5001 20.069 20.8241 20.749 20.2811C21.337 19.8111 21.726 19.5001 22.625 19.5001V17.5001C21.024 17.5001 20.179 18.1761 19.5 18.7191C18.933 19.1721 18.522 19.5001 17.622 19.5001ZM11.625 5.91908L13.729 8.02308L11.672 10.5931C11.958 10.5371 12.268 10.5001 12.619 10.5001C14.221 10.5001 15.066 11.1761 15.746 11.7191C16.334 12.1891 16.723 12.5001 17.622 12.5001C18.522 12.5001 18.933 12.1721 19.5 11.7191C19.632 11.6141 19.774 11.5021 19.923 11.3931L17.827 9.30308L17.832 9.29808L12.332 3.79808C12.2392 3.70514 12.129 3.6314 12.0077 3.58109C11.8864 3.53078 11.7563 3.50488 11.625 3.50488C11.4937 3.50488 11.3636 3.53078 11.2423 3.58109C11.121 3.6314 11.0108 3.70514 10.918 3.79808L6.918 7.79808L8.332 9.21208L11.625 5.91908Z" fill="url(#paint1_linear_407_25129)"/>
<defs>
<linearGradient id="paint0_linear_407_25129" x1="21.63" y1="8.504" x2="16.8656" y2="7.12261" gradientUnits="userSpaceOnUse">
<stop stop-color="#246BFD"/>
<stop offset="1" stop-color="#5089FF"/>
</linearGradient>
<linearGradient id="paint1_linear_407_25129" x1="22.625" y1="21.5001" x2="-0.746877" y2="13.9687" gradientUnits="userSpaceOnUse">
<stop stop-color="#246BFD"/>
<stop offset="1" stop-color="#5089FF"/>
</linearGradient>
</defs>
</svg>
