<svg width="16" height="12" viewBox="0 0 16 12" fill="none" xmlns="http://www.w3.org/2000/svg">
<path d="M5.15519 0C5.50062 0 5.83647 0.105964 6.11821 0.301761L6.2355 0.391126L8.0165 1.875H13.8125C14.665 1.875 15.3699 2.50723 15.4839 3.32841L15.4961 3.44696L15.5 3.5625V10.3125C15.5 11.2056 14.8061 11.9367 13.928 11.9961L13.8125 12H2.1875C1.29435 12 0.563266 11.3061 0.503893 10.428L0.5 10.3125V1.6875C0.5 0.794352 1.19387 0.0632663 2.07196 0.00389314L2.1875 0H5.15519ZM6.2355 4.48387C5.97014 4.70501 5.6443 4.83861 5.30252 4.86856L5.15519 4.875L1.625 4.87425V10.3125C1.625 10.5973 1.83662 10.8326 2.11117 10.8699L2.1875 10.875H13.8125C14.0973 10.875 14.3326 10.6634 14.3699 10.3888L14.375 10.3125V3.5625C14.375 3.27773 14.1634 3.04238 13.8888 3.00513L13.8125 3H8.01575L6.2355 4.48387ZM5.15519 1.125H2.1875C1.90273 1.125 1.66738 1.33662 1.63013 1.61117L1.625 1.6875V3.74925L5.15519 3.75C5.26047 3.75 5.36307 3.72047 5.45166 3.66553L5.5153 3.61962L6.9335 2.43675L5.5153 1.25538C5.43443 1.18798 5.3367 1.14498 5.23347 1.13047L5.15519 1.125Z" fill="white"/>
</svg>
