<svg width="22" height="22" viewBox="0 0 22 22" fill="none" xmlns="http://www.w3.org/2000/svg">
<path d="M19.7358 9.96426L18.3425 8.57093C18.1042 8.3326 17.9117 7.8651 17.9117 7.5351V5.5551C17.9117 4.74843 17.2517 4.08843 16.445 4.08843H14.4742C14.1442 4.08843 13.6767 3.89593 13.4383 3.6576L12.045 2.26426C11.4767 1.69593 10.5417 1.69593 9.97333 2.26426L8.56167 3.6576C8.3325 3.89593 7.865 4.08843 7.52583 4.08843H5.555C4.74833 4.08843 4.08833 4.74843 4.08833 5.5551V7.52593C4.08833 7.85593 3.89583 8.32343 3.6575 8.56176L2.26417 9.9551C1.69583 10.5234 1.69583 11.4584 2.26417 12.0268L3.6575 13.4201C3.89583 13.6584 4.08833 14.1259 4.08833 14.4559V16.4268C4.08833 17.2334 4.74833 17.8934 5.555 17.8934H7.52583C7.85583 17.8934 8.32333 18.0859 8.56167 18.3243L9.955 19.7176C10.5233 20.2859 11.4583 20.2859 12.0267 19.7176L13.42 18.3243C13.6583 18.0859 14.1258 17.8934 14.4558 17.8934H16.4267C17.2333 17.8934 17.8933 17.2334 17.8933 16.4268V14.4559C17.8933 14.1259 18.0858 13.6584 18.3242 13.4201L19.7175 12.0268C20.3133 11.4676 20.3133 10.5326 19.7358 9.96426ZM7.33333 8.2501C7.33333 7.74593 7.74583 7.33343 8.25 7.33343C8.75417 7.33343 9.16667 7.74593 9.16667 8.2501C9.16667 8.75426 8.76333 9.16676 8.25 9.16676C7.74583 9.16676 7.33333 8.75426 7.33333 8.2501ZM8.73583 14.2359C8.59833 14.3734 8.42417 14.4376 8.25 14.4376C8.07583 14.4376 7.90167 14.3734 7.76417 14.2359C7.49833 13.9701 7.49833 13.5301 7.76417 13.2643L13.2642 7.76426C13.53 7.49843 13.97 7.49843 14.2358 7.76426C14.5017 8.0301 14.5017 8.4701 14.2358 8.73593L8.73583 14.2359ZM13.75 14.6668C13.2367 14.6668 12.8242 14.2543 12.8242 13.7501C12.8242 13.2459 13.2367 12.8334 13.7408 12.8334C14.245 12.8334 14.6575 13.2459 14.6575 13.7501C14.6575 14.2543 14.2542 14.6668 13.75 14.6668Z" fill="white"/>
</svg>
