<svg width="21" height="21" viewBox="0 0 21 21" fill="none" xmlns="http://www.w3.org/2000/svg">
<path d="M11.7355 1.30989C11.1351 0.452043 9.86461 0.452044 9.26414 1.30989L7.83477 3.35191C7.72145 3.5138 7.52458 3.59535 7.32997 3.56101L4.87532 3.12779C3.84414 2.9458 2.9458 3.84414 3.12779 4.87533L3.56101 7.32998C3.59535 7.52458 3.5138 7.72145 3.35191 7.83477L1.30989 9.26415C0.452043 9.86462 0.452043 11.1351 1.30989 11.7355L3.35191 13.1649C3.5138 13.2782 3.59535 13.4751 3.56101 13.6697L3.12779 16.1243C2.9458 17.1555 3.84414 18.0539 4.87533 17.8719L7.32997 17.4387C7.52458 17.4043 7.72145 17.4859 7.83477 17.6478L9.26414 19.6898C9.86461 20.5476 11.1351 20.5476 11.7355 19.6898L13.1649 17.6478C13.2782 17.4859 13.4751 17.4043 13.6697 17.4387L16.1243 17.8719C17.1555 18.0539 18.0539 17.1555 17.8719 16.1243L17.4387 13.6697C17.4043 13.4751 17.4859 13.2782 17.6478 13.1649L19.6898 11.7355C20.5476 11.1351 20.5476 9.86462 19.6898 9.26415L17.6478 7.83477C17.4859 7.72145 17.4043 7.52458 17.4387 7.32998L17.8719 4.87533C18.0539 3.84414 17.1555 2.9458 16.1243 3.12779L13.6697 3.56101C13.4751 3.59535 13.2782 3.5138 13.1649 3.35191L11.7355 1.30989Z" fill="#256EE8" stroke="white"/>
<path d="M6.7666 10.4997L9.02578 12.7589C9.06615 12.7993 9.13207 12.7977 9.17048 12.7554L13.7666 7.69971" stroke="white" stroke-width="1.5" stroke-linecap="round"/>
</svg>
