<svg width="24" height="24" viewBox="0 0 24 24" fill="none" xmlns="http://www.w3.org/2000/svg">
<g clip-path="url(#clip0_407_24547)">
<path d="M8.53001 18.9999C5.00001 21.8299 2.20001 23.3099 1.45001 22.5499C0.700012 21.7899 2.17001 18.9999 5.00001 15.4699C6.56749 13.5583 8.23656 11.7324 10 9.99993C10.68 9.30993 11.36 8.65993 12 7.99993C13.2 6.88993 14.37 5.86993 15.47 4.99993C19 2.16993 21.8 0.689927 22.55 1.44993C23.3 2.20993 21.83 4.99993 19 8.52993" stroke="white" stroke-miterlimit="10"/>
<path d="M15.47 18.9999C19 21.8199 21.8 23.2999 22.55 22.5399C23.3 21.7799 21.83 18.9999 19 15.4699C18.12 14.3699 17.1 13.1999 16 11.9999C15.37 11.3299 14.72 10.6499 14 9.99993C13.28 9.34993 12.64 8.65993 12 7.99993C10.8 6.88993 9.63001 5.86993 8.53001 4.99993C5.00001 2.16993 2.20001 0.689927 1.45001 1.44993C0.700012 2.20993 2.17001 4.99993 5.00001 8.52993" stroke="white" stroke-miterlimit="10"/>
<path d="M12 19.8199C16.3189 19.8199 19.82 16.3188 19.82 11.9999C19.82 7.68106 16.3189 4.17993 12 4.17993C7.68113 4.17993 4.17999 7.68106 4.17999 11.9999C4.17999 16.3188 7.68113 19.8199 12 19.8199Z" stroke="white" stroke-miterlimit="10"/>
</g>
<defs>
<clipPath id="clip0_407_24547">
<rect width="24" height="24" fill="white"/>
</clipPath>
</defs>
</svg>
