<svg width="14" height="14" viewBox="0 0 14 14" fill="none" xmlns="http://www.w3.org/2000/svg">
<path d="M2.68744 1.375C1.96258 1.375 1.37497 1.96263 1.37497 2.6875V11.3125C1.37497 12.0374 1.96258 12.625 2.68744 12.625H11.3122C12.0371 12.625 12.6247 12.0374 12.6247 11.3125V8.3125C12.6247 8.00184 12.8765 7.75 13.1872 7.75C13.4978 7.75 13.7497 8.00184 13.7497 8.3125V11.3125C13.7497 12.6587 12.6584 13.75 11.3122 13.75H2.68744C1.34128 13.75 0.25 12.6587 0.25 11.3125V2.6875C0.25 1.34131 1.34128 0.25 2.68744 0.25H5.68736C5.99802 0.25 6.24985 0.50184 6.24985 0.8125C6.24985 1.12316 5.99802 1.375 5.68736 1.375H2.68744ZM7.74981 0.8125C7.74981 0.50184 8.00165 0.25 8.3123 0.25H13.1875C13.4982 0.25 13.75 0.50184 13.75 0.8125V5.6875C13.75 5.99816 13.4982 6.25 13.1875 6.25C12.8769 6.25 12.625 5.99816 12.625 5.6875V2.17056L8.71001 6.08527C8.49034 6.30493 8.13419 6.30491 7.91454 6.08523C7.69489 5.86555 7.6949 5.50939 7.91458 5.28973L11.8296 1.375H8.3123C8.00165 1.375 7.74981 1.12316 7.74981 0.8125Z" fill="white"/>
</svg>
