<svg width="177" height="164" viewBox="0 0 177 164" fill="none" xmlns="http://www.w3.org/2000/svg">
<path d="M26.0661 151.673C60.5481 168.106 116.452 168.111 150.934 151.673C185.416 135.235 185.411 108.594 150.934 92.1615C116.457 75.7287 60.5481 75.7287 26.0661 92.1615C-8.41582 108.594 -8.41081 135.24 26.0661 151.673Z" fill="#F5F5F5"/>
<path d="M150.814 139.529C157.164 139.529 162.313 137.076 162.313 134.05C162.313 131.023 157.164 128.57 150.814 128.57C144.463 128.57 139.315 131.023 139.315 134.05C139.315 137.076 144.463 139.529 150.814 139.529Z" fill="#EBEBEB"/>
<path d="M23.449 134.835L27.5172 132.488C29.7885 130.635 31.5173 128.202 32.5211 125.448C33.777 121.985 33.6019 119.353 32.7012 118.032C31.5953 116.406 28.7281 116.691 28.613 120.113C28.3728 126.859 26.4063 131.537 23.449 134.835Z" fill="url(#paint0_linear_407_22830)"/>
<path opacity="0.2" d="M23.449 134.835L27.5172 132.488C29.7885 130.635 31.5173 128.202 32.5211 125.448C33.777 121.985 33.6019 119.353 32.7012 118.032C31.5953 116.406 28.7281 116.691 28.613 120.113C28.3728 126.859 26.4063 131.537 23.449 134.835Z" fill="black"/>
<path d="M23.449 135.086C23.3961 135.085 23.3447 135.068 23.3022 135.036C23.2598 135.004 23.2285 134.96 23.213 134.909C23.1974 134.859 23.1983 134.805 23.2155 134.754C23.2328 134.704 23.2655 134.661 23.3089 134.631C32.7163 128.126 30.8948 119.054 30.8748 118.963C30.8679 118.931 30.8676 118.897 30.8738 118.864C30.88 118.831 30.8926 118.799 30.911 118.771C30.9293 118.743 30.953 118.719 30.9807 118.7C31.0085 118.681 31.0396 118.668 31.0725 118.661C31.1053 118.654 31.1392 118.653 31.1722 118.66C31.2052 118.666 31.2367 118.678 31.2648 118.697C31.2929 118.715 31.3171 118.739 31.3361 118.767C31.355 118.794 31.3683 118.826 31.3752 118.858C31.3752 118.953 33.2967 128.336 23.6092 135.041C23.5621 135.073 23.5059 135.089 23.449 135.086Z" fill="white"/>
<path d="M15.2977 139.544C15.2977 139.544 13.8816 138.394 14.2219 136.832C14.5622 135.271 15.4779 134.15 13.9117 132.139C12.3454 130.127 11.9101 127.445 13.7815 125.994C15.2077 124.868 17.4344 126.459 18.235 123.492C18.8255 121.32 18.6253 116.511 21.3925 114.91C24.1597 113.309 25.896 115.721 25.4607 118.983C25.0804 121.901 24.54 124.708 24.9603 125.488C25.7709 126.99 27.157 126.784 27.0919 129.527C27.0369 132.079 24.62 134.19 24.62 134.19L15.2977 139.544Z" fill="url(#paint1_linear_407_22830)"/>
<path d="M19.9462 137.097C19.8851 137.096 19.8262 137.074 19.7802 137.033C19.7343 136.993 19.7044 136.937 19.696 136.877C18.9805 130.947 20.6968 120.709 22.0979 117.667C22.1097 117.633 22.1286 117.602 22.1533 117.576C22.178 117.55 22.208 117.53 22.2412 117.517C22.2744 117.504 22.31 117.498 22.3457 117.499C22.3814 117.501 22.4164 117.51 22.4482 117.527C22.4781 117.54 22.5049 117.559 22.5272 117.583C22.5495 117.607 22.5668 117.636 22.578 117.666C22.5892 117.697 22.5941 117.73 22.5924 117.763C22.5907 117.795 22.5825 117.827 22.5683 117.857C21.1822 120.859 19.5259 131.127 20.2115 136.797C20.2185 136.862 20.1993 136.928 20.158 136.98C20.1168 137.031 20.0569 137.064 19.9913 137.072L19.9462 137.097Z" fill="white"/>
<path d="M19.8113 132.478C19.773 132.48 19.7349 132.472 19.7012 132.453C17.9648 131.608 16.864 128.59 16.8189 128.45C16.8067 128.419 16.8008 128.386 16.8016 128.352C16.8024 128.319 16.8099 128.286 16.8237 128.256C16.8375 128.225 16.8572 128.198 16.8817 128.175C16.9063 128.152 16.9352 128.135 16.9666 128.123C16.9981 128.112 17.0315 128.107 17.0649 128.109C17.0983 128.111 17.131 128.119 17.1611 128.134C17.1912 128.148 17.218 128.169 17.24 128.194C17.2621 128.219 17.2788 128.248 17.2893 128.28C17.2893 128.31 18.3651 131.232 19.9214 131.988C19.9724 132.013 20.0135 132.054 20.038 132.105C20.0625 132.156 20.0688 132.214 20.056 132.27C20.0432 132.325 20.0121 132.374 19.9676 132.409C19.9231 132.445 19.868 132.464 19.8113 132.463V132.478Z" fill="white"/>
<path d="M19.7812 134.481C19.731 134.481 19.6821 134.465 19.6409 134.437C19.5998 134.408 19.5684 134.367 19.551 134.32C19.5261 134.259 19.5263 134.191 19.5516 134.13C19.5769 134.069 19.6252 134.021 19.6861 133.995C22.6084 132.824 24.4298 129.347 24.4498 129.306C24.4803 129.247 24.5331 129.203 24.5964 129.183C24.6598 129.163 24.7285 129.168 24.7876 129.199C24.8466 129.229 24.8911 129.282 24.9113 129.345C24.9315 129.409 24.9257 129.478 24.8952 129.537C24.8151 129.687 22.9687 133.22 19.8912 134.46C19.857 134.477 19.819 134.484 19.7812 134.481Z" fill="white"/>
<path d="M121.926 107.559C121.926 107.559 119.739 104.016 119.524 100.168C119.309 96.3203 120.155 94.719 121.315 94.2587C122.476 93.7983 122.566 95.2144 123.162 96.0501C123.757 96.8857 124.973 96.4104 125.424 93.8033C125.874 91.1963 127.515 86.7979 130.928 85.9422C134.681 85.0115 132.669 89.4149 131.724 91.1312C130.778 92.8476 130.047 95.1894 130.668 95.8249C131.288 96.4604 132.254 95.2845 133.17 96.3753C134.286 97.6914 130.818 102.43 128.826 103.576L121.926 107.559Z" fill="url(#paint2_linear_407_22830)"/>
<path d="M124.923 106.073C124.89 106.072 124.858 106.064 124.828 106.05C124.798 106.037 124.772 106.017 124.749 105.993C124.727 105.969 124.71 105.94 124.698 105.909C124.687 105.879 124.682 105.846 124.683 105.813C125.022 99.6229 126.952 93.625 130.287 88.3993C130.306 88.3721 130.331 88.349 130.359 88.3314C130.387 88.3138 130.418 88.3021 130.451 88.2969C130.484 88.2918 130.517 88.2933 130.549 88.3015C130.581 88.3096 130.611 88.3242 130.638 88.3443C130.69 88.3833 130.725 88.4412 130.736 88.5057C130.746 88.5702 130.73 88.6362 130.693 88.6896C127.417 93.8388 125.522 99.7443 125.188 105.838C125.187 105.871 125.178 105.903 125.164 105.933C125.149 105.962 125.129 105.989 125.105 106.011C125.08 106.032 125.051 106.049 125.02 106.06C124.989 106.071 124.956 106.075 124.923 106.073Z" fill="white"/>
<path d="M125.209 103.116C125.167 103.116 125.126 103.105 125.088 103.086C123.687 102.31 122.912 100.009 122.882 99.9136C122.871 99.8824 122.866 99.8493 122.868 99.8163C122.87 99.7832 122.878 99.7509 122.892 99.7211C122.907 99.6913 122.927 99.6647 122.952 99.6427C122.977 99.6208 123.006 99.604 123.037 99.5933C123.1 99.5728 123.169 99.5782 123.228 99.6082C123.287 99.6382 123.332 99.6905 123.352 99.7535C123.352 99.7535 124.103 101.97 125.354 102.646C125.41 102.679 125.452 102.733 125.47 102.797C125.487 102.86 125.48 102.928 125.449 102.986C125.426 103.029 125.391 103.064 125.348 103.088C125.306 103.111 125.257 103.121 125.209 103.116Z" fill="white"/>
<path d="M125.454 101.599C125.398 101.599 125.345 101.58 125.301 101.545C125.258 101.511 125.227 101.463 125.213 101.409C125.205 101.378 125.203 101.345 125.208 101.313C125.213 101.28 125.224 101.249 125.241 101.221C125.257 101.193 125.279 101.169 125.306 101.15C125.332 101.131 125.362 101.117 125.394 101.109C129.006 100.193 130.257 98.3019 130.267 98.2819C130.285 98.254 130.308 98.2298 130.335 98.2108C130.362 98.1918 130.393 98.1783 130.425 98.1711C130.458 98.1639 130.491 98.1631 130.524 98.1688C130.556 98.1745 130.587 98.1866 130.615 98.2043C130.643 98.2221 130.667 98.2451 130.686 98.2722C130.705 98.2993 130.719 98.3299 130.726 98.3622C130.733 98.3944 130.734 98.4278 130.728 98.4604C130.723 98.493 130.711 98.5242 130.693 98.5521C130.638 98.6372 129.337 100.624 125.519 101.594L125.454 101.599Z" fill="white"/>
<path d="M67.4834 99.783C67.4834 99.783 62.6847 98.6121 62.4345 89.6251C62.1693 79.9275 63.6104 68.6087 57.931 67.693C52.2515 66.7773 49.0991 73.6977 49.1691 81.779C49.2342 88.8545 52.0864 104.217 67.4634 107.229L67.4834 99.783Z" fill="url(#paint3_linear_407_22830)"/>
<path opacity="0.2" d="M67.4834 99.783C67.4834 99.783 62.6847 98.6121 62.4345 89.6251C62.1693 79.9275 63.6104 68.6087 57.931 67.693C52.2515 66.7773 49.0991 73.6977 49.1691 81.779C49.2342 88.8545 52.0864 104.217 67.4634 107.229L67.4834 99.783Z" fill="black"/>
<path d="M67.4835 106.308H67.4384C63.9807 105.677 61.1635 103.771 59.0669 100.648C52.852 91.3761 54.8086 74.0626 55.4541 71.0402C55.4685 70.9758 55.5073 70.9195 55.5624 70.8831C55.6174 70.8467 55.6844 70.8331 55.7493 70.845C55.8141 70.8606 55.8704 70.9004 55.9067 70.9562C55.943 71.0121 55.9565 71.0798 55.9444 71.1453C55.3089 74.1476 53.3624 91.241 59.4822 100.368C60.373 101.784 61.5483 102.998 62.9334 103.936C64.3185 104.873 65.8833 105.512 67.5285 105.812C67.5611 105.818 67.5923 105.831 67.6201 105.849C67.6479 105.867 67.6718 105.891 67.6904 105.918C67.709 105.946 67.722 105.976 67.7286 106.009C67.7351 106.042 67.7352 106.075 67.7287 106.108C67.718 106.165 67.6876 106.216 67.6427 106.253C67.5978 106.289 67.5414 106.309 67.4835 106.308Z" fill="white"/>
<path d="M67.4835 129.371C62.5246 130.042 54.4733 130.032 49.8247 126.369C45.176 122.706 46.1468 119.554 47.9332 118.238C49.7196 116.922 51.2708 115.421 48.1984 112.498C45.126 109.576 40.1921 104.882 38.5909 97.8418C36.9896 90.8013 37.7803 86.3979 40.9227 84.9317C43.9701 83.5106 44.7757 85.7724 46.6422 90.436C48.5086 95.0996 52.7069 91.1015 56.2997 92.5577C59.8925 94.0138 59.7474 96.8961 59.9726 99.373C60.1978 101.85 61.3837 102.535 63.4203 102.535C65.4569 102.535 67.4835 103.706 67.4835 106.038V129.371Z" fill="url(#paint4_linear_407_22830)"/>
<path d="M67.4836 121.195C67.4621 121.2 67.4399 121.2 67.4185 121.195C67.2033 121.135 62.0743 119.644 54.6035 112.783C46.6473 105.478 42.8943 94.5192 42.8543 94.4091C42.8351 94.346 42.8411 94.278 42.8709 94.2192C42.9008 94.1605 42.9522 94.1155 43.0144 94.0938C43.0768 94.0731 43.1449 94.0777 43.2039 94.1068C43.2629 94.1358 43.3081 94.1869 43.3297 94.249C43.3647 94.3591 47.0826 105.198 54.9438 112.413C62.3095 119.183 67.4986 120.7 67.5536 120.715C67.5851 120.724 67.6146 120.739 67.6402 120.76C67.6658 120.78 67.6871 120.806 67.7029 120.835C67.7187 120.863 67.7287 120.895 67.7323 120.928C67.7358 120.96 67.7329 120.993 67.7237 121.025C67.7075 121.075 67.6753 121.119 67.632 121.15C67.5887 121.181 67.5366 121.196 67.4836 121.195Z" fill="white"/>
<path d="M56.69 114.525C56.6397 114.526 56.5905 114.511 56.5492 114.482C56.5079 114.453 56.4766 114.412 56.4599 114.365C54.8536 110.242 54.4883 101.42 54.4583 101.044C54.4569 100.978 54.4811 100.914 54.5259 100.866C54.5707 100.817 54.6326 100.788 54.6985 100.784C54.7638 100.785 54.8265 100.81 54.8746 100.854C54.9226 100.899 54.9525 100.959 54.9587 101.024C54.9587 101.114 55.334 110.136 56.9102 114.185C56.9223 114.216 56.9281 114.248 56.9273 114.282C56.9265 114.315 56.9192 114.347 56.9057 114.378C56.8922 114.408 56.8728 114.435 56.8487 114.458C56.8245 114.481 56.7961 114.498 56.7651 114.51C56.741 114.519 56.7157 114.524 56.69 114.525Z" fill="white"/>
<path d="M56.6499 120.454C56.1886 120.458 55.7274 120.434 55.2688 120.384C55.236 120.38 55.2042 120.37 55.1754 120.353C55.1465 120.337 55.1212 120.315 55.1007 120.289C55.0803 120.263 55.0652 120.234 55.0562 120.202C55.0473 120.17 55.0447 120.136 55.0487 120.104C55.0526 120.071 55.063 120.039 55.0792 120.01C55.0954 119.981 55.1172 119.956 55.1432 119.936C55.1692 119.915 55.199 119.9 55.2309 119.891C55.2627 119.882 55.296 119.88 55.3289 119.883C55.3739 119.883 60.0326 120.414 62.1692 118.237C62.1915 118.211 62.2189 118.189 62.2499 118.174C62.2808 118.159 62.3145 118.15 62.349 118.149C62.3834 118.147 62.4178 118.153 62.45 118.165C62.4822 118.177 62.5115 118.196 62.536 118.22C62.5606 118.245 62.5799 118.274 62.5927 118.306C62.6055 118.338 62.6115 118.372 62.6104 118.406C62.6094 118.441 62.6012 118.475 62.5864 118.506C62.5716 118.537 62.5505 118.565 62.5245 118.587C60.9783 120.184 58.2812 120.454 56.6499 120.454Z" fill="white"/>
<path d="M53.0471 25.7L52.5067 22.5825L49.7245 24.414C49.4703 23.9136 49.1099 23.4747 48.6687 23.128L49.9997 19.5252L47.4977 18.9697L45.6663 22.4725C45.0037 22.5842 44.3613 22.7933 43.7598 23.0929L42.9642 20.4509L39.9919 22.7877L40.187 25.8901C39.5817 26.5682 39.0328 27.2945 38.5457 28.0618L36.0938 27.9367L34.3725 31.7947L36.4791 32.6954C36.2592 33.4934 36.1201 34.3115 36.0638 35.1374L33.3867 37.5993L33.9221 40.7217L36.7093 38.8903C36.9621 39.3902 37.3227 39.8277 37.7651 40.1713L36.4591 43.7791L38.9611 44.3295L41.5831 41.7775C42.1886 41.6825 42.0385 40.5416 42.699 40.2163L43.4946 42.8484L46.4619 40.5166L46.3869 39.2956C46.9873 38.6251 49.2591 37.1489 49.7495 36.3783L50.365 35.3775L52.0863 31.5195L51.2857 30.0684L50.395 28.1769L53.0471 25.7ZM43.965 35.963C41.6832 37.7544 40.9626 38.1497 40.5773 35.7528C40.192 33.356 41.4981 29.7131 43.7798 27.9167C46.0616 26.1203 46.9323 25.9952 47.3426 28.3871C47.7529 30.779 46.2518 34.1916 43.965 35.963Z" fill="#E0E0E0"/>
<path d="M47.518 18.9697L50.7655 20.8412L48.9341 24.3339L45.6865 22.4625L47.518 18.9697Z" fill="#F5F5F5"/>
<path d="M55.7543 24.4545L52.9721 26.2859L49.7246 24.4144L52.5068 22.583L55.7543 24.4545Z" fill="#F5F5F5"/>
<path d="M55.309 33.3765L53.2024 32.4808L49.9548 30.6094L52.0615 31.5051L55.309 33.3765Z" fill="#E0E0E0"/>
<path d="M36.4543 43.7797L39.7019 45.6462L41.0329 42.0433L37.7854 40.1719L36.4543 43.7797Z" fill="#E0E0E0"/>
<path d="M46.7122 44.7203L43.4697 42.8489L42.6741 40.2168L45.9216 42.0883L46.7122 44.7203Z" fill="#E0E0E0"/>
<path d="M56.2896 27.5711L55.7542 24.4536L52.972 26.2851C52.716 25.7845 52.354 25.3456 51.9112 24.9991L53.2423 21.3963L50.7653 20.8408L48.9289 24.3436C48.2663 24.4553 47.6239 24.6644 47.0224 24.964L46.2318 22.332L43.2595 24.6688L43.4546 27.7712C42.8487 28.454 42.2997 29.1854 41.8133 29.9579L39.3564 29.8328L37.6351 33.6909L39.7417 34.5916C39.5238 35.3917 39.3847 36.2112 39.3264 37.0385L36.6543 39.4654L37.1897 42.5878L39.9719 40.7564C40.228 41.2555 40.5901 41.6927 41.0327 42.0374L39.7017 45.6402L42.2036 46.1956L44.0351 42.6929C44.7002 42.5824 45.3447 42.3715 45.9466 42.0674L46.7372 44.6995L49.7095 42.3676L49.5143 39.2652C50.1196 38.5872 50.6685 37.8609 51.1556 37.0935L53.6125 37.2136L55.3339 33.3556L53.1972 32.4599C53.4187 31.6604 53.5595 30.8406 53.6175 30.013L56.2896 27.5711ZM47.2175 37.8541C44.9408 39.6455 42.7591 39.1601 42.3437 36.7683C41.9284 34.3764 43.4446 30.9787 45.7264 29.1873C48.0082 27.3959 50.1849 27.8863 50.6002 30.2782C51.0155 32.6701 49.4993 36.0627 47.2175 37.8541Z" fill="#EBEBEB"/>
<path d="M46.2318 22.3226L42.9843 20.4512L40.012 22.788L43.2595 24.6595L46.2318 22.3226Z" fill="#F5F5F5"/>
<path d="M40.012 22.7881L40.2071 25.8905L43.4546 27.762L43.2595 24.6596L40.012 22.7881Z" fill="#E0E0E0"/>
<path d="M41.8135 29.933L38.5659 28.0615L36.114 27.9414L39.3565 29.8129L41.8135 29.933Z" fill="#F5F5F5"/>
<path d="M36.1139 27.9414L34.3926 31.7944L37.6351 33.6659L39.3565 29.8129L36.1139 27.9414Z" fill="#E0E0E0"/>
<path d="M39.3264 37.0092L36.0838 35.1377L33.4067 37.5996L36.6493 39.4711L39.3264 37.0092Z" fill="#F5F5F5"/>
<path d="M37.1897 42.5935L33.9422 40.722L33.4067 37.5996L36.6493 39.4711L37.1897 42.5935Z" fill="#E0E0E0"/>
<path d="M50.7654 20.8412L47.5178 18.9697L49.9998 19.5252L53.2423 21.3966L50.7654 20.8412Z" fill="#F5F5F5"/>
<path d="M38.5057 11.549V6.89039L34.7978 8.56169C34.6014 7.7713 34.2622 7.02344 33.797 6.35497L36.1338 1.64629L33.2816 0L30.3693 4.37842C29.5578 4.30752 28.74 4.38725 27.9574 4.61361L27.5471 0.565444L23.514 2.89726L23.1087 7.40078C22.2309 8.17855 21.4238 9.03255 20.6968 9.95278L17.7845 8.95199L14.9323 13.8959L17.2641 15.8974C16.8332 16.987 16.4984 18.1122 16.2633 19.26L12.5554 21.8671V26.5307L16.2633 24.8594C16.4597 25.6498 16.7989 26.3977 17.2641 27.0661L14.9423 31.7798L17.7945 33.4261L20.7068 29.0477C21.5184 29.1184 22.336 29.0386 23.1187 28.8125L23.524 32.8607L27.5571 30.5289L27.9675 26.0253C29.2263 25.566 30.3414 24.7823 31.2 23.7536L33.2916 24.4891L36.1438 19.5503L34.3925 18.0491C34.7727 16.7973 34.9136 15.4851 34.8078 14.1811L38.5057 11.549ZM25.5306 23.1881C22.4381 24.9745 20.5266 23.6885 20.5266 20.1307C20.5266 16.573 23.0836 12.1745 26.1811 10.3881C29.2785 8.60172 31.1499 9.88772 31.1499 13.4755C31.1499 17.0633 28.628 21.3967 25.5306 23.1881Z" fill="#E0E0E0"/>
<path d="M36.5242 1.86646L33.2817 0L30.3694 4.37842L33.6119 6.24989L36.5242 1.86646Z" fill="#F5F5F5"/>
<path d="M41.7533 8.76209L38.5057 6.89062L34.7979 8.56193L38.0454 10.4334L41.7533 8.76209Z" fill="#F5F5F5"/>
<path d="M26.7567 34.7321L23.5142 32.8607L23.1089 28.8125L26.3514 30.684L26.7567 34.7321Z" fill="#E0E0E0"/>
<path d="M14.9272 31.78L18.1748 33.6514L20.5116 28.9428L17.2641 27.0713L14.9272 31.78Z" fill="#E0E0E0"/>
<path d="M41.7533 13.445V8.78638L38.0454 10.4427C37.851 9.65156 37.5117 8.90334 37.0446 8.23595L39.3814 3.52727L36.5292 1.87598L33.6169 6.2594C32.8053 6.18603 31.9871 6.26581 31.205 6.49459L30.7947 2.43642L26.7615 4.76824L26.3512 9.27176C25.4747 10.0508 24.6677 10.9047 23.9393 11.8238L21.0271 10.823L18.1748 15.7668L20.5117 17.7684C20.0785 18.8572 19.7436 19.9826 19.5109 21.131L15.803 23.7381V28.4017L19.5109 26.7304C19.7051 27.5215 20.0444 28.2698 20.5117 28.9371L18.1748 33.6458L21.0271 35.2921L23.9393 30.9137C24.7509 30.9846 25.5686 30.9048 26.3512 30.6785L26.7615 34.7266L30.7947 32.3948L31.2 27.8913C32.0778 27.1135 32.8849 26.2595 33.6119 25.3393L36.5242 26.3401L39.3764 21.4012L37.0396 19.3997C37.4726 18.3108 37.8075 17.1855 38.0404 16.037L41.7533 13.445ZM28.7781 25.0841C25.6807 26.8705 23.1687 25.4194 23.1687 21.8466C23.1687 18.2738 25.6707 13.9254 28.7781 12.134C31.8855 10.3426 34.3825 11.7987 34.3825 15.3715C34.3825 18.9443 31.8705 23.2677 28.7781 25.0591V25.0841Z" fill="#EBEBEB"/>
<path d="M20.6969 9.96318L23.9395 11.8346L21.0272 10.8188L17.7847 8.94238L20.6969 9.96318Z" fill="#F0F0F0"/>
<path d="M17.7842 8.94705L14.9312 13.8926L18.1776 15.7654L21.0306 10.8199L17.7842 8.94705Z" fill="#F5F5F5"/>
<path d="M14.9272 13.8857L18.1748 15.7572L20.5116 17.7688L17.2641 15.9023L14.9272 13.8857Z" fill="#E0E0E0"/>
<path d="M16.2633 19.2646L19.5109 21.1361L15.803 23.7431L12.5554 21.8717L16.2633 19.2646Z" fill="#F5F5F5"/>
<path d="M12.5554 21.8721L15.803 23.7435V28.4072L12.5554 26.5357V21.8721Z" fill="#E0E0E0"/>
<path d="M30.7948 2.43689L27.5473 0.56543L23.5142 2.89725L26.7567 4.76871L30.7948 2.43689Z" fill="#F5F5F5"/>
<path d="M72.4274 136.066L119.464 108.905C119.568 108.869 119.658 108.801 119.721 108.711C119.785 108.622 119.819 108.515 119.819 108.405C119.819 108.295 119.785 108.188 119.721 108.098C119.658 108.009 119.568 107.941 119.464 107.904L115.116 105.402C114.846 105.267 114.549 105.196 114.248 105.196C113.946 105.196 113.649 105.267 113.379 105.402L66.3276 132.539C66.224 132.575 66.1342 132.643 66.0707 132.732C66.0072 132.822 65.9731 132.929 65.9731 133.039C65.9731 133.149 66.0072 133.256 66.0707 133.346C66.1342 133.435 66.224 133.503 66.3276 133.539L70.691 136.041C70.9584 136.181 71.2547 136.256 71.5563 136.26C71.8578 136.264 72.1561 136.198 72.4274 136.066Z" fill="#E0E0E0"/>
<path d="M118.173 4.03881L75.7597 28.5279C75.1292 28.9394 74.6045 29.4936 74.2281 30.1456C73.8517 30.7976 73.6341 31.5291 73.593 32.2809V132.894C73.593 134.276 74.5638 134.836 75.7597 134.145L118.173 109.656C118.804 109.246 119.33 108.692 119.706 108.04C120.083 107.387 120.3 106.655 120.34 105.903V5.28979C120.34 3.90871 119.374 3.34827 118.173 4.03881Z" fill="#455A64"/>
<path d="M75.7599 28.5277L118.173 4.03852C119.244 3.41803 120.13 3.80334 120.31 4.87918C120.21 4.20277 119.968 3.55521 119.599 2.97909C119.231 2.40298 118.745 1.91135 118.173 1.53656L116.412 0.535782C115.74 0.195117 114.998 0.0175781 114.245 0.0175781C113.492 0.0175781 112.75 0.195117 112.078 0.535782L69.6601 25.0049C69.0212 25.4055 68.4944 25.9616 68.1289 26.6212L74.2287 30.1239C74.594 29.4695 75.1213 28.9199 75.7599 28.5277Z" fill="#37474F"/>
<path d="M67.4834 129.372C67.5245 130.124 67.742 130.855 68.1185 131.507C68.4949 132.159 69.0196 132.713 69.6501 133.125L71.4165 134.126C72.0278 134.431 72.6969 134.605 73.3798 134.634C74.0628 134.663 74.7442 134.548 75.3796 134.296C74.3788 134.686 73.5832 134.111 73.5832 132.875V32.281C73.6082 31.5261 73.8271 30.7903 74.2187 30.1443L68.1189 26.6416C67.7328 27.2826 67.5142 28.0106 67.4834 28.7583V129.372Z" fill="#263238"/>
<path d="M76.9259 41.9334L117.022 18.7903C117.743 18.38 118.323 18.7153 118.323 19.5409V94.0091C118.299 94.4604 118.169 94.8996 117.943 95.291C117.717 95.6823 117.401 96.0146 117.022 96.2608L76.9409 119.404C76.2203 119.819 75.6399 119.484 75.6399 118.653V44.1852C75.6627 43.7353 75.7909 43.2971 76.0143 42.9059C76.2377 42.5147 76.55 42.1816 76.9259 41.9334Z" fill="white"/>
<path d="M96.9664 20.0958C96.7451 20.2411 96.561 20.4364 96.4289 20.6658C96.2967 20.8952 96.2203 21.1525 96.2058 21.4169C96.2058 21.9172 96.5461 22.1024 96.9664 21.8572C97.1886 21.7128 97.3733 21.5178 97.5055 21.2881C97.6378 21.0585 97.7137 20.8008 97.727 20.5362C97.727 20.0508 97.3867 19.8556 96.9664 20.0958Z" fill="#37474F"/>
<path d="M96.9665 111.393C96.0917 111.965 95.364 112.735 94.8424 113.641C94.3208 114.547 94.0199 115.563 93.9641 116.607C93.9641 118.523 95.3102 119.304 96.9665 118.343C97.8409 117.771 98.5684 117 99.09 116.094C99.6115 115.189 99.9126 114.173 99.9688 113.129C99.9788 111.213 98.6278 110.432 96.9665 111.393Z" fill="#37474F"/>
<path d="M89.7658 27.8423C89.326 28.1342 88.9611 28.5254 88.7003 28.9844C88.4395 29.4433 88.2903 29.9571 88.2646 30.4844C88.2646 31.4551 88.9452 31.8504 89.7658 31.365C90.2102 31.0759 90.5801 30.6859 90.8453 30.2268C91.1105 29.7677 91.2636 29.2524 91.292 28.723C91.292 27.7522 90.6115 27.3569 89.7658 27.8423Z" fill="#37474F"/>
<path d="M93.5037 27.512C93.5037 28.1625 94.0041 28.4077 94.5895 28.0624L104.597 22.2729C104.907 22.0793 105.167 21.8152 105.356 21.5022C105.545 21.1892 105.657 20.836 105.683 20.4715C105.683 19.826 105.183 19.5808 104.597 19.9261L94.5895 25.7156C94.2802 25.9087 94.0206 26.172 93.832 26.4841C93.6433 26.7962 93.5309 27.1483 93.5037 27.512Z" fill="#37474F"/>
<path d="M70.8661 45.1555C71.2212 45.3868 71.5168 45.6986 71.7289 46.0654C71.9411 46.4323 72.0637 46.844 72.087 47.2672C72.087 48.0478 71.5416 48.363 70.8661 47.9727C70.5122 47.7406 70.2178 47.4285 70.0066 47.0618C69.7954 46.695 69.6733 46.2837 69.6501 45.8611C69.6501 45.0855 70.1956 44.7702 70.8661 45.1555Z" fill="#37474F"/>
<path d="M70.8661 54.5532C71.2212 54.7845 71.5168 55.0962 71.7289 55.4631C71.9411 55.8299 72.0637 56.2417 72.087 56.6648C72.087 57.4404 71.5416 57.7557 70.8661 57.3704C70.5122 57.1382 70.2178 56.8262 70.0066 56.4594C69.7954 56.0926 69.6733 55.6813 69.6501 55.2587C69.6501 54.4781 70.1956 54.1629 70.8661 54.5532Z" fill="#37474F"/>
<path d="M70.4858 45.3454C70.841 45.5767 71.1366 45.8884 71.3487 46.2553C71.5608 46.6222 71.6835 47.0339 71.7068 47.457C71.7068 48.2327 71.1614 48.5479 70.4858 48.1626C70.1307 47.9313 69.8351 47.6196 69.623 47.2527C69.4109 46.8858 69.2882 46.4741 69.2649 46.051C69.2699 45.2703 69.8153 44.9701 70.4858 45.3454Z" fill="#455A64"/>
<path d="M70.4858 54.7385C70.8416 54.9703 71.1376 55.2829 71.3498 55.6507C71.5619 56.0185 71.6843 56.4312 71.7068 56.8552C71.7068 57.6308 71.1614 57.946 70.4858 57.5557C70.1299 57.3253 69.8337 57.0138 69.6214 56.6467C69.4092 56.2797 69.287 55.8675 69.2649 55.4441C69.2699 54.6685 69.8153 54.3532 70.4858 54.7385Z" fill="#455A64"/>
<path d="M126.439 21.8975C126.439 21.0669 125.859 20.7316 125.138 21.1469L120.34 23.9141L85.0571 44.29C84.6781 44.5363 84.3627 44.8686 84.1366 45.2599C83.9105 45.6512 83.7801 46.0905 83.7561 46.5418V120.99C83.7561 121.821 84.3366 122.156 85.0571 121.741L120.355 101.36L125.138 98.5975C125.517 98.3512 125.833 98.0189 126.059 97.6275C126.285 97.2362 126.415 96.797 126.439 96.3457V21.8975Z" fill="white"/>
<path d="M126.94 21.8973C126.972 21.6464 126.928 21.3917 126.816 21.1652C126.703 20.9387 126.527 20.7504 126.308 20.6238C126.089 20.4972 125.837 20.438 125.585 20.4536C125.332 20.4692 125.09 20.5589 124.888 20.7114L120.31 23.3585L84.8071 43.8745C84.35 44.163 83.97 44.5584 83.6997 45.0265C83.4295 45.4946 83.2772 46.0215 83.2559 46.5616V120.99C83.2358 121.24 83.2839 121.49 83.3949 121.715C83.5059 121.94 83.6758 122.13 83.8864 122.266C84.0656 122.37 84.2697 122.423 84.4769 122.421C84.7702 122.412 85.0562 122.327 85.3075 122.176L120.835 101.66L125.404 99.0226C125.858 98.7312 126.236 98.3352 126.506 97.8677C126.776 97.4001 126.93 96.8747 126.955 96.3355L126.94 21.8973ZM120.32 100.804L119.91 101.044L84.8272 121.3C84.7682 121.345 84.6999 121.377 84.6272 121.392C84.5544 121.408 84.4792 121.407 84.4068 121.39C84.3418 121.35 84.2767 121.21 84.2767 120.98V46.5416C84.3026 46.1782 84.4107 45.8255 84.5927 45.51C84.7747 45.1945 85.026 44.9244 85.3275 44.7201L120.375 24.4543L125.379 21.5571C125.438 21.5118 125.506 21.4802 125.579 21.4646C125.652 21.449 125.727 21.4498 125.799 21.467C125.864 21.507 125.929 21.6471 125.929 21.8773V96.3455C125.903 96.7088 125.795 97.0615 125.613 97.377C125.431 97.6925 125.18 97.9626 124.878 98.1669L120.31 100.804H120.32Z" fill="url(#paint5_linear_407_22830)"/>
<path d="M105.098 39.1958C109.601 36.6038 113.229 38.6954 113.229 43.8945C113.229 49.0935 109.586 55.4035 105.098 57.9755C100.609 60.5475 96.9663 58.4759 96.9663 53.2818C96.9663 48.0878 100.609 41.7928 105.098 39.1958Z" fill="url(#paint6_linear_407_22830)"/>
<path d="M105.098 43.2787C106.554 42.4381 107.735 43.1186 107.735 44.7799C107.685 45.6951 107.421 46.5857 106.963 47.3795C106.504 48.1733 105.866 48.8479 105.098 49.3485C103.642 50.1891 102.461 49.5086 102.461 47.8473C102.51 46.9321 102.775 46.0415 103.233 45.2477C103.691 44.4539 104.33 43.7793 105.098 43.2787Z" fill="url(#paint7_linear_407_22830)"/>
<path d="M110.237 52.2466C110.237 49.4844 108.301 48.3635 105.904 49.7446L104.402 50.6103C102.011 51.9914 100.069 55.354 100.069 58.1162V58.8617C101.455 59.3171 103.197 59.0719 105.073 57.976C107.152 56.6938 108.91 54.9531 110.212 52.8871L110.237 52.2466Z" fill="url(#paint8_linear_407_22830)"/>
<path opacity="0.7" d="M105.098 43.2787C106.554 42.4381 107.735 43.1186 107.735 44.7799C107.685 45.6951 107.421 46.5857 106.963 47.3795C106.504 48.1733 105.866 48.8479 105.098 49.3485C103.642 50.1891 102.461 49.5086 102.461 47.8473C102.51 46.9321 102.775 46.0415 103.233 45.2477C103.691 44.4539 104.33 43.7793 105.098 43.2787Z" fill="white"/>
<path opacity="0.7" d="M110.237 52.2466C110.237 49.4844 108.301 48.3635 105.904 49.7446L104.402 50.6103C102.011 51.9914 100.069 55.354 100.069 58.1162V58.8617C101.455 59.3171 103.197 59.0719 105.073 57.976C107.152 56.6938 108.91 54.9531 110.212 52.8871L110.237 52.2466Z" fill="white"/>
<path d="M89.3654 69.41L99.8286 63.3703C100.329 63.0951 100.694 63.3153 100.694 63.8707V64.216C100.678 64.5167 100.592 64.8094 100.441 65.0703C100.291 65.3312 100.081 65.5528 99.8286 65.7171L89.3654 71.7569C88.8901 72.0321 88.4998 71.8069 88.4998 71.2565V70.9112C88.516 70.6106 88.6028 70.318 88.7532 70.0572C88.9036 69.7964 89.1134 69.5747 89.3654 69.41Z" fill="url(#paint9_linear_407_22830)"/>
<path opacity="0.1" d="M89.3654 69.41L99.8286 63.3703C100.329 63.0951 100.694 63.3153 100.694 63.8707V64.216C100.678 64.5167 100.592 64.8094 100.441 65.0703C100.291 65.3312 100.081 65.5528 99.8286 65.7171L89.3654 71.7569C88.8901 72.0321 88.4998 71.8069 88.4998 71.2565V70.9112C88.516 70.6106 88.6028 70.318 88.7532 70.0572C88.9036 69.7964 89.1134 69.5747 89.3654 69.41Z" fill="black"/>
<path d="M88.9351 76.7002L120.59 58.426C120.825 58.2859 121.02 58.3959 121.02 58.6762V62.3691C121.011 62.5189 120.968 62.6647 120.893 62.7949C120.819 62.9252 120.715 63.0363 120.59 63.1196L88.9351 81.3939C88.6949 81.534 88.4998 81.4189 88.4998 81.1437V77.4508C88.5084 77.3003 88.5522 77.154 88.6279 77.0236C88.7035 76.8932 88.8087 76.7824 88.9351 76.7002Z" fill="url(#paint10_linear_407_22830)"/>
<path opacity="0.2" d="M88.9351 76.7002L120.59 58.426C120.825 58.2859 121.02 58.3959 121.02 58.6762V62.3691C121.011 62.5189 120.968 62.6647 120.893 62.7949C120.819 62.9252 120.715 63.0363 120.59 63.1196L88.9351 81.3939C88.6949 81.534 88.4998 81.4189 88.4998 81.1437V77.4508C88.5084 77.3003 88.5522 77.154 88.6279 77.0236C88.7035 76.8932 88.8087 76.7824 88.9351 76.7002Z" fill="white"/>
<path d="M89.3654 85.8378L99.8286 79.7981C100.329 79.5229 100.694 79.7481 100.694 80.2985V80.6438C100.679 80.9446 100.592 81.2375 100.442 81.4984C100.291 81.7593 100.081 81.9809 99.8286 82.145L89.3654 88.1847C88.8901 88.4649 88.4998 88.2397 88.4998 87.6843V87.339C88.5168 87.0386 88.604 86.7463 88.7543 86.4856C88.9046 86.2249 89.1139 86.0031 89.3654 85.8378Z" fill="url(#paint11_linear_407_22830)"/>
<path opacity="0.1" d="M89.3654 85.8378L99.8286 79.7981C100.329 79.5229 100.694 79.7481 100.694 80.2985V80.6438C100.679 80.9446 100.592 81.2375 100.442 81.4984C100.291 81.7593 100.081 81.9809 99.8286 82.145L89.3654 88.1847C88.8901 88.4649 88.4998 88.2397 88.4998 87.6843V87.339C88.5168 87.0386 88.604 86.7463 88.7543 86.4856C88.9046 86.2249 89.1139 86.0031 89.3654 85.8378Z" fill="black"/>
<path d="M88.9351 93.128L120.59 74.8538C120.825 74.7137 121.02 74.8288 121.02 75.104V78.7969C121.011 78.9467 120.968 79.0925 120.893 79.2227C120.819 79.353 120.715 79.4641 120.59 79.5474L88.9351 97.8217C88.6949 97.9618 88.4998 97.8517 88.4998 97.5715V93.8786C88.5084 93.7281 88.5522 93.5818 88.6279 93.4514C88.7035 93.321 88.8087 93.2102 88.9351 93.128Z" fill="url(#paint12_linear_407_22830)"/>
<path opacity="0.2" d="M88.9351 93.128L120.59 74.8538C120.825 74.7137 121.02 74.8288 121.02 75.104V78.7969C121.011 78.9467 120.968 79.0925 120.893 79.2227C120.819 79.353 120.715 79.4641 120.59 79.5474L88.9351 97.8217C88.6949 97.9618 88.4998 97.8517 88.4998 97.5715V93.8786C88.5084 93.7281 88.5522 93.5818 88.6279 93.4514C88.7035 93.321 88.8087 93.2102 88.9351 93.128Z" fill="white"/>
<path d="M101.56 95.2247L114.07 88.0141C114.57 87.7339 114.94 87.9591 114.94 88.5145V92.3775C114.924 92.6787 114.837 92.9717 114.685 93.2326C114.534 93.4935 114.323 93.7149 114.07 93.8787L101.56 101.094C101.06 101.37 100.694 101.144 100.694 100.594V96.7259C100.712 96.4256 100.799 96.1334 100.949 95.8728C101.1 95.6122 101.309 95.3903 101.56 95.2247Z" fill="url(#paint13_linear_407_22830)"/>
<path opacity="0.1" d="M101.56 95.2247L114.07 88.0141C114.57 87.7339 114.94 87.9591 114.94 88.5145V92.3775C114.924 92.6787 114.837 92.9717 114.685 93.2326C114.534 93.4935 114.323 93.7149 114.07 93.8787L101.56 101.094C101.06 101.37 100.694 101.144 100.694 100.594V96.7259C100.712 96.4256 100.799 96.1334 100.949 95.8728C101.1 95.6122 101.309 95.3903 101.56 95.2247Z" fill="black"/>
<path d="M131.183 78.9211C131.183 78.9211 125.038 70.4444 124.678 69.4136C124.393 68.653 124.678 67.5221 124.768 66.9967C124.858 66.4713 124.938 65.3004 125.028 64.9952C125.178 64.4247 124.443 64.5398 124.028 65.0602C123.612 65.5806 123.472 66.6214 123.257 66.7916C123.042 66.9617 121.405 64.5748 120.55 63.474C119.694 62.3731 119.159 61.7026 118.633 62.1129C118.258 62.4081 118.538 63.0486 119.159 63.9894C119.521 64.4959 119.855 65.0222 120.159 65.5656C120.255 65.7708 119.744 65.7858 119.469 66.2111C119.254 66.5414 119.469 67.0768 119.169 67.332C118.984 67.4726 118.857 67.6763 118.813 67.9042C118.769 68.1321 118.81 68.3684 118.929 68.568C119.486 69.4427 120.204 70.2035 121.045 70.8097C121.966 71.4452 122.336 71.6704 122.882 72.5361C123.427 73.4017 128.321 82.2437 128.651 82.7741C128.981 83.3045 129.617 84.3853 130.583 84.4153C131.548 84.4454 139.455 77.6401 139.86 77.2998C141.161 76.2139 141.576 76.0588 141.796 77.0346C141.872 77.3814 141.929 77.7323 141.967 78.0854C142.122 79.3264 142.967 83.7598 142.967 83.7598C142.967 83.7598 146.97 85.6963 150.258 84.7606C153.546 83.8249 154.656 82.4288 154.656 82.4288L153.01 79.7467C153.456 78.6408 155.512 74.1573 156.178 71.0199L145.87 69.3536C145.659 69.3085 145.319 69.2235 144.869 69.1084C144.303 68.9583 142.867 68.4629 141.781 69.4136C138.239 72.501 131.193 78.9211 131.193 78.9211" fill="#FFA8A7"/>
<path d="M151.619 130.932L149.773 133.499C150.612 133.89 151.529 134.087 152.455 134.074C154.111 134.134 154.566 133.574 154.626 133.464C154.907 132.863 154.471 131.782 154.351 130.852L151.619 130.932Z" fill="#37474F"/>
<path d="M149.878 132.268C149.878 132.268 147.636 132.123 146.09 131.932C144.544 131.742 143.318 132.493 143.678 133.128C144.038 133.764 144.894 134.294 146.225 134.74C147.361 135.125 148.727 135.4 149.908 135.74C151.089 136.081 151.91 136.526 152.595 136.286C153.361 136.021 153.691 135.715 153.626 135.155C153.459 134.358 153.252 133.569 153.005 132.793L149.878 132.268Z" fill="#37474F"/>
<path d="M154.626 128.355C154.626 128.355 154.346 130.687 154.326 131.188C154.306 131.688 152.049 131.848 151.619 130.932L151.549 128.08L154.626 128.355Z" fill="#F28F8F"/>
<path d="M152.355 129.786L153.16 133.329C153.16 133.329 153.236 133.759 151.394 134.034C149.553 134.31 146.66 133.069 146.165 132.819C145.67 132.568 145.615 132.063 147.426 132.163C149.237 132.263 149.878 132.268 149.878 132.268L149.287 130.702L152.355 129.786Z" fill="#FFA8A7"/>
<path d="M156.148 70.99L157.424 70.6348C157.424 70.6348 160.091 79.0764 160.386 79.892C160.681 80.7076 161.017 81.5683 160.441 82.5741C159.756 83.77 156.148 88.5788 156.148 88.5788L153.856 86.337L156.458 81.5733L154.156 76.9197L156.148 70.99Z" fill="#F28F8F"/>
<path d="M143.042 60.0266C142.743 59.465 142.591 58.8368 142.601 58.2006C142.611 57.5644 142.781 56.941 143.097 56.3887C144.368 54.0319 147.201 52.886 150.573 53.3214C152.134 53.5265 153.976 54.8225 154.982 56.759C156.093 58.9057 156.198 63.2291 156.483 64.8654L143.042 60.0266Z" fill="#37474F"/>
<path d="M142.952 60.9521C142.952 60.9521 142.152 62.4783 142.292 62.6185C142.499 62.7397 142.726 62.8243 142.962 62.8686L142.952 60.9521Z" fill="#FFA8A7"/>
<path d="M145.384 56.1288C144.514 56.6943 143.013 57.7351 142.948 61.1627C142.877 64.6655 143.378 65.8214 143.898 66.2267C144.249 66.5019 146.305 66.3618 147.186 66.1566C148.067 65.9515 150.603 64.6955 151.519 62.789C152.595 60.5473 152.375 57.2847 150.779 56.2839C149.966 55.8035 149.045 55.5372 148.102 55.5101C147.158 55.483 146.223 55.6959 145.384 56.1288Z" fill="#FFA8A7"/>
<path d="M154.627 82.4092C156.168 84.8111 157.629 86.9127 157.949 89.6248C158.61 95.3243 156.448 101.839 155.983 106.058C156.858 107.258 157.362 108.687 157.434 110.171C157.434 111.917 154.627 128.355 154.627 128.355C154.627 128.355 152.585 128.976 151.549 128.08L149.623 97.8412L150.624 94.1583L154.627 82.4092Z" fill="url(#paint14_linear_407_22830)"/>
<path opacity="0.2" d="M154.627 82.4092C156.168 84.8111 157.629 86.9127 157.949 89.6248C158.61 95.3243 156.448 101.839 155.983 106.058C156.858 107.258 157.362 108.687 157.434 110.171C157.434 111.917 154.627 128.355 154.627 128.355C154.627 128.355 152.585 128.976 151.549 128.08L149.623 97.8412L150.624 94.1583L154.627 82.4092Z" fill="black"/>
<path d="M149.623 97.8413L150.624 94.1584C152.54 93.654 154.388 92.9197 156.128 91.9717C156.128 91.9717 155.087 93.8682 152.095 94.909L150.549 99.6377L150.418 110.471L149.623 97.8413Z" fill="url(#paint15_linear_407_22830)"/>
<path opacity="0.3" d="M149.623 97.8413L150.624 94.1584C152.54 93.654 154.388 92.9197 156.128 91.9717C156.128 91.9717 155.087 93.8682 152.095 94.909L150.549 99.6377L150.418 110.471L149.623 97.8413Z" fill="black"/>
<path d="M154.626 82.4092C155.452 83.7602 157.424 86.062 157.003 88.2788C156.503 90.9609 155.052 92.8473 150.638 94.1583L146.495 109.17C146.495 109.17 148.652 111.172 149.312 113.108C149.973 115.045 152.355 129.796 152.355 129.796C152.355 129.796 151.614 131.002 149.287 130.712C149.287 130.712 141.176 112.197 140.606 110.992C139.913 109.77 139.671 108.345 139.92 106.963C140.175 105.022 142.922 83.7702 142.922 83.7702L154.626 82.4092Z" fill="url(#paint16_linear_407_22830)"/>
<path opacity="0.2" d="M154.626 82.4092C155.452 83.7602 157.424 86.062 157.003 88.2788C156.503 90.9609 155.052 92.8473 150.638 94.1583L146.495 109.17C146.495 109.17 148.652 111.172 149.312 113.108C149.973 115.045 152.355 129.796 152.355 129.796C152.355 129.796 151.614 131.002 149.287 130.712C149.287 130.712 141.176 112.197 140.606 110.992C139.913 109.77 139.671 108.345 139.92 106.963C140.175 105.022 142.922 83.7702 142.922 83.7702L154.626 82.4092Z" fill="black"/>
<path d="M156.148 70.9906L145.84 69.3243C145.629 69.2793 145.289 69.1942 144.839 69.0791C144.839 69.0791 144.399 75.5442 141.751 77.0253C141.817 77.3356 141.872 77.6808 141.922 78.0761C142.077 79.3171 142.922 83.7506 142.922 83.7506C142.922 83.7506 146.925 85.6871 150.213 84.7513C153.501 83.8156 154.612 82.4195 154.612 82.4195L152.965 79.7374C153.426 78.6216 155.497 74.1381 156.148 70.9906Z" fill="url(#paint17_linear_407_22830)"/>
<path opacity="0.7" d="M156.148 70.9906L145.84 69.3243C145.629 69.2793 145.289 69.1942 144.839 69.0791C144.839 69.0791 144.399 75.5442 141.751 77.0253C141.817 77.3356 141.872 77.6808 141.922 78.0761C142.077 79.3171 142.922 83.7506 142.922 83.7506C142.922 83.7506 146.925 85.6871 150.213 84.7513C153.501 83.8156 154.612 82.4195 154.612 82.4195L152.965 79.7374C153.426 78.6216 155.497 74.1381 156.148 70.9906Z" fill="white"/>
<path d="M153.43 78.6709C152.061 79.4929 150.627 80.2009 149.142 80.7875C150.49 80.7607 151.81 80.3959 152.98 79.7267L153.43 78.6709Z" fill="url(#paint18_linear_407_22830)"/>
<path d="M145.129 56.2991C145.129 56.2991 144.629 59.5516 145.81 61.4631C145.81 61.4631 146.25 60.1671 147.346 60.4123C148.442 60.6575 148.502 62.1036 147.731 62.9142C147.535 63.1416 147.279 63.3092 146.993 63.3977C146.706 63.4862 146.4 63.4921 146.11 63.4146C146.11 63.4146 145.935 65.7665 145.84 67.738C145.745 69.7095 145.224 74.0079 147.441 75.7443C149.658 77.4806 155.222 78.0911 157.829 74.4483C159.28 72.4217 157.354 68.8389 156.458 64.8207C155.632 61.1278 155.167 55.6536 151.249 54.7729C147.331 53.8922 145.129 56.2991 145.129 56.2991Z" fill="#37474F"/>
<path d="M159.505 11.8594L158.68 12.3597C158.749 12.066 158.788 11.7658 158.795 11.464C158.795 9.78774 157.619 9.11221 156.168 9.96287C155.726 10.2293 155.332 10.5675 155.002 10.9637C155.002 8.7119 153.421 7.79618 151.469 8.92206C150.441 9.59272 149.585 10.4963 148.971 11.5596C148.357 12.6229 148.003 13.8159 147.936 15.0418C147.936 15.1569 147.936 15.267 147.936 15.3771C147.434 15.3138 146.925 15.4309 146.5 15.7074C145.735 16.2056 145.099 16.8772 144.643 17.6675C144.186 18.4578 143.923 19.3446 143.873 20.2559C143.873 20.4678 143.895 20.6791 143.938 20.8864L143.498 21.1416C142.302 21.8321 141.331 23.1782 141.331 24.144C141.331 25.1097 142.302 25.3399 143.498 24.6443L159.51 15.4121C160.706 14.7216 161.677 13.3755 161.677 12.4098C161.677 11.444 160.701 11.1638 159.505 11.8594Z" fill="#EBEBEB"/>
<defs>
<linearGradient id="paint0_linear_407_22830" x1="33.4199" y1="134.835" x2="20.8899" y2="132.796" gradientUnits="userSpaceOnUse">
<stop stop-color="#246BFD"/>
<stop offset="1" stop-color="#5089FF"/>
</linearGradient>
<linearGradient id="paint1_linear_407_22830" x1="27.0942" y1="139.544" x2="8.845" y2="136.483" gradientUnits="userSpaceOnUse">
<stop stop-color="#246BFD"/>
<stop offset="1" stop-color="#5089FF"/>
</linearGradient>
<linearGradient id="paint2_linear_407_22830" x1="133.386" y1="107.559" x2="116.057" y2="104.348" gradientUnits="userSpaceOnUse">
<stop stop-color="#246BFD"/>
<stop offset="1" stop-color="#5089FF"/>
</linearGradient>
<linearGradient id="paint3_linear_407_22830" x1="67.4834" y1="107.229" x2="44.2746" y2="104.118" gradientUnits="userSpaceOnUse">
<stop stop-color="#246BFD"/>
<stop offset="1" stop-color="#5089FF"/>
</linearGradient>
<linearGradient id="paint4_linear_407_22830" x1="67.4835" y1="129.711" x2="30.5163" y2="122.669" gradientUnits="userSpaceOnUse">
<stop stop-color="#246BFD"/>
<stop offset="1" stop-color="#5089FF"/>
</linearGradient>
<linearGradient id="paint5_linear_407_22830" x1="126.955" y1="122.421" x2="71.4373" y2="115.522" gradientUnits="userSpaceOnUse">
<stop stop-color="#246BFD"/>
<stop offset="1" stop-color="#5089FF"/>
</linearGradient>
<linearGradient id="paint6_linear_407_22830" x1="113.229" y1="59.0787" x2="93.2584" y2="54.5934" gradientUnits="userSpaceOnUse">
<stop stop-color="#246BFD"/>
<stop offset="1" stop-color="#5089FF"/>
</linearGradient>
<linearGradient id="paint7_linear_407_22830" x1="107.735" y1="49.7092" x2="101.26" y2="48.2513" gradientUnits="userSpaceOnUse">
<stop stop-color="#246BFD"/>
<stop offset="1" stop-color="#5089FF"/>
</linearGradient>
<linearGradient id="paint8_linear_407_22830" x1="110.237" y1="59.0788" x2="98.1843" y2="55.4989" gradientUnits="userSpaceOnUse">
<stop stop-color="#246BFD"/>
<stop offset="1" stop-color="#5089FF"/>
</linearGradient>
<linearGradient id="paint9_linear_407_22830" x1="100.694" y1="71.8743" x2="87.2284" y2="66.3525" gradientUnits="userSpaceOnUse">
<stop stop-color="#246BFD"/>
<stop offset="1" stop-color="#5089FF"/>
</linearGradient>
<linearGradient id="paint10_linear_407_22830" x1="121.02" y1="81.4537" x2="85.067" y2="66.771" gradientUnits="userSpaceOnUse">
<stop stop-color="#246BFD"/>
<stop offset="1" stop-color="#5089FF"/>
</linearGradient>
<linearGradient id="paint11_linear_407_22830" x1="100.694" y1="88.3052" x2="87.2274" y2="82.7844" gradientUnits="userSpaceOnUse">
<stop stop-color="#246BFD"/>
<stop offset="1" stop-color="#5089FF"/>
</linearGradient>
<linearGradient id="paint12_linear_407_22830" x1="121.02" y1="97.8824" x2="85.067" y2="83.1997" gradientUnits="userSpaceOnUse">
<stop stop-color="#246BFD"/>
<stop offset="1" stop-color="#5089FF"/>
</linearGradient>
<linearGradient id="paint13_linear_407_22830" x1="114.94" y1="101.212" x2="98.1763" y2="96.0125" gradientUnits="userSpaceOnUse">
<stop stop-color="#246BFD"/>
<stop offset="1" stop-color="#5089FF"/>
</linearGradient>
<linearGradient id="paint14_linear_407_22830" x1="158.074" y1="128.564" x2="147.203" y2="127.987" gradientUnits="userSpaceOnUse">
<stop stop-color="#246BFD"/>
<stop offset="1" stop-color="#5089FF"/>
</linearGradient>
<linearGradient id="paint15_linear_407_22830" x1="156.128" y1="110.471" x2="147.823" y2="109.624" gradientUnits="userSpaceOnUse">
<stop stop-color="#246BFD"/>
<stop offset="1" stop-color="#5089FF"/>
</linearGradient>
<linearGradient id="paint16_linear_407_22830" x1="157.061" y1="130.757" x2="135.062" y2="128.483" gradientUnits="userSpaceOnUse">
<stop stop-color="#246BFD"/>
<stop offset="1" stop-color="#5089FF"/>
</linearGradient>
<linearGradient id="paint17_linear_407_22830" x1="156.148" y1="85.0068" x2="138.771" y2="80.4529" gradientUnits="userSpaceOnUse">
<stop stop-color="#246BFD"/>
<stop offset="1" stop-color="#5089FF"/>
</linearGradient>
<linearGradient id="paint18_linear_407_22830" x1="153.43" y1="80.7876" x2="149.318" y2="78.3717" gradientUnits="userSpaceOnUse">
<stop stop-color="#246BFD"/>
<stop offset="1" stop-color="#5089FF"/>
</linearGradient>
</defs>
</svg>
